<svg width="36" height="36" viewBox="0 0 36 36" fill="none" xmlns="http://www.w3.org/2000/svg">
<path d="M9.774 24.2788L13.4955 29.0308L8.25 32.2378" stroke="white" stroke-linecap="round" stroke-linejoin="round"/>
<path d="M23.7271 6.76172H28.5001C29.122 6.82599 29.6974 7.12018 30.1136 7.58661C30.5298 8.05305 30.7568 8.65812 30.7501 9.28322V19.5117C30.7501 20.1085 30.5131 20.6807 30.0911 21.1027C29.6692 21.5247 29.0969 21.7617 28.5001 21.7617H7.50014C6.90341 21.7617 6.33111 21.5247 5.90915 21.1027C5.4872 20.6807 5.25014 20.1085 5.25014 19.5117V9.28322C5.24347 8.65812 5.47048 8.05305 5.88669 7.58661C6.30291 7.12018 6.87832 6.82599 7.50014 6.76172H12.2731" stroke="white" stroke-linecap="round" stroke-linejoin="round"/>
<path d="M12.2729 6.76172L14.9924 4.26872C15.3608 3.96445 15.8173 3.78671 16.2944 3.76172H19.7054C20.1826 3.78671 20.6391 3.96445 21.0074 4.26872L23.7269 6.76172" stroke="white" stroke-linecap="round" stroke-linejoin="round"/>
<path d="M33.4573 19.5117C33.9668 19.8408 34.3941 20.2823 34.7061 20.8024C35.0182 21.3225 35.2068 21.9073 35.2573 22.5117C35.2573 26.0412 28.3303 28.9617 19.5073 29.2617" stroke="white" stroke-linecap="round" stroke-linejoin="round"/>
<path d="M13.5 29.0293C6.15 28.2553 0.75 25.6303 0.75 22.5118C0.798568 21.9126 0.983422 21.3325 1.29044 20.8157C1.59747 20.2988 2.01854 19.859 2.5215 19.5298" stroke="white" stroke-linecap="round" stroke-linejoin="round"/>
<path d="M18 17.2617C20.0711 17.2617 21.75 15.5828 21.75 13.5117C21.75 11.4407 20.0711 9.76172 18 9.76172C15.9289 9.76172 14.25 11.4407 14.25 13.5117C14.25 15.5828 15.9289 17.2617 18 17.2617Z" stroke="white" stroke-linecap="round" stroke-linejoin="round"/>
<path d="M26.25 10.8867C26.3242 10.8867 26.3967 10.9087 26.4583 10.9499C26.52 10.9911 26.5681 11.0497 26.5965 11.1182C26.6248 11.1867 26.6323 11.2621 26.6178 11.3349C26.6033 11.4076 26.5676 11.4744 26.5152 11.5269C26.4627 11.5793 26.3959 11.615 26.3232 11.6295C26.2504 11.644 26.175 11.6366 26.1065 11.6082C26.038 11.5798 25.9794 11.5317 25.9382 11.4701C25.897 11.4084 25.875 11.3359 25.875 11.2617C25.875 11.1623 25.9145 11.0669 25.9848 10.9966C26.0552 10.9262 26.1505 10.8867 26.25 10.8867Z" stroke="white" stroke-linecap="round" stroke-linejoin="round"/>
</svg>
