<svg width="96" height="99" viewBox="0 0 96 99" fill="none" xmlns="http://www.w3.org/2000/svg">
<path d="M73.0906 80.8602V62.042C73.0906 56.6757 71.5021 51.4294 68.5254 46.9643C65.5487 42.4992 61.3169 39.0151 56.3633 36.9511C56.3633 34.1784 55.2618 31.5193 53.3012 29.5586C51.3406 27.598 48.6815 26.4966 45.9087 26.4966C43.136 26.4966 40.4769 27.598 38.5163 29.5586C36.5557 31.5193 35.4542 34.1784 35.4542 36.9511C30.5006 39.0151 26.2688 42.4992 23.2921 46.9643C20.3154 51.4294 18.7269 56.6757 18.7269 62.042V80.8602C18.7269 83.0784 17.8458 85.2057 16.2773 86.7742C14.7088 88.3427 12.5815 89.2239 10.3633 89.2239H81.4542C79.236 89.2239 77.1087 88.3427 75.5402 86.7742C73.9717 85.2057 73.0906 83.0784 73.0906 80.8602Z" stroke="#505256" stroke-width="2.78788" stroke-linecap="round" stroke-linejoin="round"/>
<path d="M54.2732 89.2236C54.2732 91.4418 53.392 93.5691 51.8235 95.1376C50.255 96.7061 48.1277 97.5873 45.9095 97.5873C43.6914 97.5873 41.564 96.7061 39.9956 95.1376C38.4271 93.5691 37.5459 91.4418 37.5459 89.2236" stroke="#505256" stroke-width="2.78788" stroke-linecap="round" stroke-linejoin="round"/>
<path d="M2 18.1367H14.5455L2 30.6822H14.5455" stroke="#505256" stroke-width="2.78788" stroke-linecap="round" stroke-linejoin="round"/>
<path d="M73.0908 1.40967H93.9999L73.0908 22.3188H93.9999" stroke="#505256" stroke-width="2.78788" stroke-linecap="round" stroke-linejoin="round"/>
</svg>
