<svg width="24" height="24" viewBox="0 0 24 24" fill="none" xmlns="http://www.w3.org/2000/svg">
<path d="M14.1547 2H5.47278C4.55174 2 3.66843 2.36645 3.01715 3.01874C2.36588 3.67103 2 4.55573 2 5.4782V9.82595C2 10.7484 2.36588 11.6331 3.01715 12.2854C3.66843 12.9377 4.55174 13.3042 5.47278 13.3042H6.34097V16.7824L10.2478 13.3042H14.1547C15.0758 13.3042 15.9591 12.9377 16.6103 12.2854C17.2616 11.6331 17.6275 10.7484 17.6275 9.82595V5.4782C17.6275 4.55573 17.2616 3.67103 16.6103 3.01874C15.9591 2.36645 15.0758 2 14.1547 2V2Z" stroke="currentColor" stroke-width="1.5" stroke-linecap="round" stroke-linejoin="round"/>
<path d="M11.582 15.9133V17.2176C11.582 17.5031 11.6382 17.7857 11.7472 18.0495C11.8563 18.3132 12.0162 18.5529 12.2178 18.7547C12.4193 18.9566 12.6586 19.1167 12.9219 19.226C13.1852 19.3352 13.4675 19.3915 13.7525 19.3915H15.923L18.5276 22.0001V19.3915H19.8299C20.1149 19.3915 20.3972 19.3352 20.6605 19.226C20.9238 19.1167 21.1631 18.9566 21.3647 18.7547C21.5662 18.5529 21.7261 18.3132 21.8352 18.0495C21.9442 17.7857 22.0004 17.5031 22.0004 17.2176V14.6089C22.0004 14.0324 21.7717 13.4795 21.3647 13.0718C20.9576 12.6641 20.4055 12.4351 19.8299 12.4351H19.3958" stroke="currentColor" stroke-width="1.5" stroke-linecap="round" stroke-linejoin="round"/>
<path d="M9.83594 4.8125V10.6458" stroke="currentColor" stroke-width="1.5" stroke-linecap="round" stroke-linejoin="round"/>
<path d="M7.83301 6.81958H11.8401" stroke="currentColor" stroke-width="1.5" stroke-linecap="round" stroke-linejoin="round"/>
</svg>
