<svg width="24" height="24" viewBox="0 0 24 24" fill="none" xmlns="http://www.w3.org/2000/svg">
<path fill-rule="evenodd" clip-rule="evenodd" d="M6.52809 18.1555C6.8688 18.5265 7.27711 18.9098 7.78602 18.9302C12.3169 12.714 15.9006 7.83211 20.8745 1.95009C21.5302 1.17466 22.2428 0.366093 23.2209 0.0568952C23.4044 -0.00109965 23.6165 -0.0368722 23.781 0.0615565C24.0291 0.21003 24.0257 0.561252 23.9671 0.840277C23.6751 2.22948 22.7899 3.4172 21.9275 4.55639C20.3734 6.60927 18.8193 8.66214 17.2652 10.715C14.175 14.7971 12.2511 17.7169 9.68913 22.1362C9.20489 22.9715 8.58402 23.9218 7.60646 23.9957C6.977 24.0434 6.37663 23.6862 5.96032 23.2211C5.54397 22.7561 5.27207 22.1875 4.96252 21.6484C4.04264 20.0461 2.76557 18.67 1.43712 17.3717C0.800723 16.7497 0.111147 16.068 0.0108031 15.1928C-0.0887667 14.3245 0.510754 13.4284 1.36303 13.1715C2.21531 12.9146 3.22521 13.3256 3.64093 14.0985L6.52809 18.1555Z" fill="#00CA99"/>
</svg>
