<svg width="26" height="26" viewBox="0 0 26 26" fill="none" xmlns="http://www.w3.org/2000/svg">
<path d="M5.20898 9.3291C6.23164 10.3895 7.55315 11.113 8.99743 11.4033C10.4417 11.6936 11.9401 11.5368 13.2931 10.954" stroke="currentColor" stroke-linecap="round" stroke-linejoin="round"/>
<path d="M8.96325 15.9092C11.3732 15.9092 13.3269 13.9555 13.3269 11.5455C13.3269 9.13555 11.3732 7.18188 8.96325 7.18188C6.55328 7.18188 4.59961 9.13555 4.59961 11.5455C4.59961 13.9555 6.55328 15.9092 8.96325 15.9092Z" stroke="currentColor" stroke-linecap="round" stroke-linejoin="round"/>
<path d="M13 25C19.6274 25 25 19.6274 25 13C25 6.37258 19.6274 1 13 1C6.37258 1 1 6.37258 1 13C1 19.6274 6.37258 25 13 25Z" stroke="currentColor" stroke-linecap="round" stroke-linejoin="round"/>
<path d="M16.1863 24.5713C16.1014 23.1355 15.5885 21.7581 14.7135 20.6166C13.8385 19.4751 12.6417 18.6218 11.2773 18.1668C9.91287 17.7118 8.44346 17.676 7.05848 18.0638C5.67351 18.4517 4.43646 19.2456 3.50684 20.343" stroke="currentColor" stroke-linecap="round" stroke-linejoin="round"/>
<path d="M18.8192 15.909C20.4259 15.909 21.7283 14.6066 21.7283 12.9999C21.7283 11.3933 20.4259 10.0908 18.8192 10.0908C17.2126 10.0908 15.9102 11.3933 15.9102 12.9999C15.9102 14.6066 17.2126 15.909 18.8192 15.909Z" stroke="currentColor" stroke-linecap="round" stroke-linejoin="round"/>
<path d="M22.8928 19.7926C22.4045 19.1153 21.7481 18.5771 20.9882 18.2311C20.2284 17.8851 19.3914 17.7433 18.56 17.8197C17.7286 17.896 16.9315 18.188 16.2474 18.6666C15.5633 19.1452 15.0159 19.794 14.6592 20.5489" stroke="currentColor" stroke-linecap="round" stroke-linejoin="round"/>
</svg>
