<svg width="22" height="26" viewBox="0 0 22 26" fill="none" xmlns="http://www.w3.org/2000/svg">
<path d="M2.56511 12.4764C2.56511 10.2626 3.44455 8.13943 5.00997 6.57401C6.57539 5.00859 8.69855 4.12915 10.9124 4.12915C13.1262 4.12915 15.2494 5.00859 16.8148 6.57401C18.3802 8.13943 19.2597 10.2626 19.2597 12.4764V19.2586C19.2597 19.6737 19.4245 20.0718 19.7181 20.3653C20.0116 20.6588 20.4097 20.8237 20.8248 20.8237H1C1.41509 20.8237 1.81319 20.6588 2.1067 20.3653C2.40022 20.0718 2.56511 19.6737 2.56511 19.2586V12.4764Z" stroke="currentColor" stroke-linecap="round" stroke-linejoin="round"/>
<path d="M10.9121 1V4.13023" stroke="currentColor" stroke-linecap="round" stroke-linejoin="round"/>
<path d="M13.4682 22.9106C13.3484 23.5003 13.0285 24.0305 12.5626 24.4113C12.0967 24.7921 11.5135 25.0001 10.9118 25.0001C10.3101 25.0001 9.7269 24.7921 9.26101 24.4113C8.79512 24.0305 8.47521 23.5003 8.35547 22.9106" stroke="currentColor" stroke-linecap="round" stroke-linejoin="round"/>
<path d="M13.5205 7.74878C14.3038 8.13741 14.963 8.73706 15.4239 9.48018C15.8848 10.2233 16.129 11.0803 16.129 11.9548" stroke="currentColor" stroke-linecap="round" stroke-linejoin="round"/>
</svg>
