<svg width="20" height="26" viewBox="0 0 20 26" fill="none" xmlns="http://www.w3.org/2000/svg">
<path d="M1 25C1 22.6131 1.94821 20.3239 3.63604 18.636C5.32387 16.9482 7.61305 16 10 16C12.3869 16 14.6761 16.9482 16.364 18.636C18.0518 20.3239 19 22.6131 19 25" stroke="currentColor" stroke-linecap="round" stroke-linejoin="round"/>
<path d="M4.83301 3.95337C6.2394 5.41073 8.05628 6.4052 10.0418 6.80443C12.0274 7.20366 14.0875 6.98871 15.9478 6.18819" stroke="currentColor" stroke-linecap="round" stroke-linejoin="round"/>
<path d="M10 13C13.3137 13 16 10.3137 16 7C16 3.68629 13.3137 1 10 1C6.68629 1 4 3.68629 4 7C4 10.3137 6.68629 13 10 13Z" stroke="currentColor" stroke-linecap="round" stroke-linejoin="round"/>
</svg>
