<svg width="26" height="26" viewBox="0 0 26 26" fill="none" xmlns="http://www.w3.org/2000/svg">
<path d="M1.78839 20.0144C1.78839 20.0144 2.43043 14.4199 3.59782 12.7321C4.5836 11.0224 7.04758 8.78373 8.79498 9.40588C11.0505 10.2089 10.5899 13.9832 10.0174 15.7579C9.43244 17.3299 7.1088 18.7954 6.61143 19.6281C6.13299 20.4291 5.76104 21.4288 5.76104 21.4288M1.78839 20.0144L5.76104 21.4288M1.78839 20.0144C1.78839 20.0144 -0.242406 24.0085 2.21468 24.8833C4.67176 25.7581 5.76104 21.4288 5.76104 21.4288" stroke="currentColor" stroke-linecap="round" stroke-linejoin="round"/>
<path d="M20.1415 13.6656C20.1415 13.6656 24.0247 9.55539 24.5516 7.54913C25.2155 5.67171 25.308 2.29018 23.6718 1.31603C21.5598 0.0585873 18.9581 2.85315 17.9705 4.44726C17.1472 5.92053 17.5573 8.69336 17.2453 9.62135C16.9452 10.514 16.4216 11.4509 16.4216 11.4509M20.1415 13.6656L16.4216 11.4509M20.1415 13.6656C20.1415 13.6656 18.4103 17.8374 16.1096 16.4676C13.8089 15.0978 16.4216 11.4509 16.4216 11.4509" stroke="currentColor" stroke-linecap="round" stroke-linejoin="round"/>
</svg>
