<svg width="21" height="24" viewBox="0 0 21 24" fill="none" xmlns="http://www.w3.org/2000/svg">
    <path
        d="M11.3168 5.65305C10.9846 5.75486 10.497 5.84059 9.82184 5.89953C9.88078 2.86135 11.424 0.723376 14.5372 0C15.0355 2.22907 13.1386 5.0422 11.3168 5.65305ZM17.8165 9.54856C18.1594 9.04488 18.706 8.48225 19.4561 7.84997C18.2612 6.37107 16.8788 5.47622 14.8962 5.47622C12.9993 5.47622 11.4025 6.45144 10.2344 6.45144C9.24313 6.45144 7.45345 5.58875 5.70663 5.58875C1.97723 5.58875 0 9.23778 0 13.0368C0 17.2592 3.19893 24 6.44072 24C7.71601 24 8.86269 23.0355 10.3791 23.0355C11.9491 23.0355 13.2083 23.9571 14.6818 23.9571C17.1467 23.9571 19.4293 19.8044 20.1474 17.5432C17.6397 16.777 15.6249 12.71 17.8165 9.54856Z"
        fill="white" />
</svg>