<svg width="24" height="16" viewBox="0 0 24 16" fill="none" xmlns="http://www.w3.org/2000/svg">
    <path
        d="M23.888 1.83224C23.8546 1.81804 23.8177 1.81417 23.782 1.82112C23.7464 1.82807 23.7136 1.84552 23.688 1.87124L13.941 11.6162C13.4253 12.1316 12.7261 12.4211 11.997 12.4211C11.2679 12.4211 10.5687 12.1316 10.053 11.6162L0.310002 1.87124C0.28451 1.84529 0.251754 1.82767 0.216052 1.82071C0.180349 1.81375 0.143375 1.81777 0.110002 1.83224C0.0772087 1.84636 0.0492947 1.86982 0.0297354 1.89969C0.0101762 1.92956 -0.000164108 1.96453 1.96956e-06 2.00024V14.0002C1.96956e-06 14.5307 0.210716 15.0394 0.585788 15.4144C0.960861 15.7895 1.46957 16.0002 2 16.0002H22C22.5304 16.0002 23.0391 15.7895 23.4142 15.4144C23.7893 15.0394 24 14.5307 24 14.0002V2.00024C24.0001 1.96427 23.9896 1.92909 23.9696 1.89917C23.9497 1.86925 23.9212 1.84594 23.888 1.83224Z"
        fill="white" />
    <path
        d="M11.1149 10.556C11.3496 10.79 11.6675 10.9214 11.9989 10.9214C12.3303 10.9214 12.6482 10.79 12.8829 10.556L22.5689 0.87C22.6345 0.804424 22.6805 0.721904 22.7019 0.631664C22.7232 0.541423 22.7191 0.447018 22.6899 0.359C22.5799 0.0300002 22.2739 0 21.9999 0H1.99989C1.72489 0 1.41689 0.0300002 1.30889 0.359C1.27968 0.447018 1.27553 0.541423 1.2969 0.631664C1.31827 0.721904 1.36431 0.804424 1.42989 0.87L11.1149 10.556Z"
        fill="white" />
</svg>