<svg width="21" height="20" viewBox="0 0 21 20" fill="none" xmlns="http://www.w3.org/2000/svg">
    <path
        d="M16.7917 12.1333C16.7794 12.235 16.7301 12.3285 16.6533 12.3961C16.5764 12.4638 16.4774 12.5007 16.375 12.5H14.6667C14.5562 12.5 14.4502 12.5439 14.372 12.622C14.2939 12.7002 14.25 12.8062 14.25 12.9167V19.5833C14.25 19.6938 14.2939 19.7998 14.372 19.878C14.4502 19.9561 14.5562 20 14.6667 20H19.6667C19.8877 20 20.0996 19.9122 20.2559 19.7559C20.4122 19.5996 20.5 19.3877 20.5 19.1667V0.833333C20.5 0.61232 20.4122 0.400358 20.2559 0.244078C20.0996 0.0877974 19.8877 0 19.6667 0L1.33333 0C1.11232 0 0.900358 0.0877974 0.744078 0.244078C0.587797 0.400358 0.5 0.61232 0.5 0.833333L0.5 19.1667C0.5 19.3877 0.587797 19.5996 0.744078 19.7559C0.900358 19.9122 1.11232 20 1.33333 20H10.5C10.6105 20 10.7165 19.9561 10.7946 19.878C10.8728 19.7998 10.9167 19.6938 10.9167 19.5833V12.9167C10.9167 12.8062 10.8728 12.7002 10.7946 12.622C10.7165 12.5439 10.6105 12.5 10.5 12.5H8.83333C8.72283 12.5 8.61685 12.4561 8.5387 12.378C8.46056 12.2998 8.41667 12.1938 8.41667 12.0833V9.58333C8.41667 9.47283 8.46056 9.36685 8.5387 9.2887C8.61685 9.21056 8.72283 9.16667 8.83333 9.16667H10.5C10.6105 9.16667 10.7165 9.12277 10.7946 9.04463C10.8728 8.96649 10.9167 8.86051 10.9167 8.75V7.65833C10.9167 6.40076 11.4162 5.1947 12.3055 4.30547C13.1947 3.41623 14.4008 2.91667 15.6583 2.91667H16.75C16.8605 2.91667 16.9665 2.96057 17.0446 3.03871C17.1228 3.11685 17.1667 3.22283 17.1667 3.33333V5.83333C17.1667 5.94384 17.1228 6.04982 17.0446 6.12796C16.9665 6.2061 16.8605 6.25 16.75 6.25H15.6583C15.2848 6.25 14.9266 6.39838 14.6625 6.66249C14.3984 6.9266 14.25 7.28482 14.25 7.65833V8.75C14.25 8.86051 14.2939 8.96649 14.372 9.04463C14.4502 9.12277 14.5562 9.16667 14.6667 9.16667H16.6917C16.7509 9.16624 16.8095 9.17843 16.8636 9.20242C16.9177 9.22641 16.9661 9.26166 17.0055 9.30582C17.0449 9.34997 17.0745 9.40202 17.0922 9.45849C17.1099 9.51496 17.1154 9.57457 17.1083 9.63333L16.7917 12.1333Z"
        fill="white" />
</svg>