<svg width="34" height="32" viewBox="0 0 34 32" fill="none" xmlns="http://www.w3.org/2000/svg">
<path d="M18.6455 17.7155C18.4456 17.9182 18.2074 18.0792 17.9448 18.189C17.6821 18.2989 17.4003 18.3554 17.1156 18.3554C16.8309 18.3554 16.549 18.2989 16.2864 18.189C16.0238 18.0792 15.7856 17.9182 15.5857 17.7155L7.95898 9.97995C7.1601 9.21159 6.63004 8.20628 6.44736 7.11303C6.26468 6.01977 6.4391 4.89675 6.94476 3.9104V3.9104C7.34589 3.15953 7.91573 2.51195 8.60947 2.01857C9.30322 1.52519 10.102 1.19947 10.9429 1.06702C11.7838 0.934573 12.644 0.999004 13.4558 1.25525C14.2677 1.51149 15.009 1.95257 15.6215 2.54379L17.1156 3.99635L18.6111 2.54379C19.2236 1.95257 19.9649 1.51149 20.7768 1.25525C21.5886 0.999004 22.4488 0.934573 23.2897 1.06702C24.1306 1.19947 24.9294 1.52519 25.6231 2.01857C26.3169 2.51195 26.8867 3.15953 27.2878 3.9104V3.9104C27.7947 4.89754 27.9696 6.02185 27.7867 7.11633C27.6037 8.21081 27.0726 9.21708 26.2722 9.98568L18.6455 17.7155Z" stroke="currentColor" stroke-linecap="round" stroke-linejoin="round"/>
<path d="M5.29753 31.0002L2.41245 27.5894C1.49813 26.4464 1 25.0263 1 23.5626V16.1536C1 15.5838 1.22639 15.0372 1.62936 14.6342C2.03233 14.2313 2.57888 14.0049 3.14876 14.0049V14.0049C3.71865 14.0049 4.2652 14.2313 4.66817 14.6342C5.07114 15.0372 5.29753 15.5838 5.29753 16.1536V21.5256" stroke="currentColor" stroke-linecap="round" stroke-linejoin="round"/>
<path d="M11.744 30.9995V26.702C11.7446 25.4273 11.3672 24.181 10.6596 23.1207L9.02371 20.6711C8.88353 20.4389 8.69772 20.2376 8.47751 20.0793C8.25729 19.921 8.00726 19.809 7.74252 19.75C7.47779 19.6911 7.20385 19.6865 6.93728 19.7365C6.67071 19.7865 6.41705 19.89 6.19164 20.0408V20.0408C5.78706 20.3121 5.49504 20.7213 5.37009 21.1921C5.24514 21.6629 5.2958 22.1631 5.51263 22.5993L7.44938 25.8224" stroke="currentColor" stroke-linecap="round" stroke-linejoin="round"/>
<path d="M28.9338 31.0002L31.8189 27.5894C32.7332 26.4464 33.2314 25.0263 33.2314 23.5626V16.1536C33.2314 15.5838 33.005 15.0372 32.602 14.6342C32.199 14.2313 31.6525 14.0049 31.0826 14.0049C30.5127 14.0049 29.9662 14.2313 29.5632 14.6342C29.1602 15.0372 28.9338 15.5838 28.9338 16.1536V21.5256" stroke="currentColor" stroke-linecap="round" stroke-linejoin="round"/>
<path d="M22.4874 31.0006V26.7031C22.4869 25.4284 22.8642 24.1821 23.5718 23.1218L25.2078 20.6694C25.3473 20.4366 25.5327 20.2346 25.7527 20.0756C25.9726 19.9166 26.2225 19.8039 26.4873 19.7443C26.7521 19.6847 27.0262 19.6794 27.2931 19.7289C27.5599 19.7783 27.814 19.8814 28.0398 20.0319V20.0319C28.4467 20.303 28.7405 20.7133 28.866 21.1858C28.9916 21.6582 28.9403 22.1603 28.7217 22.5975L26.785 25.8207" stroke="currentColor" stroke-linecap="round" stroke-linejoin="round"/>
</svg>
