<svg width="32" height="32" viewBox="0 0 30 30" fill="none" xmlns="http://www.w3.org/2000/svg">
<path fill-rule="evenodd" clip-rule="evenodd" d="M29.9695 2.41585L29.9817 2.55178C29.993 2.66335 29.9986 2.77304 29.9976 2.88272L29.9939 3.13397C29.9911 3.43585 29.9864 3.73773 29.9705 4.0396C29.9545 4.32929 29.9311 4.67148 29.8701 5.01648C29.8092 5.37648 29.7267 5.74398 29.6245 6.10586C29.4895 6.58117 29.362 6.97211 29.2251 7.33305C29.0864 7.69586 28.8886 8.16836 28.5811 8.61743C28.3694 8.93239 28.1563 9.24358 27.9443 9.55304C27.9197 9.58901 27.895 9.62495 27.8705 9.66087L27.533 10.1596C27.4111 10.3434 27.2892 10.5262 27.1589 10.7034C26.9892 10.9321 26.8036 11.1506 26.6151 11.3671L26.497 11.5059C26.1764 11.8781 25.8445 12.2624 25.4104 12.5709L24.9829 12.8793C24.7617 13.0396 24.5404 13.1999 24.3154 13.3546C24.2086 13.4287 24.0417 13.5131 23.8345 13.5131C23.6648 13.5131 23.467 13.4568 23.2551 13.2918C23.1184 13.1854 22.9865 13.0749 22.8542 12.9642L22.8211 12.9365L22.2107 12.4396C22.0101 12.2784 21.8114 12.1181 21.6145 11.9531C21.3801 11.7562 21.1457 11.5565 20.9132 11.3568C20.8408 11.2954 20.7685 11.2339 20.6962 11.1725C20.4982 11.0041 20.3003 10.8358 20.1004 10.6696C19.6917 10.3284 19.2764 9.99274 18.8526 9.66556C18.7051 9.55155 18.5481 9.44716 18.3915 9.3431L18.3745 9.3318L18.1223 9.16399C17.9864 9.07118 17.9076 8.93805 17.9039 8.79086C17.8982 8.64836 17.9657 8.51149 18.0876 8.41493C18.1354 8.37836 18.1842 8.34368 18.2339 8.30899L18.2377 8.30633C18.2945 8.26694 18.3503 8.22827 18.3989 8.18243C18.441 8.14211 18.4804 8.07086 18.516 8.00149L19.0992 6.86523C19.2398 6.59711 19.3757 6.33836 19.5257 6.08711C19.6195 5.93054 19.7198 5.77773 19.8211 5.62492C19.8895 5.52179 19.957 5.41867 20.0226 5.31367C20.077 5.22648 20.1295 5.13742 20.1792 5.04835C20.2636 4.90304 20.3489 4.75773 20.4445 4.61898C20.7032 4.24492 20.9704 3.87741 21.2479 3.5146C21.4757 3.2146 21.7176 2.92304 21.9642 2.63429C22.1207 2.4496 22.2904 2.27241 22.4676 2.1046C22.6786 1.90491 22.8979 1.71178 23.1211 1.52522C23.3532 1.33114 23.6102 1.18581 23.8583 1.0455L23.8654 1.04147C23.9676 0.984281 24.0689 0.927093 24.1683 0.866155C24.5723 0.62053 25.0148 0.418967 25.5183 0.250216C25.6589 0.202404 25.807 0.177091 25.957 0.153653C25.9644 0.152433 25.9718 0.151217 25.9792 0.150001C26.074 0.134413 26.1684 0.118874 26.2589 0.0936532C26.7473 -0.0469722 27.2226 -0.00290957 27.7064 0.0561531C28.0842 0.103028 28.4564 0.253029 28.8445 0.511779C28.9701 0.596155 29.0789 0.70303 29.1867 0.810843L29.3967 1.01991L29.4061 1.02967C29.4466 1.07202 29.4846 1.11171 29.5186 1.13522C29.8261 1.34241 29.8701 1.64897 29.8992 1.85147L29.9133 1.94241C29.9405 2.09897 29.9555 2.25741 29.9695 2.41585ZM6.40352 25.7391C6.40658 25.7287 6.40965 25.7184 6.41272 25.708L6.43803 25.6255L4.93428 25.2121L4.90624 25.2046C4.67545 25.1434 4.44313 25.0817 4.21427 25.0096C3.78147 24.8746 3.35037 24.7284 2.92016 24.5826L2.85771 24.5615L2.35052 24.3861C2.30927 24.3718 2.26802 24.3572 2.22677 24.3426C2.14427 24.3134 2.06177 24.2843 1.97927 24.2568C1.7702 24.7433 1.58364 25.2261 1.50583 25.7512L1.48989 25.8608L1.48814 25.8724C1.44753 26.1419 1.40922 26.3961 1.40645 26.6512C1.40176 27.0262 1.47864 27.374 1.63427 27.6824C1.76739 27.9458 1.94645 28.1952 2.1827 28.4465C2.35052 28.6246 2.52677 28.7183 2.73583 28.739C3.16802 28.783 3.48115 28.753 3.75302 28.6415L4.4599 28.3471C4.51726 28.3221 4.57323 28.2956 4.62961 28.269C4.63865 28.2647 4.6477 28.2604 4.65677 28.2562L4.7449 28.213C5.15084 27.958 5.48365 27.6327 5.73115 27.2362C5.9299 26.9174 6.09022 26.5687 6.23365 26.2387C6.30258 26.0796 6.35318 25.9089 6.40352 25.7391ZM6.66418 24.2522C6.90606 24.3075 7.14418 24.3619 7.38418 24.4031C7.77043 24.4687 7.99731 24.7265 7.97668 25.0762C7.96825 25.23 7.92512 25.3669 7.88668 25.4878L7.77137 25.8956C7.69543 26.1731 7.6195 26.4497 7.52575 26.7178C7.38699 27.1162 7.21918 27.5362 6.93887 27.9047C6.70918 28.2075 6.4823 28.4709 6.24605 28.7091C5.99012 28.9659 5.7248 29.16 5.43418 29.3006C5.10699 29.46 4.77605 29.6081 4.44417 29.7553C4.04855 29.9306 3.62198 29.9709 3.25261 29.9963C3.21604 29.9991 3.17948 30 3.14292 30C3.02734 30 2.91096 29.9887 2.79377 29.9774C2.78453 29.9765 2.77529 29.9756 2.76604 29.9747L2.76595 29.9747C2.68723 29.9662 2.60851 29.9578 2.52979 29.9541C2.19229 29.9381 1.86979 29.8463 1.59604 29.6906C1.38796 29.5716 1.21925 29.3954 1.07115 29.2407L1.07104 29.2406C0.952913 29.1169 0.895725 29.0391 0.84135 28.9594L0.839911 28.9573C0.793573 28.8915 0.749981 28.8296 0.708225 28.7934C0.489787 28.6059 0.398849 28.3669 0.326661 28.1747L0.274161 28.0416C0.174579 27.8108 0.131355 27.5735 0.0894582 27.3435L0.0885354 27.3384C0.0735354 27.255 0.0585353 27.1725 0.0407228 27.0919C0.0210352 27.0037 0.0107227 26.91 0.00791018 26.82C0.00228516 26.6447 -0.00240235 26.4675 0.00134766 26.2912C0.00603517 26.0906 0.0116602 25.9078 0.0388478 25.7306C0.0557228 25.6256 0.0819729 25.5225 0.108223 25.4203L0.113168 25.4008C0.135022 25.3145 0.156891 25.2281 0.168223 25.1409C0.21954 24.7509 0.356286 24.4129 0.488819 24.0853L0.490724 24.0806L0.573224 23.8734C0.6351 23.7169 0.720412 23.5715 0.8076 23.4272C0.865725 23.3306 0.92385 23.234 0.970726 23.1319C1.16666 22.7006 1.4751 22.5328 1.88573 22.6387C1.97667 22.6612 2.11542 22.6959 2.22979 22.8478C2.24198 22.8656 2.2551 22.8844 2.27104 22.9003C2.37586 22.9359 2.48904 22.9746 2.60716 23.0149C2.76585 23.0692 2.93345 23.1264 3.10167 23.1834L3.29292 23.2472L3.2931 23.2472C3.63523 23.3625 3.97736 23.4778 4.3223 23.5828C4.60449 23.669 4.88855 23.7506 5.17168 23.8312L6.66418 24.2522ZM10.0733 17.0168C10.1464 16.7871 10.2045 16.5359 10.2458 16.2687C10.2964 15.9424 10.3283 15.6124 10.3489 15.2815C10.3594 15.1245 10.347 14.9651 10.3346 14.8063C10.3337 14.7953 10.3329 14.7843 10.332 14.7734L10.3133 14.5034L10.3118 14.4816C10.2973 14.262 10.2829 14.0425 10.242 13.8265C10.1938 13.5659 10.1144 13.3081 10.0356 13.0521L10.033 13.0437L9.99639 12.9255C9.92889 12.7034 9.80795 12.4755 9.63827 12.2487C9.44326 11.989 9.26608 11.8071 9.0317 11.7696C8.94264 11.7555 8.82545 11.7743 8.73639 11.7912C8.58732 11.8202 8.44014 11.8605 8.30045 11.9149C8.13357 11.9815 7.94138 12.0593 7.77638 12.1605C7.54295 12.304 7.32076 12.469 7.10138 12.6349C6.87076 12.8093 6.63919 12.9846 6.42544 13.1787L6.42451 13.1796C6.23701 13.3484 6.0645 13.5368 5.89857 13.7299L5.75607 13.894L5.75406 13.8963C5.53636 14.1467 5.32991 14.3842 5.157 14.643C4.90856 15.0143 4.69106 15.4277 4.4895 15.8196C4.40247 15.9882 4.33513 16.1684 4.26737 16.3497L4.26262 16.3624L4.08262 16.8274L4.04797 16.9158C3.89255 17.3121 3.73678 17.7093 3.58668 18.109C3.55106 18.2027 3.52762 18.3012 3.50418 18.3996L3.402 18.7727L3.39987 18.7799C3.35746 18.9228 3.31528 19.0649 3.28762 19.2124C3.2573 19.3691 3.2406 19.5303 3.22392 19.6913C3.22203 19.7095 3.22015 19.7277 3.21825 19.7459L3.19481 19.9727C3.17793 20.1124 3.16293 20.2512 3.15168 20.3909C3.14848 20.4165 3.14665 20.438 3.14501 20.4571C3.14473 20.4604 3.14446 20.4636 3.14418 20.4668C3.39262 20.5493 3.642 20.6281 3.89137 20.7068L5.26481 21.1334C5.2941 21.1417 5.32323 21.1499 5.35221 21.1581C5.55612 21.2157 5.75302 21.2713 5.94919 21.3312C6.25013 21.424 6.55201 21.5196 6.85107 21.619L6.98419 21.664C7.27107 21.7578 7.55607 21.8534 7.84013 21.9565C7.95639 21.7606 8.0717 21.5637 8.17764 21.3612C8.42326 20.8878 8.6642 20.4115 8.89764 19.9306C9.02419 19.669 9.14044 19.4018 9.25668 19.1347L9.2567 19.1346L9.33826 18.9462C9.45733 18.6752 9.55577 18.4493 9.64389 18.2168C9.79389 17.8202 9.94389 17.4218 10.0733 17.0168ZM11.7522 14.8277L11.7525 14.8326C11.7703 15.1045 11.7881 15.3867 11.7525 15.6754C11.7197 15.9501 11.6803 16.2229 11.6306 16.492C11.5885 16.7198 11.535 16.9457 11.4694 17.166C11.3681 17.5092 11.2603 17.8504 11.1403 18.187C10.995 18.5929 10.8422 18.9942 10.6781 19.3907C10.6172 19.5389 10.5459 19.6814 10.4738 19.8239C10.4297 19.9101 10.3856 19.9964 10.3444 20.0836C10.3094 20.1596 10.2757 20.236 10.2422 20.3123C10.2281 20.3442 10.2141 20.3761 10.2 20.4079L10.2 20.408C10.1316 20.5645 10.0631 20.7211 9.98813 20.8739C9.86783 21.119 9.73512 21.3553 9.60207 21.5923L9.59063 21.6126L8.99063 22.6598L8.9896 22.6617C8.96237 22.7105 8.92019 22.7861 8.91001 22.8389C8.90007 22.8908 8.89823 22.944 8.89637 22.998C8.89595 23.0102 8.89552 23.0225 8.89501 23.0348L8.89496 23.0362C8.8931 23.092 8.89121 23.1487 8.88563 23.2026C8.87251 23.3554 8.79657 23.4839 8.67657 23.5561C8.60907 23.5973 8.53125 23.6189 8.45063 23.6189C8.385 23.6189 8.3175 23.6039 8.25094 23.5767L7.99406 23.4661C7.82344 23.392 7.65281 23.3179 7.47844 23.2561C7.00312 23.0892 6.52312 22.9326 6.04312 22.7845C5.71968 22.6842 5.39624 22.5876 5.07281 22.4929C4.79812 22.4123 4.52249 22.3308 4.2478 22.2464C4.01999 22.1761 3.79311 22.1029 3.56624 22.0279L2.8453 21.7964C2.82807 21.791 2.81085 21.7856 2.79364 21.7802C2.64322 21.7332 2.49348 21.6864 2.34374 21.6351C1.79998 21.4467 1.72967 21.0379 1.73623 20.8111C1.74323 20.5957 1.75346 20.3816 1.76369 20.1671C1.7658 20.123 1.76791 20.0789 1.76998 20.0348L1.79436 19.5398C1.81576 19.0364 1.94981 18.5774 2.07922 18.1343L2.08217 18.1242L2.12905 17.9639C2.20311 17.7032 2.28092 17.4426 2.37561 17.1904C2.4478 16.9982 2.52936 16.8089 2.61092 16.6204L2.8528 16.0476C2.99811 15.697 3.1453 15.3445 3.29811 14.9882C3.49405 14.5129 3.7678 14.1126 3.98437 13.8173C4.19905 13.5229 4.44937 13.2135 4.75218 12.8695C4.98562 12.6013 5.23406 12.3454 5.48906 12.111C5.74031 11.8785 6.0075 11.6779 6.21281 11.5288C6.42927 11.3707 6.65239 11.2217 6.87589 11.0725C6.88955 11.0633 6.90321 11.0542 6.91687 11.0451L7.11375 10.9138C7.2 10.8557 7.29281 10.8032 7.38563 10.7545L7.48125 10.7038C7.62094 10.6298 7.76063 10.5557 7.905 10.4938L7.98281 10.4592C8.16282 10.3757 8.43188 10.251 8.76282 10.3907C8.79257 10.404 8.83541 10.4128 8.88259 10.4224C8.89189 10.4243 8.90137 10.4262 8.91094 10.4282L9.18563 10.4863C9.32719 10.5163 9.46876 10.5482 9.60188 10.6054C10.0088 10.7788 10.32 10.9982 10.5544 11.2767C10.8525 11.6301 11.1319 11.9863 11.2734 12.4485C11.2996 12.5331 11.3355 12.6153 11.3713 12.6973C11.374 12.7034 11.3767 12.7096 11.3794 12.7157C11.4375 12.847 11.4947 12.9792 11.5303 13.116C11.656 13.6035 11.7235 14.0582 11.7366 14.5054C11.7393 14.6125 11.7458 14.7197 11.7522 14.8277ZM19.9964 16.5226L20.0883 16.442C20.5167 16.0642 20.8421 15.6123 21.1552 15.1426C21.0446 15.0536 20.9311 14.9664 20.8186 14.8811L20.3339 14.5033C20.2849 14.4644 20.2358 14.4255 20.1867 14.3866C19.8502 14.1199 19.5135 13.8531 19.1846 13.5798C18.9839 13.4139 18.7917 13.2405 18.6005 13.067L17.3395 11.9476L17.2655 12.0358L17.2461 12.0585C17.1241 12.2018 17.0023 12.3449 16.8999 12.4998C16.6889 12.8195 16.4705 13.1645 16.3027 13.5236C16.0908 13.9745 15.9933 14.4601 16.0055 15.0086L16.0167 15.0873C16.0252 15.1595 16.0345 15.2317 16.0467 15.3039L16.1939 16.1036C16.2511 16.4111 16.4058 16.7092 16.6974 17.0711C16.8399 17.2483 17.0274 17.3523 17.288 17.3992C17.648 17.4648 17.9742 17.4789 18.2874 17.4461C18.6549 17.4058 19.0102 17.2745 19.3439 17.0514C19.5717 16.8986 19.7789 16.7158 19.9964 16.5226ZM22.2046 14.143L22.2356 14.129C22.4306 14.1412 22.5384 14.2415 22.6087 14.308C22.9312 14.6062 22.9603 14.9671 22.694 15.3815C22.6321 15.4798 22.5817 15.5844 22.5316 15.6882L22.5271 15.6974C22.4493 15.8577 22.3706 16.0171 22.2665 16.1615L22.1259 16.3612L22.1191 16.3708C21.9074 16.6716 21.6885 16.9828 21.3777 17.248C21.2999 17.3155 21.2315 17.3905 21.1631 17.4655C21.0871 17.548 21.0112 17.6296 20.9287 17.7046C20.7918 17.8265 20.6371 17.9334 20.4843 18.0374C20.2996 18.164 20.1402 18.2615 19.9799 18.358C19.8984 18.4077 19.8121 18.4527 19.7221 18.4855C19.6561 18.5103 19.5902 18.5374 19.5242 18.5646C19.5077 18.5714 19.4911 18.5782 19.4746 18.5849C19.2459 18.6815 19.0106 18.779 18.749 18.824L18.5999 18.8549C18.595 18.856 18.59 18.857 18.585 18.8581C18.4563 18.8855 18.3096 18.9168 18.1499 18.9168C18.0496 18.9168 17.9455 18.9046 17.8368 18.8727C17.7824 18.8567 17.7051 18.8534 17.6235 18.8498L17.6109 18.8493C17.5096 18.8465 17.4074 18.8418 17.3099 18.823L17.29 18.8192C16.9995 18.7637 16.7518 18.7164 16.5327 18.6027C16.2384 18.4499 15.973 18.2184 15.7677 17.9315C15.722 17.869 15.6721 17.8074 15.6235 17.7473L15.614 17.7355C15.5043 17.5996 15.3955 17.4637 15.313 17.3155C15.1237 16.9752 14.9146 16.574 14.8424 16.123C14.7805 15.7443 14.7224 15.3646 14.6755 14.983C14.6334 14.6455 14.6521 14.3005 14.7327 13.9265C14.8059 13.5852 14.908 13.2327 15.0459 12.8493C15.2109 12.3899 15.4865 12.0008 15.7593 11.6483C15.9318 11.4245 16.1219 11.2107 16.3121 10.9967C16.3235 10.9839 16.3348 10.9711 16.3462 10.9583L16.6424 10.619C16.7277 10.5158 16.8243 10.3996 16.9527 10.3049C17.2443 10.0911 17.5959 10.1446 17.8687 10.4408C18.0487 10.6349 18.238 10.8196 18.4321 11.0071L19.6462 12.0702C19.8843 12.2783 20.1234 12.4855 20.3652 12.689C20.6699 12.9449 20.9821 13.1924 21.2943 13.439L21.4256 13.543C21.6815 13.7465 21.9393 13.948 22.2046 14.143ZM28.5158 3.89085C28.4952 4.19741 28.4717 4.50397 28.423 4.80679C28.3799 5.07304 28.3124 5.33554 28.2364 5.59429L28.1746 5.81179C28.0761 6.15398 27.9852 6.47554 27.853 6.78304C27.6674 7.21523 27.4339 7.63242 27.192 8.05617C27.0889 8.23617 26.9633 8.40492 26.8386 8.57461L26.5527 8.96836C26.2639 9.3743 25.9742 9.77836 25.6789 10.1796C25.6152 10.2649 25.5411 10.3427 25.468 10.4215L25.1952 10.7271C25.0911 10.8499 24.9861 10.9737 24.868 11.0843C24.7311 11.2165 24.5811 11.3365 24.4311 11.4574L24.2445 11.6074C24.1292 11.7031 24.0158 11.7968 23.862 11.9168C23.8508 11.9252 23.8377 11.9365 23.8245 11.9459C23.5967 11.7668 23.3745 11.5831 23.1514 11.3993L22.0133 10.4543C21.8145 10.2771 21.6214 10.1093 21.4264 9.94524C21.1695 9.73055 20.9117 9.51774 20.6502 9.30867L20.5433 9.22336C20.2873 9.01898 20.0305 8.81367 19.767 8.61773C19.8767 8.39555 19.9864 8.17523 20.1092 7.95867C20.3886 7.46742 20.6727 6.9771 20.9652 6.49335C21.1302 6.21773 21.3092 5.9496 21.4873 5.68054L21.6111 5.49397C21.7564 5.27366 21.9008 5.05335 22.0573 4.84054C22.3245 4.47772 22.5908 4.11585 22.8758 3.76616C23.0398 3.56553 23.2311 3.36772 23.443 3.17928C23.7027 2.94584 23.9792 2.72647 24.2624 2.51647C24.4058 2.40959 24.5661 2.32428 24.7892 2.2024L24.9805 2.09553C25.1895 1.97834 25.3986 1.86021 25.6199 1.76928C25.8842 1.66053 26.1655 1.58084 26.4449 1.50209L26.5639 1.4674C26.802 1.39896 27.0795 1.37459 27.3786 1.39428C27.7264 1.41865 27.9936 1.47303 28.167 1.66428C28.2336 1.73928 28.2842 1.85271 28.3217 1.94365C28.3808 2.09365 28.4305 2.24928 28.4633 2.40772C28.5111 2.6374 28.543 2.82865 28.5477 3.01616C28.5561 3.30678 28.5364 3.59928 28.5158 3.89085Z" fill="currentColor"/>
</svg>
