<svg width="32" height="32" viewBox="0 0 28 28" fill="none" xmlns="http://www.w3.org/2000/svg">
<path fill-rule="evenodd" clip-rule="evenodd" d="M27.9739 2.25479L27.9852 2.38167C27.9957 2.48579 28.001 2.58817 28.0001 2.69054L27.9966 2.92504C27.994 3.20679 27.9896 3.48855 27.9747 3.7703C27.9599 4.04067 27.938 4.36005 27.8811 4.68205C27.8242 5.01805 27.7472 5.36105 27.6519 5.6988C27.5259 6.14243 27.4069 6.50731 27.2791 6.84418C27.1496 7.18281 26.965 7.62381 26.678 8.04294C26.4805 8.33683 26.2816 8.62722 26.0838 8.91599L26.0147 9.01681L25.6997 9.48232C25.586 9.65382 25.4722 9.82444 25.3506 9.98982C25.1922 10.2033 25.019 10.4072 24.8431 10.6093L24.7329 10.7388C24.4336 11.0862 24.1239 11.4449 23.7187 11.7328L23.3197 12.0207C23.1132 12.1703 22.9067 12.3199 22.6967 12.4643C22.597 12.5335 22.4412 12.6122 22.2479 12.6122C22.0895 12.6122 21.9049 12.5597 21.7071 12.4057C21.5795 12.3064 21.4564 12.2034 21.333 12.1L21.302 12.0741L20.7323 11.6103C20.5451 11.4598 20.3596 11.3102 20.1758 11.1562C19.9571 10.9724 19.7383 10.7861 19.5213 10.5997C19.4537 10.5424 19.3862 10.485 19.3188 10.4276C19.1339 10.2705 18.9493 10.1134 18.7627 9.95832C18.3812 9.63982 17.9936 9.32656 17.5981 9.02119C17.4605 8.9148 17.3139 8.81737 17.1677 8.72025L17.1518 8.70969L16.9165 8.55306C16.7896 8.46644 16.7161 8.34219 16.7126 8.20481C16.7073 8.07181 16.7703 7.94406 16.8841 7.85393C16.9287 7.81981 16.9742 7.78744 17.0206 7.75506L17.0242 7.75255C17.0772 7.7158 17.1292 7.67971 17.1746 7.63693C17.214 7.59931 17.2507 7.53281 17.284 7.46806L17.8282 6.40756C17.9595 6.1573 18.0863 5.9158 18.2263 5.6813C18.3138 5.53518 18.4075 5.39255 18.502 5.24993C18.5658 5.15368 18.6288 5.05743 18.6901 4.95943C18.7408 4.87805 18.7898 4.79492 18.8362 4.7118C18.915 4.57617 18.9946 4.44055 19.0838 4.31105C19.3253 3.96192 19.5747 3.61892 19.8337 3.2803C20.0463 3.00029 20.2721 2.72817 20.5022 2.45867C20.6483 2.28629 20.8067 2.12092 20.9721 1.96429C21.169 1.77792 21.3737 1.59766 21.582 1.42354C21.7986 1.2424 22.0385 1.10676 22.2701 0.975809L22.2767 0.972038C22.3721 0.918662 22.4666 0.865287 22.5594 0.808412C22.9365 0.579161 23.3495 0.391036 23.8194 0.233535C23.9506 0.18891 24.0889 0.165285 24.2289 0.14341C24.2358 0.14227 24.2427 0.141135 24.2496 0.140001C24.338 0.125453 24.4262 0.110949 24.5106 0.0874097C24.9665 -0.0438407 25.4101 -0.0027156 25.8616 0.0524096C26.2142 0.0961597 26.5616 0.23616 26.9239 0.477661C27.0411 0.556411 27.1426 0.656162 27.2432 0.756787L27.4392 0.951912L27.448 0.961035C27.4858 1.00055 27.5213 1.03759 27.553 1.05954C27.84 1.25291 27.8811 1.53904 27.9082 1.72804L27.9214 1.81292C27.9467 1.95904 27.9607 2.10692 27.9739 2.25479ZM5.97594 24.0232C5.9788 24.0135 5.98166 24.0039 5.98453 23.9942L6.00815 23.9172L4.60465 23.5314L4.57849 23.5244C4.36308 23.4672 4.14625 23.4096 3.93265 23.3424C3.52863 23.2163 3.1262 23.0799 2.72461 22.9438L2.66652 22.9241L2.19314 22.7605C2.15465 22.7471 2.11617 22.7335 2.07769 22.7199C2.00067 22.6926 1.92365 22.6654 1.84664 22.6397C1.65151 23.0939 1.47739 23.5445 1.40476 24.0345L1.38989 24.1369L1.38825 24.1477C1.35035 24.3992 1.3146 24.6364 1.31201 24.8745C1.30764 25.2245 1.37939 25.5491 1.52464 25.837C1.64889 26.0829 1.81601 26.3156 2.03651 26.5501C2.19314 26.7164 2.35764 26.8039 2.55277 26.8231C2.95614 26.8642 3.24839 26.8362 3.50214 26.7321L4.1619 26.4574C4.21543 26.434 4.26767 26.4093 4.32028 26.3845C4.32872 26.3805 4.33718 26.3765 4.34565 26.3725L4.4279 26.3322C4.80677 26.0942 5.1174 25.7906 5.3484 25.4205C5.5339 25.123 5.68353 24.7975 5.8174 24.4895C5.88173 24.341 5.92896 24.1817 5.97594 24.0232ZM6.2199 22.6354C6.44565 22.687 6.6679 22.7377 6.89191 22.7762C7.25241 22.8375 7.46416 23.0781 7.44491 23.4045C7.43703 23.548 7.39678 23.6757 7.36091 23.7886L7.25328 24.1692C7.18241 24.4282 7.11153 24.6864 7.02403 24.9366C6.89453 25.3085 6.7379 25.7005 6.47628 26.0444C6.2619 26.327 6.05015 26.5729 5.82965 26.7951C5.59078 27.0349 5.34315 27.216 5.0719 27.3472C4.76652 27.496 4.45765 27.6342 4.1479 27.7716C3.77865 27.9352 3.38052 27.9729 3.03577 27.9965C3.00164 27.9991 2.96752 28 2.93339 28C2.82555 28 2.71695 27.9895 2.6076 27.9789C2.59895 27.978 2.5903 27.9772 2.58164 27.9764C2.50814 27.9685 2.43464 27.9606 2.36114 27.9571C2.04614 27.9422 1.74514 27.8565 1.48964 27.7112C1.29544 27.6002 1.13797 27.4357 0.999742 27.2914L0.999636 27.2912C0.889386 27.1757 0.836011 27.1031 0.78526 27.0287L0.783928 27.0269C0.740675 26.9654 0.699985 26.9076 0.66101 26.8739C0.457134 26.6989 0.372259 26.4757 0.304884 26.2964L0.255884 26.1721C0.162941 25.9567 0.122598 25.7352 0.0834945 25.5206L0.0826331 25.5159C0.068633 25.438 0.054633 25.361 0.0380079 25.2857C0.0196329 25.2035 0.0100078 25.116 0.00738284 25.032C0.00213282 24.8684 -0.00224219 24.703 0.00125782 24.5385C0.00563283 24.3512 0.0108828 24.1806 0.0362579 24.0152C0.052008 23.9172 0.0765081 23.821 0.101008 23.7256L0.105619 23.7074C0.126018 23.6268 0.146431 23.5462 0.157008 23.4649C0.204904 23.1009 0.332532 22.7854 0.456229 22.4796L0.458009 22.4752L0.53501 22.2819C0.59276 22.1357 0.672385 22.0001 0.75376 21.8654C0.80801 21.7752 0.862261 21.6851 0.906011 21.5897C1.08889 21.1872 1.37676 21.0306 1.76001 21.1295C1.84489 21.1505 1.97439 21.1829 2.08114 21.3246C2.09251 21.3412 2.10476 21.3587 2.11964 21.3736C2.21754 21.4069 2.32326 21.443 2.4336 21.4807C2.58163 21.5313 2.73798 21.5847 2.89489 21.6379L3.07339 21.6974L3.07357 21.6974C3.39288 21.805 3.7122 21.9126 4.03415 22.0106C4.29752 22.0911 4.56265 22.1672 4.8269 22.2425L6.2199 22.6354ZM9.40299 15.8826C9.47124 15.6682 9.52549 15.4337 9.56399 15.1844C9.61124 14.8799 9.64099 14.5719 9.66024 14.263C9.67006 14.1165 9.65845 13.9677 9.64688 13.8195C9.64608 13.8092 9.64528 13.799 9.64449 13.7887L9.62699 13.5367L9.62565 13.5164C9.61212 13.3114 9.59861 13.1066 9.56049 12.905C9.51548 12.6618 9.44137 12.4211 9.36779 12.1822L9.36536 12.1743L9.33124 12.0641C9.26824 11.8567 9.15536 11.6441 8.99699 11.4323C8.81499 11.19 8.64961 11.0202 8.43086 10.9852C8.34774 10.9721 8.23836 10.9896 8.15523 11.0053C8.01611 11.0325 7.87873 11.0701 7.74836 11.1208C7.59261 11.183 7.41323 11.2556 7.25923 11.3501C7.04136 11.484 6.83398 11.638 6.62923 11.7928C6.41398 11.9556 6.19785 12.1192 5.99835 12.3003L5.99748 12.3012C5.82248 12.4587 5.66148 12.6346 5.5066 12.8149L5.3736 12.968L5.37173 12.9701C5.16854 13.2038 4.97585 13.4255 4.81447 13.6671C4.5826 14.0136 4.3796 14.3995 4.19147 14.7652C4.11024 14.9226 4.04739 15.0908 3.98415 15.26L3.97972 15.2719L3.81172 15.7059L3.77939 15.7883C3.63433 16.1582 3.48893 16.529 3.34884 16.902C3.31559 16.9895 3.29372 17.0814 3.27184 17.1732L3.17647 17.5215L3.17449 17.5282C3.1349 17.6615 3.09554 17.7942 3.06972 17.9319C3.04142 18.0781 3.02583 18.2286 3.01026 18.3788C3.0085 18.3958 3.00674 18.4128 3.00497 18.4297L2.98309 18.6415C2.96734 18.7719 2.95334 18.9014 2.94284 19.0317C2.93986 19.0556 2.93814 19.0757 2.93662 19.0936C2.93636 19.0967 2.9361 19.0997 2.93584 19.1026C3.16772 19.1796 3.40047 19.2531 3.63322 19.3266L4.9151 19.7247C4.94239 19.7325 4.96953 19.7401 4.99654 19.7478C5.1869 19.8015 5.37071 19.8534 5.55385 19.9094C5.83473 19.996 6.11648 20.0852 6.3956 20.178L6.51985 20.22C6.7876 20.3075 7.05361 20.3968 7.31873 20.493C7.42723 20.3101 7.53486 20.1264 7.63373 19.9374C7.86298 19.4955 8.08786 19.051 8.30573 18.6021C8.42385 18.358 8.53234 18.1087 8.64083 17.8593L8.64086 17.8592L8.71699 17.6834C8.82811 17.4305 8.91999 17.2196 9.00224 17.0026C9.14224 16.6325 9.28224 16.2606 9.40299 15.8826ZM10.9707 13.8393L10.971 13.8439C10.9876 14.0976 11.0042 14.361 10.971 14.6305C10.9404 14.8869 10.9036 15.1415 10.8572 15.3926C10.8179 15.6052 10.768 15.8161 10.7067 16.0217C10.6122 16.342 10.5116 16.6605 10.3996 16.9746C10.264 17.3535 10.1214 17.728 9.96824 18.0981C9.91137 18.2364 9.84486 18.3694 9.77749 18.5024L9.77745 18.5024C9.73634 18.5829 9.69523 18.6634 9.65674 18.7447C9.62405 18.8157 9.59266 18.8871 9.56135 18.9582C9.54825 18.988 9.53516 19.0178 9.52199 19.0475L9.52197 19.0475C9.4581 19.1937 9.39423 19.3398 9.32424 19.4824C9.21195 19.7112 9.08809 19.9317 8.96391 20.1529L8.95324 20.1719L8.39324 21.1493L8.39228 21.151C8.36686 21.1965 8.32749 21.2671 8.31798 21.3164C8.30871 21.3649 8.307 21.4145 8.30526 21.4649C8.30487 21.4763 8.30447 21.4878 8.30398 21.4993L8.30394 21.5005C8.30221 21.5526 8.30044 21.6055 8.29523 21.6559C8.28298 21.7985 8.21211 21.9184 8.10011 21.9858C8.03711 22.0243 7.96448 22.0444 7.88923 22.0444C7.82798 22.0444 7.76498 22.0304 7.70286 22.005L7.46311 21.9018C7.30386 21.8326 7.14461 21.7635 6.98186 21.7058C6.53823 21.55 6.09023 21.4039 5.64223 21.2656C5.34035 21.172 5.03847 21.0819 4.7366 20.9935C4.48022 20.9183 4.22297 20.8421 3.9666 20.7634C3.75397 20.6978 3.54222 20.6295 3.33047 20.5595L2.65759 20.3434C2.64143 20.3383 2.62529 20.3333 2.60915 20.3282C2.46883 20.2844 2.32915 20.2407 2.18946 20.1929C1.68196 20.017 1.61634 19.6355 1.62246 19.4237C1.629 19.2227 1.63854 19.0229 1.64809 18.8227C1.65006 18.7816 1.65202 18.7404 1.65396 18.6992L1.67671 18.2372C1.69669 17.7674 1.8218 17.339 1.94258 16.9254L1.94534 16.916L1.98909 16.7664C2.05821 16.5231 2.13084 16.2799 2.21921 16.0445C2.28659 15.8651 2.36272 15.6884 2.43884 15.5125L2.66459 14.9779C2.80022 14.6506 2.93759 14.3216 3.08022 13.9891C3.26309 13.5455 3.51859 13.1719 3.72072 12.8962C3.9211 12.6215 4.15472 12.3327 4.43735 12.0116C4.65522 11.7613 4.8871 11.5225 5.1251 11.3037C5.3596 11.0867 5.60898 10.8995 5.8006 10.7603C6.00261 10.6128 6.21083 10.4737 6.41941 10.3344C6.43219 10.3259 6.44496 10.3174 6.45773 10.3088L6.64148 10.1863C6.72198 10.1321 6.8086 10.0831 6.89523 10.0376L6.98448 9.99034L6.98449 9.99033C7.11487 9.92121 7.24524 9.85209 7.37998 9.79434L7.45261 9.76197C7.62061 9.68409 7.87173 9.56772 8.18061 9.69809C8.20838 9.71052 8.24836 9.71867 8.2924 9.72764C8.30108 9.72941 8.30992 9.73122 8.31886 9.73309L8.57524 9.78734C8.70736 9.81534 8.83949 9.84509 8.96374 9.89847C9.34349 10.0603 9.63399 10.2651 9.85274 10.525C10.131 10.8548 10.3917 11.1873 10.5239 11.6187C10.5483 11.6977 10.5818 11.7743 10.6152 11.8509C10.6177 11.8566 10.6202 11.8624 10.6227 11.8681C10.677 11.9906 10.7304 12.114 10.7636 12.2417C10.8809 12.6967 10.9439 13.1211 10.9561 13.5385C10.9587 13.6385 10.9647 13.7385 10.9707 13.8393ZM18.6628 15.4211L18.7485 15.3459C19.1484 14.9933 19.452 14.5715 19.7443 14.1331C19.641 14.05 19.5352 13.9686 19.4302 13.889L18.9778 13.5364C18.932 13.5001 18.8862 13.4638 18.8404 13.4275C18.5263 13.1786 18.212 12.9296 17.905 12.6745C17.7178 12.5196 17.5384 12.3577 17.3599 12.1959L16.183 11.1511L16.1139 11.2334L16.0958 11.2546C15.9819 11.3884 15.8682 11.5219 15.7727 11.6665C15.5758 11.9649 15.3719 12.2869 15.2153 12.622C15.0175 13.0429 14.9265 13.4961 14.9379 14.008L14.9484 14.0815C14.9563 14.1489 14.965 14.2163 14.9764 14.2836L15.1138 15.03C15.1672 15.317 15.3115 15.5953 15.5837 15.933C15.7167 16.0984 15.8917 16.1955 16.1349 16.2393C16.4709 16.3005 16.7754 16.3136 17.0677 16.283C17.4107 16.2454 17.7423 16.1229 18.0538 15.9146C18.2664 15.772 18.4598 15.6014 18.6628 15.4211ZM20.7234 13.2004L20.7523 13.1873C20.9343 13.1986 21.0349 13.2923 21.1005 13.3544C21.4016 13.6326 21.4287 13.9695 21.1802 14.3563C21.1224 14.4481 21.0753 14.5457 21.0285 14.6426L21.0244 14.6511C20.9518 14.8008 20.8783 14.9495 20.7812 15.0843L20.6499 15.2706L20.6436 15.2796C20.4461 15.5603 20.2417 15.8508 19.9517 16.0984C19.879 16.1614 19.8152 16.2314 19.7513 16.3014C19.6804 16.3784 19.6095 16.4545 19.5325 16.5245C19.4048 16.6383 19.2604 16.738 19.1178 16.8351C18.9454 16.9533 18.7967 17.0443 18.647 17.1344C18.5709 17.1808 18.4904 17.2228 18.4064 17.2534C18.3448 17.2765 18.2833 17.3018 18.2217 17.3271C18.2063 17.3335 18.1908 17.3398 18.1754 17.3461C17.9619 17.4363 17.7423 17.5273 17.4982 17.5693L17.359 17.5981L17.3451 17.6011C17.225 17.6267 17.0881 17.6559 16.939 17.6559C16.8454 17.6559 16.7483 17.6445 16.6468 17.6148C16.596 17.5998 16.5239 17.5967 16.4477 17.5934L16.4359 17.5929C16.3414 17.5903 16.246 17.5859 16.155 17.5684L16.1364 17.5648C15.8654 17.513 15.6341 17.4688 15.4297 17.3628C15.1549 17.2201 14.9073 17.004 14.7157 16.7363C14.673 16.678 14.6264 16.6204 14.5811 16.5644L14.5722 16.5534C14.4698 16.4265 14.3683 16.2996 14.2913 16.1614C14.1145 15.8438 13.9194 15.4693 13.852 15.0484C13.7943 14.6949 13.74 14.3405 13.6963 13.9844C13.6569 13.6694 13.6744 13.3474 13.7497 12.9983C13.8179 12.6798 13.9133 12.3507 14.0419 11.9929C14.1959 11.5641 14.4532 11.201 14.7078 10.872C14.8688 10.6631 15.0462 10.4635 15.2238 10.2637C15.2343 10.2518 15.2449 10.2399 15.2555 10.228L15.532 9.91124C15.6117 9.81499 15.7018 9.70649 15.8217 9.61812C16.0938 9.41861 16.4219 9.46849 16.6765 9.74499C16.8445 9.92612 17.0213 10.0985 17.2024 10.2735L18.3355 11.2657C18.5578 11.46 18.7809 11.6534 19.0067 11.8432C19.291 12.0821 19.5824 12.3131 19.8738 12.5433L19.9963 12.6404C20.2352 12.8303 20.4758 13.0184 20.7234 13.2004ZM26.6141 3.63117C26.5949 3.9173 26.573 4.20342 26.5275 4.48605C26.4872 4.73455 26.4242 4.97955 26.3534 5.22105L26.2956 5.42405C26.2037 5.74343 26.1189 6.04355 25.9955 6.33055C25.8222 6.73393 25.6044 7.12331 25.3786 7.51881C25.2824 7.68681 25.1651 7.84431 25.0487 8.00269L24.7819 8.37019C24.5124 8.74906 24.242 9.12619 23.9664 9.50069C23.9069 9.58032 23.8377 9.65294 23.7695 9.72644L23.5149 10.0117C23.4177 10.1263 23.3197 10.2418 23.2095 10.3451C23.0817 10.4684 22.9417 10.5804 22.8017 10.6933L22.6276 10.8333C22.52 10.9226 22.4141 11.0101 22.2706 11.1221C22.2601 11.1299 22.2479 11.1404 22.2356 11.1492C22.023 10.9821 21.8156 10.8106 21.6074 10.6391L20.5451 9.75707C20.3596 9.59169 20.1793 9.43507 19.9973 9.28194C19.7576 9.08156 19.517 8.88294 19.2728 8.68781L19.1731 8.60819C18.9342 8.41744 18.6945 8.22581 18.4486 8.04294C18.551 7.83556 18.6533 7.62993 18.768 7.42781C19.0287 6.96931 19.2938 6.51168 19.5668 6.06018C19.7208 5.80293 19.888 5.55268 20.0542 5.30155L20.1697 5.12743C20.3053 4.9218 20.4401 4.71617 20.5862 4.51755C20.8356 4.17892 21.0841 3.84117 21.3501 3.5148C21.5032 3.32755 21.6817 3.14292 21.8795 2.96704C22.1219 2.74917 22.38 2.54442 22.6442 2.34842C22.7781 2.24867 22.9277 2.16904 23.136 2.05529L23.3145 1.95554C23.5096 1.84617 23.7047 1.73591 23.9112 1.65104C24.158 1.54954 24.4205 1.47516 24.6812 1.40166L24.7924 1.36929C25.0146 1.30541 25.2736 1.28266 25.5527 1.30104C25.8774 1.32379 26.1267 1.37454 26.2886 1.55304C26.3507 1.62304 26.398 1.72891 26.433 1.81379C26.4881 1.95379 26.5345 2.09904 26.5651 2.24692C26.6097 2.46129 26.6395 2.63979 26.6439 2.81479C26.6517 3.08604 26.6334 3.35905 26.6141 3.63117Z" fill="currentColor"/>
</svg>
