<svg width="34" height="32" viewBox="0 0 38 36" fill="none" xmlns="http://www.w3.org/2000/svg">
<path d="M15.5002 9.85456C15.8542 9.4139 16.045 8.87188 16.0307 8.34775C16.0165 7.82361 15.7982 7.36028 15.4241 7.0597C15.0499 6.75911 14.5505 6.64589 14.0356 6.74493C13.5208 6.84397 13.0327 7.14717 12.6787 7.58783L7.4809 14.0588C6.82174 14.8787 6.34452 15.824 6.09156 16.8111C5.83859 17.7981 5.81769 18.7962 6.03072 19.7171L6.67075 22.4437C6.74212 22.7507 6.73546 23.0835 6.65135 23.4127C6.56725 23.7419 6.4083 24.0573 6.18861 24.3308L4.22941 26.7699" stroke="currentColor" stroke-linecap="round" stroke-linejoin="round"/>
<path d="M17.036 13.6338L24.0276 5.59263C24.3985 5.1661 24.898 4.88215 25.4163 4.80325C25.9347 4.72434 26.4293 4.85694 26.7915 5.17188C27.1536 5.48681 27.3536 5.95829 27.3475 6.48259C27.3413 7.00688 27.1295 7.54105 26.7587 7.96758" stroke="currentColor" stroke-linecap="round" stroke-linejoin="round"/>
<path d="M19.1341 11.2217C19.505 10.7952 19.7168 10.2611 19.7229 9.73676C19.7291 9.21246 19.5291 8.74098 19.1669 8.42604C18.8048 8.11111 18.3101 7.97851 17.7918 8.05741C17.2735 8.13632 16.774 8.42027 16.4031 8.8468L10.9571 15.1103C10.2665 15.9039 9.7528 16.8299 9.46157 17.8063C9.17034 18.7827 9.11057 19.7793 9.28756 20.7078L9.82087 23.4573C9.88023 23.7668 9.86061 24.0991 9.76374 24.4248C9.66687 24.7505 9.49575 25.0594 9.26557 25.3242L7.21283 27.685" stroke="currentColor" stroke-linecap="round" stroke-linejoin="round"/>
<path d="M23.265 11.9873L28.1592 6.35849C28.53 5.93196 29.0295 5.64801 29.5479 5.56911C30.0662 5.4902 30.5608 5.6228 30.923 5.93774C31.2851 6.25268 31.4851 6.72415 31.479 7.24845C31.4728 7.77275 31.261 8.30691 30.8902 8.73344L25.996 14.3623" stroke="currentColor" stroke-linecap="round" stroke-linejoin="round"/>
<path d="M30.19 9.53785C30.5609 9.11132 31.0604 8.82737 31.5787 8.74846C32.0971 8.66955 32.5917 8.80215 32.9539 9.11709C33.316 9.43203 33.516 9.90351 33.5099 10.4278C33.5037 10.9521 33.2919 11.4863 32.921 11.9128L30.8236 14.3251" stroke="currentColor" stroke-linecap="round" stroke-linejoin="round"/>
<path d="M28.0276 17.5427L30.8242 14.3262C31.1951 13.8997 31.6946 13.6157 32.2129 13.5368C32.7312 13.4579 33.2259 13.5905 33.588 13.9055C33.9502 14.2204 34.1502 14.6919 34.1441 15.2162C34.1379 15.7405 33.9261 16.2746 33.5552 16.7012L22.6595 29.2325C22.0096 29.9817 21.2207 30.5926 20.3551 31.0168L17.9503 32.1885C17.6613 32.3295 17.3979 32.533 17.181 32.7828L15.4135 34.8156" stroke="currentColor" stroke-linecap="round" stroke-linejoin="round"/>
</svg>
