<svg width="40" height="32" viewBox="0 0 40 32" fill="none" xmlns="http://www.w3.org/2000/svg">
<path d="M33.9991 22.8125C33.3961 24.2595 32.2431 25.4078 30.7935 26.0047C29.344 26.6015 27.7167 26.5981 26.2697 25.9952" stroke="currentColor" stroke-linecap="round" stroke-linejoin="round"/>
<path d="M21.8549 12.4995C23.6677 10.99 25.999 10.082 28.5424 10.082C34.3179 10.082 38.9998 14.764 38.9998 20.5395C38.9998 26.3149 34.3179 30.9969 28.5424 30.9969C22.7669 30.9969 18.085 26.3149 18.085 20.5395C18.085 20.2452 18.0971 19.9538 18.1209 19.6658" stroke="currentColor" stroke-linecap="round" stroke-linejoin="round"/>
<path fill-rule="evenodd" clip-rule="evenodd" d="M24.9262 16.4677C25.1137 16.2802 25.3681 16.1748 25.6333 16.1748C25.8311 16.1748 26.0244 16.2335 26.1889 16.3433C26.3533 16.4532 26.4815 16.6094 26.5572 16.7921C26.6329 16.9748 26.6527 17.1759 26.6141 17.3699C26.5755 17.5639 26.4803 17.7421 26.3404 17.8819C26.2006 18.0218 26.0224 18.117 25.8284 18.1556C25.6344 18.1942 25.4333 18.1744 25.2506 18.0987C25.0679 18.023 24.9117 17.8948 24.8018 17.7304C24.6919 17.5659 24.6333 17.3726 24.6333 17.1748C24.6333 16.9096 24.7387 16.6552 24.9262 16.4677Z" fill="currentColor"/>
<path fill-rule="evenodd" clip-rule="evenodd" d="M31.4425 16.3433C31.6069 16.2335 31.8003 16.1748 31.998 16.1748C32.2633 16.1748 32.5176 16.2802 32.7052 16.4677C32.8927 16.6552 32.998 16.9096 32.998 17.1748C32.998 17.3726 32.9394 17.5659 32.8295 17.7304C32.7196 17.8948 32.5635 18.023 32.3807 18.0987C32.198 18.1744 31.9969 18.1942 31.803 18.1556C31.609 18.117 31.4308 18.0218 31.2909 17.8819C31.1511 17.7421 31.0558 17.5639 31.0173 17.3699C30.9787 17.1759 30.9985 16.9748 31.0742 16.7921C31.1499 16.6094 31.278 16.4532 31.4425 16.3433Z" fill="currentColor"/>
<path d="M11.4574 21.9148C5.6819 21.9148 0.99995 17.2329 0.99995 11.4574C0.99995 5.68195 5.6819 1 11.4574 1C17.2328 1 21.9148 5.68195 21.9148 11.4574C21.9148 17.2329 17.2328 21.9148 11.4574 21.9148Z" stroke="currentColor" stroke-linecap="round" stroke-linejoin="round"/>
<path fill-rule="evenodd" clip-rule="evenodd" d="M15.0748 7.38469C14.8872 7.19715 14.6329 7.0918 14.3677 7.0918C14.1699 7.0918 13.9766 7.15045 13.8121 7.26033C13.6477 7.37021 13.5195 7.52639 13.4438 7.70911C13.3681 7.89184 13.3483 8.0929 13.3869 8.28689C13.4255 8.48087 13.5207 8.65905 13.6606 8.7989C13.8004 8.93876 13.9786 9.034 14.1726 9.07258C14.3666 9.11117 14.5676 9.09136 14.7504 9.01568C14.9331 8.93999 15.0893 8.81182 15.1991 8.64737C15.309 8.48292 15.3677 8.28958 15.3677 8.0918C15.3677 7.82658 15.2623 7.57223 15.0748 7.38469Z" fill="currentColor"/>
<path fill-rule="evenodd" clip-rule="evenodd" d="M8.5585 7.26033C8.39405 7.15045 8.20071 7.0918 8.00293 7.0918C7.73771 7.0918 7.48336 7.19715 7.29582 7.38469C7.10828 7.57223 7.00293 7.82658 7.00293 8.0918C7.00293 8.28958 7.06158 8.48292 7.17146 8.64737C7.28134 8.81182 7.43752 8.93999 7.62025 9.01568C7.80297 9.09136 8.00404 9.11117 8.19802 9.07258C8.392 9.034 8.57018 8.93876 8.71004 8.79891C8.84989 8.65905 8.94513 8.48087 8.98371 8.28689C9.0223 8.0929 9.00249 7.89184 8.92681 7.70911C8.85112 7.52639 8.72295 7.37021 8.5585 7.26033Z" fill="currentColor"/>
<path d="M6.00144 13.7305C6.60437 15.1775 7.75744 16.3258 9.20698 16.9226C10.6565 17.5195 12.2838 17.5161 13.7308 16.9132" stroke="currentColor" stroke-linecap="round" stroke-linejoin="round"/>
</svg>
