<svg width="32" height="32" viewBox="0 0 32 32" fill="none" stroke="#000000" 
    xmlns="http://www.w3.org/2000/svg">
    <path d="M19.2607 1H6.21735C4.83362 1 3.50657 1.54968 2.52813 2.52813C1.54968 3.50657 1 4.83362 1 6.21735V12.739C1 14.1228 1.54968 15.4498 2.52813 16.4283C3.50657 17.4067 4.83362 17.9564 6.21735 17.9564H7.52168V23.1737L13.3912 17.9564H19.2607C20.6444 17.9564 21.9715 17.4067 22.9499 16.4283C23.9284 15.4498 24.4781 14.1228 24.4781 12.739V6.21735C24.4781 4.83362 23.9284 3.50657 22.9499 2.52813C21.9715 1.54968 20.6444 1 19.2607 1V1Z" stroke="currentColor" stroke-linecap="round" stroke-linejoin="round"/>
    <path d="M15.3976 21.8692V23.8257C15.3976 24.2539 15.4819 24.678 15.6458 25.0736C15.8097 25.4692 16.0499 25.8287 16.3527 26.1315C16.6555 26.4343 17.0149 26.6745 17.4106 26.8383C17.8062 27.0022 18.2302 27.0866 18.6584 27.0866H21.9193L25.8323 30.9996V27.0866H27.7888C28.217 27.0866 28.641 27.0022 29.0367 26.8383C29.4323 26.6745 29.7918 26.4343 30.0946 26.1315C30.3973 25.8287 30.6375 25.4692 30.8014 25.0736C30.9653 24.678 31.0496 24.2539 31.0496 23.8257V19.9127C31.0496 19.0479 30.7061 18.2185 30.0946 17.6069C29.483 16.9954 28.6536 16.6519 27.7888 16.6519H27.1366" stroke="currentColor" stroke-linecap="round" stroke-linejoin="round"/>
    <path d="M12.4377 4.56152V14.7956" stroke="currentColor" stroke-linecap="round" stroke-linejoin="round"/>
    <path d="M9.42773 7.57178H15.4478" stroke="currentColor" stroke-linecap="round" stroke-linejoin="round"/>
</svg>
