<svg width="32" height="32" viewBox="0 0 32 32" fill="none" xmlns="http://www.w3.org/2000/svg">
<g filter="url(#filter0_d)">
<circle cx="16" cy="14" r="12" fill="#FF5532"/>
<path d="M16 20C19.3137 20 22 17.3137 22 14C22 10.6863 19.3137 8 16 8C12.6863 8 10 10.6863 10 14C10 17.3137 12.6863 20 16 20Z" fill="white" stroke="white" stroke-width="0.75" stroke-miterlimit="10"/>
<path d="M16.0008 16.4001C15.9612 16.4001 15.9226 16.4119 15.8897 16.4339C15.8568 16.4558 15.8311 16.4871 15.816 16.5236C15.8009 16.5602 15.7969 16.6004 15.8046 16.6392C15.8123 16.678 15.8314 16.7136 15.8594 16.7416C15.8873 16.7695 15.923 16.7886 15.9618 16.7963C16.0006 16.804 16.0408 16.8001 16.0773 16.7849C16.1139 16.7698 16.1451 16.7442 16.1671 16.7113C16.1891 16.6784 16.2008 16.6397 16.2008 16.6001C16.2008 16.5471 16.1797 16.4962 16.1422 16.4587C16.1047 16.4212 16.0538 16.4001 16.0008 16.4001Z" stroke="#FF5532" stroke-width="0.75" stroke-linecap="round" stroke-linejoin="round"/>
<path d="M16 14.8001V10.4001" stroke="#FF5532" stroke-width="0.75" stroke-miterlimit="10" stroke-linecap="round"/>
</g>
<defs>
<filter id="filter0_d" x="0" y="0" width="32" height="32" filterUnits="userSpaceOnUse" color-interpolation-filters="sRGB">
<feFlood flood-opacity="0" result="BackgroundImageFix"/>
<feColorMatrix in="SourceAlpha" type="matrix" values="0 0 0 0 0 0 0 0 0 0 0 0 0 0 0 0 0 0 127 0"/>
<feOffset dy="2"/>
<feGaussianBlur stdDeviation="2"/>
<feColorMatrix type="matrix" values="0 0 0 0 0 0 0 0 0 0 0 0 0 0 0 0 0 0 0.2 0"/>
<feBlend mode="normal" in2="BackgroundImageFix" result="effect1_dropShadow"/>
<feBlend mode="normal" in="SourceGraphic" in2="effect1_dropShadow" result="shape"/>
</filter>
</defs>
</svg>
