<svg width="20" height="20" viewBox="0 0 20 20" fill="none" xmlns="http://www.w3.org/2000/svg">
<path id="uncontactedIcon" fill-rule="evenodd" clip-rule="evenodd" d="M19.9896 8.65207C19.93 7.58095 19.6614 6.65924 19.1842 5.88694C18.9621 5.5299 18.5618 5.04458 17.9822 4.42993C17.3685 3.77356 16.9162 3.30884 16.627 3.03475C16.1064 2.53654 15.6124 2.12953 15.1433 1.81422C14.1971 1.15784 13.1186 0.676124 11.908 0.36906C10.7656 0.0867257 9.57665 -0.0333179 8.34057 0.00789881C7.0617 0.0496307 5.97891 0.277868 5.09221 0.693126C4.0013 1.19133 3.06368 2.00485 2.27934 3.1347C1.60606 4.09762 1.06872 5.24757 0.667893 6.58453C-0.115896 9.09257 -0.210146 11.3219 0.386769 13.273C0.847184 14.7846 1.72522 16.1169 3.02088 17.2715C4.2743 18.3756 5.71892 19.1438 7.35637 19.5755C8.3617 19.8414 9.45748 19.9825 10.6421 19.999C11.9638 20.0155 13.0379 19.8249 13.8645 19.4261C14.3162 19.2102 14.9088 18.8032 15.6422 18.2056C16.7245 17.3421 17.5007 16.6069 17.9697 16.001C18.7622 14.9629 19.3461 13.4971 19.7209 11.6042C19.943 10.4914 20.0324 9.50731 19.9896 8.65207ZM18.2893 11.0313C18.1436 11.8201 17.9865 12.4842 17.8159 13.0241C17.5857 13.73 17.2959 14.34 16.9465 14.8547C16.6909 15.2205 16.3583 15.5981 15.9488 15.9881C15.7013 16.221 15.3178 16.5533 14.7978 16.9845C14.0053 17.6492 13.3401 18.0768 12.8033 18.2679C12.2406 18.4585 11.5331 18.5379 10.6806 18.5044C8.94994 18.4632 7.49232 18.1932 6.30716 17.695C4.89233 17.0886 3.73696 16.121 2.84159 14.7923C1.94676 13.4641 1.49501 12.0483 1.48635 10.5455C1.47822 9.5238 1.6911 8.33264 2.12605 6.97043C2.50955 5.7499 2.9613 4.75761 3.4813 3.99407C4.18871 2.98065 5.02396 2.28306 5.98758 1.90129C6.53358 1.68542 7.23233 1.54837 8.08491 1.49015C9.86644 1.38247 11.4947 1.64781 12.9696 2.28718C13.7453 2.62773 14.444 3.0636 15.0664 3.59529C15.7143 4.15172 16.2348 4.77821 16.627 5.47581C16.8566 5.87458 16.972 6.07808 16.972 6.08633C17.1166 6.31044 17.2705 6.47686 17.4324 6.58453C17.4747 6.60978 17.5684 6.66336 17.7135 6.74631C17.8327 6.81277 17.9226 6.87511 17.9822 6.93333C18.1436 7.08274 18.2677 7.33983 18.3532 7.70563C18.532 8.52739 18.5109 9.63611 18.2893 11.0313ZM10.6286 14.8815C10.7044 14.7156 10.7456 14.511 10.7521 14.2689C10.7569 14.1499 10.745 14.0504 10.7158 13.9721C10.6865 13.8969 10.6215 13.8036 10.5202 13.6929C10.4541 13.6197 10.4038 13.5661 10.368 13.5316C10.3084 13.4744 10.251 13.4275 10.1952 13.392C10.1167 13.343 10.0235 13.3023 9.91573 13.2704C9.8334 13.2462 9.73211 13.224 9.61186 13.2039C9.39898 13.173 9.22999 13.1699 9.10486 13.1952C9.04907 13.207 9.00953 13.224 8.98678 13.2467C8.97811 13.2555 8.96836 13.2678 8.95861 13.2843C8.94561 13.3049 8.93749 13.3178 8.93369 13.324C8.91745 13.3466 8.89199 13.3683 8.85786 13.3884C8.85624 13.3884 8.82536 13.4043 8.7647 13.4368C8.65853 13.4914 8.56265 13.5646 8.47761 13.6553C8.39691 13.7423 8.33028 13.8402 8.27828 13.9484C8.18078 14.155 8.14016 14.3827 8.15695 14.6326C8.16562 14.7516 8.18674 14.8495 8.21924 14.9258C8.27774 15.0607 8.38391 15.1777 8.53882 15.2766C8.65528 15.3498 8.8064 15.4126 8.99274 15.4667C9.20019 15.5275 9.38219 15.5574 9.53765 15.5559C9.76732 15.5548 9.9829 15.4915 10.1855 15.3663C10.3886 15.2411 10.5359 15.0793 10.6286 14.8815ZM10.2732 8.96943C10.2906 7.96581 10.2694 7.16672 10.2099 6.57217C10.1936 6.32642 10.1768 6.14146 10.16 6.01574C10.1427 5.7973 10.1346 5.61182 10.1346 5.45932C10.1346 5.20841 10.0966 5.03633 10.0203 4.9436C9.91086 4.8184 9.73427 4.74163 9.48944 4.71484C9.24461 4.68754 9.04257 4.72566 8.88224 4.82922C8.69645 4.94926 8.61249 5.19193 8.62928 5.55721C8.78961 7.37383 8.81074 9.25331 8.69211 11.1951C8.67586 11.4022 8.68399 11.5578 8.71811 11.6614C8.79395 11.8525 8.92015 11.9834 9.09728 12.054C9.29119 12.1359 9.50623 12.1472 9.7424 12.087C9.97857 12.0323 10.1346 11.9345 10.2099 11.7928C10.2694 11.6995 10.2906 11.5553 10.2732 11.359C10.2564 10.9386 10.2564 10.142 10.2732 8.96943Z" fill="white"/>
</svg>
