<svg width="24" height="24" viewBox="0 0 24 24" fill="none" xmlns="http://www.w3.org/2000/svg">
<path d="M17.5 23.5C20.8137 23.5 23.5 20.8137 23.5 17.5C23.5 14.1863 20.8137 11.5 17.5 11.5C14.1863 11.5 11.5 14.1863 11.5 17.5C11.5 20.8137 14.1863 23.5 17.5 23.5Z" stroke="white" stroke-linecap="round" stroke-linejoin="round"/>
<path d="M17.5 14.5V20.5" stroke="white" stroke-linecap="round" stroke-linejoin="round"/>
<path d="M20.5 17.5H14.5" stroke="white" stroke-linecap="round" stroke-linejoin="round"/>
<path d="M0.5 17.5C0.499951 16.2431 0.838318 15.0094 1.47957 13.9284C2.12082 12.8474 3.04131 11.959 4.14436 11.3565C5.24742 10.754 6.49236 10.4596 7.74846 10.5042C9.00455 10.5488 10.2255 10.9308 11.283 11.61" stroke="white" stroke-linecap="round" stroke-linejoin="round"/>
<path d="M3.83789 2.59204C4.49581 3.27486 5.28473 3.81792 6.15744 4.18872C7.03014 4.55952 7.96868 4.75043 8.91689 4.75004C9.87768 4.75085 10.8285 4.55517 11.7109 4.17504" stroke="white" stroke-linecap="round" stroke-linejoin="round"/>
<path d="M7.5 9C9.84721 9 11.75 7.09721 11.75 4.75C11.75 2.40279 9.84721 0.5 7.5 0.5C5.15279 0.5 3.25 2.40279 3.25 4.75C3.25 7.09721 5.15279 9 7.5 9Z" stroke="white" stroke-linecap="round" stroke-linejoin="round"/>
</svg>
