<svg width="24" height="24" viewBox="0 0 24 24" fill="none" xmlns="http://www.w3.org/2000/svg">
<path d="M6.86667 15.734H4.66667C3.69421 15.734 2.76158 15.3477 2.07394 14.66C1.38631 13.9724 1 13.0398 1 12.0673C1 11.0948 1.38631 10.1622 2.07394 9.47458C2.76158 8.78694 3.69421 8.40063 4.66667 8.40063H6.86667V15.734Z" stroke="currentColor" stroke-linecap="round" stroke-linejoin="round"/>
<path d="M6.86768 15.7333C11.171 15.7337 15.378 17.0074 18.9589 19.3941L20.0677 20.1333V4L18.9589 4.7392C15.378 7.12589 11.171 8.39963 6.86768 8.4V15.7333Z" stroke="currentColor" stroke-linecap="round" stroke-linejoin="round"/>
<path d="M23 10.5994V13.5327" stroke="currentColor" stroke-linecap="round" stroke-linejoin="round"/>
<path d="M6.86768 15.7324C6.86705 16.6925 7.06177 17.6428 7.43998 18.5252C7.81819 19.4077 8.37199 20.2041 9.06768 20.8658" stroke="currentColor" stroke-linecap="round" stroke-linejoin="round"/>
</svg>
