<svg width="18" height="18" viewBox="0 0 18 18" fill="none" xmlns="http://www.w3.org/2000/svg">
<path fill-rule="evenodd" clip-rule="evenodd" d="M10.2062 15.7284C10.1334 15.8772 9.9892 16.006 10.0969 16.1984C10.1717 16.3311 10.2476 16.4423 10.4065 16.5094C10.5548 16.5718 10.7085 16.6378 10.8303 16.7312C11.0048 16.8656 11.2017 16.9309 11.4232 16.96C11.504 16.9705 11.5837 16.9962 11.6641 16.9969C11.8235 16.9986 11.9889 17.0095 12.1414 16.9769C12.3614 16.9305 12.5659 16.8424 12.7055 16.6701C12.7492 16.6164 12.8182 16.5781 12.8702 16.529C12.9354 16.4665 13.0014 16.4034 13.0557 16.3339C13.0963 16.2833 13.1168 16.2205 13.1513 16.1657C13.2856 15.9538 13.3983 15.7368 13.3421 15.4848C13.3311 15.434 13.3038 15.3852 13.292 15.3336C13.2454 15.1342 13.1376 14.9661 12.9643 14.831C12.8789 14.765 12.5868 14.8233 12.5671 14.9092C12.542 15.0184 12.5284 15.1304 12.5139 15.2413C12.5003 15.3511 12.5162 15.4694 12.4771 15.5712C12.3705 15.8481 12.2169 16.0977 11.858 16.1858C11.693 16.2258 11.526 16.2352 11.3644 16.1872C11.2552 16.1552 11.1558 16.1001 11.0526 16.0538C11.0283 16.0429 11.0033 16.031 10.9839 16.0145C10.8511 15.9018 10.7191 15.7877 10.5867 15.6744C10.5769 15.6656 10.5541 15.6512 10.5518 15.6526C10.4714 15.7225 10.3966 15.6565 10.3193 15.6491C10.3003 15.6473 10.2783 15.6695 10.2582 15.6919C10.24 15.7116 10.2115 15.7154 10.2062 15.7284ZM16.9483 10.8513C16.9123 10.8004 16.8792 10.7478 16.8428 10.6969C16.6831 10.4723 16.4392 10.3385 16.1649 10.254C15.9213 10.1785 15.6656 10.1325 15.4137 10.0788C15.1375 10.0195 14.8617 9.95458 14.581 9.91527C14.411 9.8914 14.2331 9.91597 14.059 9.90965C13.7873 9.90017 13.7229 9.76645 13.7684 9.57306C13.7836 9.50743 13.8048 9.44004 13.8014 9.37441C13.7968 9.27789 13.7623 9.18207 13.7608 9.08591C13.7581 8.96482 13.7843 8.84303 13.7805 8.72229C13.7779 8.62226 13.7498 8.52329 13.7316 8.42396C13.7005 8.25409 13.6743 8.08386 13.6352 7.91574C13.5965 7.75324 13.5582 7.58969 13.4956 7.43455C13.3947 7.18817 13.2786 6.94705 13.1595 6.70733C13.0916 6.56939 13.0077 6.43778 12.9273 6.30476C12.8708 6.2114 12.8146 6.11698 12.746 6.03099C12.6075 5.85726 12.4531 5.693 12.3195 5.51681C12.2103 5.37361 12.101 5.23743 11.9485 5.12056C11.7338 4.95735 11.538 4.77204 11.354 4.5811C11.2342 4.45686 11.1078 4.34279 10.9553 4.25434C10.7372 4.12694 10.5107 4.00971 10.2857 3.89073C10.1518 3.82019 10.0183 3.74929 9.87827 3.68822C9.77508 3.64399 9.66354 3.61241 9.55315 3.58222C9.44123 3.55169 9.3278 3.51624 9.21323 3.50852C8.96132 3.49132 8.7079 3.49307 8.45524 3.48114C8.39264 3.47798 8.32777 3.43341 8.26972 3.44113C8.05689 3.46991 7.84596 3.50887 7.63617 3.55274C7.52425 3.57555 7.41309 3.6096 7.30725 3.64996C7.03334 3.75525 6.76133 3.86651 6.49008 3.97742C6.40282 4.01287 6.32315 4.06376 6.234 4.09184C6.03179 4.15572 5.87245 4.26487 5.74688 4.41299C5.5792 4.61199 5.41834 4.81521 5.24914 5.01351C5.10043 5.18724 4.93388 5.3501 4.79579 5.5298C4.71271 5.6379 4.66263 5.76741 4.60989 5.89131C4.52529 6.09101 4.43311 6.29037 4.37658 6.49639C4.30602 6.75576 4.26618 7.0211 4.21724 7.28469C4.18575 7.45526 4.15996 7.62654 4.13606 7.79817C4.12885 7.85222 4.14402 7.90767 4.13757 7.96172C4.11481 8.16038 4.07194 8.35763 4.06511 8.55593C4.05677 8.78652 4.07839 9.01746 4.08712 9.24806C4.08939 9.3165 4.08294 9.38634 4.09622 9.45303C4.12164 9.58149 4.18196 9.70819 4.18575 9.83665C4.19145 10.0581 4.19865 10.2761 4.26656 10.4919C4.31095 10.6316 4.3375 10.7762 4.37241 10.9292C4.3982 11.0552 4.42021 11.1711 4.45132 11.2851C4.48053 11.3922 4.52719 11.4954 4.55147 11.6031C4.57613 11.7105 4.59662 11.8137 4.65125 11.9183C4.77796 12.1622 4.88077 12.4167 4.97637 12.6715C5.02683 12.8059 5.08222 12.9544 5.06325 13.0885C5.031 13.3208 4.81665 13.4872 4.69563 13.689C4.63152 13.795 4.54161 13.889 4.47825 13.9954C4.40769 14.1123 4.3762 14.2512 4.28932 14.3555C4.13833 14.5359 3.95434 14.6942 3.7912 14.8672C3.61973 15.0487 3.4418 15.2322 3.56889 15.4955C3.61631 15.593 3.62769 15.7215 3.81017 15.7064C3.86101 15.7022 3.91564 15.718 3.96723 15.7282C4.18993 15.7692 4.41072 15.7762 4.6319 15.7169C4.75178 15.685 4.87318 15.6562 4.99648 15.6383C5.2408 15.6032 5.48853 15.5871 5.73057 15.5439C6.10273 15.4776 6.47149 15.3961 6.84176 15.3196C7.05421 15.2761 7.26628 15.2308 7.47721 15.1834C7.65286 15.1445 7.82737 15.102 8.00188 15.0595C8.261 14.9964 8.51973 14.9311 8.77922 14.8676C8.87976 14.8426 8.98408 14.8265 9.0812 14.7946C9.26027 14.7356 9.43326 14.6612 9.61423 14.6061C9.75839 14.5626 9.92607 14.5629 10.0547 14.499C10.2345 14.4109 10.4341 14.4043 10.6181 14.3464C10.8362 14.2772 11.0543 14.2081 11.2679 14.1302C11.4185 14.0747 11.5585 13.9964 11.7091 13.941C11.9557 13.8497 12.2069 13.769 12.4561 13.6841C12.623 13.6262 12.7903 13.5693 12.9561 13.5089C13.2915 13.3871 13.6314 13.2731 13.9588 13.1369C14.2813 13.0035 14.5897 12.8456 14.9054 12.7003C15.0609 12.6287 15.2252 12.5687 15.3758 12.4904C15.6603 12.3409 15.9373 12.1805 16.2199 12.0289C16.4373 11.9116 16.6296 11.7783 16.7298 11.5621C16.7825 11.449 16.8576 11.3444 16.9206 11.2346C16.9915 11.1107 17.0431 10.985 16.9483 10.8513ZM15.7898 11.2921C15.7279 11.3409 15.665 11.3886 15.6005 11.4342C15.4267 11.5571 15.2575 11.6841 15.0762 11.7979C14.9768 11.86 14.8542 11.894 14.7469 11.9484C14.5523 12.0474 14.3614 12.1527 14.1683 12.2545C14.1585 12.2594 14.1456 12.2643 14.1346 12.2643C13.9775 12.2608 13.9399 12.4468 13.7635 12.4349C13.7055 12.431 13.6463 12.5377 13.5735 12.5661C13.3614 12.6504 13.1588 12.7578 12.913 12.7669C12.8492 12.7694 12.792 12.8329 12.7256 12.856C12.4429 12.9557 12.158 13.0487 11.875 13.1481C11.7601 13.1881 11.6512 13.2414 11.5366 13.2821C11.3579 13.3457 11.1781 13.4085 10.9956 13.4625C10.8241 13.5145 10.6439 13.5461 10.4747 13.6047C10.3006 13.6644 10.1405 13.756 9.96561 13.8153C9.7801 13.8774 9.58282 13.9135 9.39352 13.9686C9.18031 14.0315 8.97165 14.1069 8.75806 14.1698C8.65601 14.1992 8.54713 14.2098 8.4428 14.2347C8.36579 14.2526 8.29219 14.2814 8.21556 14.301C8.05964 14.3403 7.90257 14.3779 7.74627 14.4144C7.42229 14.4906 7.09564 14.5611 6.77393 14.6425C6.57059 14.6941 6.37559 14.7994 6.17111 14.8113C5.95449 14.8243 5.75835 14.918 5.53376 14.8966C5.41046 14.8851 5.27996 14.944 5.15135 14.9651C5.01705 14.9868 4.8782 14.9651 4.8395 14.8728C4.81295 14.8099 4.82774 14.7145 4.86682 14.6548C5.05613 14.3635 5.25264 14.0757 5.46016 13.7939C5.64833 13.5401 5.84826 13.2923 6.0554 13.0501C6.13772 12.954 6.11344 12.8589 6.09485 12.7662C6.05009 12.5416 5.85471 12.3998 5.67147 12.2664C5.53831 12.1699 5.48596 12.0432 5.43892 11.9196C5.33648 11.6539 5.26554 11.3784 5.18284 11.1068C5.12669 10.9218 5.03412 10.7375 5.02767 10.5512C5.01933 10.3104 4.90741 10.0917 4.89338 9.85835C4.87744 9.59511 4.79891 9.3396 4.78639 9.07742C4.77843 8.91562 4.78677 8.75277 4.78336 8.59062C4.78298 8.54464 4.75642 8.49796 4.76097 8.45303C4.78032 8.25754 4.83609 8.06099 4.82167 7.8683C4.80953 7.70475 4.86037 7.55909 4.88237 7.40501C4.92335 7.11967 4.97418 6.83678 5.08117 6.56618C5.16994 6.3426 5.2921 6.12921 5.38808 5.90774C5.46282 5.73506 5.59977 5.59783 5.7022 5.4427C5.86609 5.19561 6.09523 5.00081 6.31072 4.79725C6.51444 4.60386 6.76217 4.44943 7.05885 4.35923C7.15824 4.32939 7.25916 4.30728 7.35665 4.2778C7.48944 4.23814 7.61235 4.17321 7.74362 4.12793C7.80811 4.10582 7.88247 4.09845 7.95227 4.09494C8.1761 4.08441 8.40069 4.0802 8.6249 4.07037C8.68636 4.06792 8.75237 4.03914 8.80738 4.05177C8.97355 4.09073 9.14313 4.10336 9.31119 4.12688C9.45991 4.14794 9.59534 4.23393 9.73875 4.28693C9.82107 4.31746 9.91554 4.32729 9.98951 4.368C10.2175 4.4912 10.4512 4.61193 10.658 4.75864C10.8192 4.87376 10.9448 5.02679 11.0851 5.16402C11.238 5.31319 11.3989 5.45849 11.5415 5.61608C11.7506 5.84667 11.9391 6.092 12.1501 6.32225C12.4088 6.60443 12.5662 6.93189 12.7153 7.26111C12.8348 7.5275 12.9357 7.80127 13.0249 8.07678C13.0681 8.2077 13.0609 8.3502 13.0822 8.48708C13.1042 8.62501 13.1338 8.76224 13.1592 8.90018C13.177 8.99915 13.1941 9.09848 13.2112 9.19781C13.2199 9.3733 13.2316 9.52632 13.2354 9.67865C13.2366 9.74323 13.2335 9.81272 13.2085 9.87204C13.1417 10.0282 13.2282 10.1693 13.2483 10.3164C13.251 10.3374 13.2609 10.3574 13.2624 10.3788C13.273 10.5638 13.41 10.7298 13.611 10.7639C13.7055 10.7804 13.811 10.7625 13.9085 10.7463C14.2787 10.6863 14.6433 10.6793 15.0064 10.7842C15.0739 10.8042 15.1543 10.7972 15.2272 10.7923C15.4798 10.7747 15.6832 10.8586 15.8436 11.0225C15.9153 11.0959 15.8873 11.2152 15.7898 11.2921ZM13.9792 4.37949C14.0268 4.46872 14.0842 4.52514 14.1929 4.54845C14.3447 4.58138 14.4355 4.45775 14.5617 4.4287C14.6171 4.41627 14.6866 4.39316 14.7173 4.35207C14.776 4.27428 14.7338 4.09443 14.6718 4.01179C14.5673 3.87356 14.4741 3.72758 14.371 3.58894C14.2371 3.40997 14.1178 3.21572 13.9572 3.06282C13.718 2.8352 13.448 2.63845 13.1787 2.42553C13.098 2.37318 13.0291 2.32373 12.9594 2.27445C12.7426 2.12145 12.5329 1.95604 12.3054 1.81854C12.1417 1.71942 12.0128 1.5533 11.7911 1.54996C11.729 1.54908 11.6636 1.5347 11.6067 1.51039C11.4426 1.43989 11.305 1.32541 11.1083 1.31045C10.8468 1.29141 10.589 1.23836 10.3301 1.19671C10.1074 1.16073 9.88539 1.12058 9.66349 1.08155C9.53027 1.0576 9.39881 1.01809 9.26464 1.01099C9.02058 0.99699 8.77583 1.00027 8.5304 1.00048C8.41183 1.00052 8.2564 1.11974 8.23775 1.21944C8.22508 1.28355 8.20085 1.35097 8.21068 1.41193C8.22078 1.47333 8.25046 1.55521 8.29874 1.581C8.3772 1.6219 8.47695 1.62992 8.56966 1.64055C8.61106 1.64537 8.65869 1.61101 8.70065 1.61524C8.84923 1.62955 8.99728 1.647 9.14332 1.67413C9.48837 1.73935 9.83251 1.80906 10.1759 1.88004C10.3051 1.907 10.4303 1.96421 10.5605 1.96997C10.8052 1.98049 11.0251 2.07102 11.2563 2.12545C11.3613 2.15041 11.462 2.19864 11.5574 2.24883C11.7144 2.3303 11.8656 2.42233 12.0184 2.51038C12.063 2.53636 12.1032 2.5794 12.1515 2.59028C12.3181 2.62761 12.4457 2.70215 12.4993 2.86958C12.5052 2.88738 12.5285 2.90154 12.5473 2.91129C12.6315 2.95688 12.7295 2.98701 12.7991 3.04788C12.9248 3.15723 13.0236 3.29478 13.1945 3.35278C13.2257 3.36272 13.2393 3.42025 13.2598 3.45659C13.266 3.46759 13.2668 3.48924 13.2749 3.49124C13.4909 3.55062 13.4971 3.81935 13.6992 3.89164C13.7021 3.89236 13.7027 3.89833 13.7049 3.90177C13.7967 4.06051 13.8922 4.21759 13.9792 4.37949ZM3.46837 4.19832C3.54918 4.13269 3.59319 4.06671 3.5894 3.96352C3.58446 3.81927 3.43196 3.77013 3.36898 3.66484C3.34166 3.61851 3.29955 3.56235 3.24872 3.5455C3.15236 3.51321 2.97557 3.59745 2.90538 3.67431C2.78816 3.80347 2.65993 3.92456 2.54194 4.05267C2.38981 4.21868 2.21796 4.37557 2.09997 4.55878C1.92432 4.83149 1.78888 5.12385 1.63638 5.41972C1.60261 5.50536 1.56885 5.57977 1.53546 5.65488C1.43189 5.88828 1.31353 6.11852 1.22893 6.35754C1.16785 6.52952 1.02786 6.68781 1.08173 6.88681C1.0969 6.94262 1.0988 7.00474 1.08818 7.06195C1.05707 7.22691 0.973229 7.37958 1.00851 7.55929C1.05631 7.79795 1.06769 8.04223 1.09121 8.28441C1.11132 8.49289 1.12688 8.70172 1.14357 8.9102C1.15305 9.0355 1.14584 9.16325 1.17316 9.28504C1.22172 9.50686 1.28849 9.72482 1.35222 9.94418C1.38295 10.0502 1.5476 10.1583 1.65648 10.1491C1.72667 10.1439 1.8033 10.1481 1.86438 10.1235C1.92584 10.0986 2.00361 10.0509 2.01803 10.001C2.04041 9.92031 2.02296 9.82906 2.01006 9.74342C2.00437 9.70516 1.95619 9.67147 1.94974 9.63286C1.92622 9.49633 1.90611 9.35945 1.89663 9.22187C1.87538 8.89651 1.85907 8.5708 1.84427 8.24545C1.83896 8.12296 1.86628 7.99625 1.83858 7.87832C1.78623 7.65686 1.82379 7.43679 1.82075 7.21603C1.81961 7.11565 1.84389 7.01316 1.87159 6.91489C1.91597 6.75344 1.97288 6.59445 2.02523 6.4351C2.04079 6.38842 2.07531 6.34139 2.07417 6.29541C2.07 6.13677 2.11477 6.0034 2.27562 5.91215C2.29269 5.90232 2.30142 5.87775 2.30673 5.85845C2.33253 5.7714 2.3386 5.67594 2.38412 5.59802C2.46569 5.45728 2.58367 5.33338 2.59999 5.16562C2.60226 5.13508 2.65879 5.10806 2.69142 5.08033C2.70128 5.07191 2.72366 5.06559 2.72366 5.05787C2.72973 4.84939 3.00857 4.77428 3.03171 4.57492C3.03171 4.57211 3.03779 4.57001 3.04082 4.5672C3.18271 4.44401 3.32194 4.31801 3.46837 4.19832Z" fill="white" stroke="currentColor" stroke-width="0.5"/>
</svg>
