<svg width="24" height="24" viewBox="0 0 24 24" fill="none" xmlns="http://www.w3.org/2000/svg">
<path d="M13.174 14.1579C13.0205 14.3175 12.8375 14.4442 12.6358 14.5307C12.434 14.6171 12.2175 14.6617 11.9988 14.6617C11.7802 14.6617 11.5637 14.6171 11.3619 14.5307C11.1602 14.4442 10.9772 14.3175 10.8237 14.1579L4.96531 8.06874C4.35166 7.46391 3.9445 6.67257 3.80418 5.81199C3.66385 4.95141 3.79783 4.0674 4.18625 3.29098V3.29098C4.49437 2.69992 4.93208 2.19016 5.46498 1.80179C5.99787 1.41341 6.61142 1.15702 7.25737 1.05276C7.90332 0.948498 8.56407 0.999216 9.18766 1.20092C9.81125 1.40263 10.3807 1.74983 10.8512 2.21522L11.9988 3.35864L13.1476 2.21522C13.6181 1.74983 14.1875 1.40263 14.8111 1.20092C15.4347 0.999216 16.0955 0.948498 16.7414 1.05276C17.3874 1.15702 18.0009 1.41341 18.5338 1.80179C19.0667 2.19016 19.5044 2.69992 19.8125 3.29098V3.29098C20.2019 4.06803 20.3363 4.95305 20.1957 5.81459C20.0552 6.67613 19.6472 7.46823 19.0324 8.07325L13.174 14.1579Z" stroke="currentColor" stroke-linecap="round" stroke-linejoin="round"/>
<path d="M3.93333 22.9998L1.96409 20.6866C1.34001 19.9115 1 18.9484 1 17.9557V12.9311C1 12.5446 1.15452 12.174 1.42958 11.9007C1.70463 11.6274 2.07768 11.4739 2.46667 11.4739V11.4739C2.85565 11.4739 3.2287 11.6274 3.50376 11.9007C3.77881 12.174 3.93333 12.5446 3.93333 12.9311V16.5743" stroke="currentColor" stroke-linecap="round" stroke-linejoin="round"/>
<path d="M8.33368 22.9993V20.0848C8.33407 19.2203 8.07649 18.3751 7.59351 17.656L6.47689 15.9948C6.38121 15.8373 6.25438 15.7008 6.10407 15.5934C5.95376 15.486 5.7831 15.4101 5.6024 15.3701C5.4217 15.3302 5.23472 15.327 5.05277 15.3609C4.87082 15.3948 4.69768 15.465 4.54382 15.5673V15.5673C4.26767 15.7513 4.06835 16.0288 3.98306 16.3481C3.89778 16.6674 3.93236 17.0066 4.08035 17.3024L5.40231 19.4883" stroke="currentColor" stroke-linecap="round" stroke-linejoin="round"/>
<path d="M20.0666 22.9998L22.0358 20.6866C22.6599 19.9115 22.9999 18.9484 22.9999 17.9557V12.9311C22.9999 12.5446 22.8454 12.174 22.5703 11.9007C22.2953 11.6274 21.9222 11.4739 21.5333 11.4739C21.1443 11.4739 20.7712 11.6274 20.4962 11.9007C20.2211 12.174 20.0666 12.5446 20.0666 12.9311V16.5743" stroke="currentColor" stroke-linecap="round" stroke-linejoin="round"/>
<path d="M15.6664 23.0001V20.0856C15.6661 19.2211 15.9236 18.3759 16.4066 17.6568L17.5232 15.9936C17.6185 15.8358 17.745 15.6988 17.8952 15.5909C18.0453 15.4831 18.2159 15.4066 18.3966 15.3662C18.5773 15.3258 18.7644 15.3222 18.9466 15.3558C19.1287 15.3893 19.3022 15.4592 19.4563 15.5613V15.5613C19.734 15.7451 19.9345 16.0234 20.0202 16.3438C20.1059 16.6642 20.0709 17.0047 19.9217 17.3012L18.5998 19.4871" stroke="currentColor" stroke-linecap="round" stroke-linejoin="round"/>
</svg>
