<svg width="50" height="42" viewBox="0 0 50 42" fill="none" xmlns="http://www.w3.org/2000/svg">
<path d="M16.36 20.1361C14.5001 19.7564 12.579 19.7952 10.7359 20.2496C8.89278 20.7041 7.17384 21.5627 5.70356 22.7635C4.23327 23.9642 3.04847 25.4769 2.23496 27.192C1.42145 28.9072 0.999613 30.7818 1 32.6801" stroke="currentColor" stroke-linecap="round" stroke-linejoin="round"/>
<path d="M13.8011 16.36C18.0426 16.36 21.4811 12.9215 21.4811 8.68C21.4811 4.43845 18.0426 1 13.8011 1C9.55955 1 6.12109 4.43845 6.12109 8.68C6.12109 12.9215 9.55955 16.36 13.8011 16.36Z" stroke="currentColor" stroke-linecap="round" stroke-linejoin="round"/>
<path d="M7.18459 4.78076C8.98522 6.64599 11.3111 7.91868 13.8529 8.42949C16.3946 8.94031 19.0316 8.66503 21.4131 7.64028" stroke="currentColor" stroke-linecap="round" stroke-linejoin="round"/>
<path d="M45.5221 16.7294C44.4994 15.051 43.9896 13.1103 44.0552 11.146V8.8625C44.0552 6.77879 43.2274 4.78042 41.754 3.30702C40.2806 1.83361 38.2823 1.00586 36.1985 1.00586C34.1148 1.00586 32.1165 1.83361 30.6431 3.30702C29.1697 4.78042 28.3419 6.77879 28.3419 8.8625V11.146C28.4075 13.1103 27.8977 15.051 26.875 16.7294" stroke="currentColor" stroke-linecap="round" stroke-linejoin="round"/>
<path d="M28.3428 10.1595C29.834 10.1571 31.3072 9.83425 32.6627 9.21281C34.0183 8.59136 35.2244 7.68585 36.1994 6.55762C37.1745 7.68585 38.3806 8.59136 39.7361 9.21281C41.0917 9.83425 42.5649 10.1571 44.0561 10.1595" stroke="currentColor" stroke-linecap="round" stroke-linejoin="round"/>
<path d="M29.3037 10.1135C29.4752 11.8239 30.2759 13.4095 31.5505 14.5628C32.8251 15.716 34.4827 16.3546 36.2017 16.3546C37.9206 16.3546 39.5782 15.716 40.8528 14.5628C42.1274 13.4095 42.9282 11.8239 43.0996 10.1135" stroke="currentColor" stroke-linecap="round" stroke-linejoin="round"/>
<path d="M33.6397 20.1361C35.4996 19.7564 37.4207 19.7952 39.2638 20.2496C41.1069 20.7041 42.8258 21.5627 44.2961 22.7635C45.7664 23.9642 46.9512 25.4769 47.7647 27.192C48.5782 28.9072 49.0001 30.7818 48.9997 32.6801" stroke="currentColor" stroke-linecap="round" stroke-linejoin="round"/>
<path d="M25.0032 30.7603C28.1844 30.7603 30.7632 28.1814 30.7632 25.0003C30.7632 21.8191 28.1844 19.2403 25.0032 19.2403C21.822 19.2403 19.2432 21.8191 19.2432 25.0003C19.2432 28.1814 21.822 30.7603 25.0032 30.7603Z" stroke="currentColor" stroke-linecap="round" stroke-linejoin="round"/>
<path d="M32.6784 40.6805C32.3343 38.8909 31.3813 37.2756 29.9813 36.109C28.5814 34.9423 26.8207 34.2963 24.9984 34.2805C23.1715 34.2796 21.4022 34.9196 19.9988 36.0891C18.5954 37.2586 17.6468 38.8835 17.3184 40.6805" stroke="currentColor" stroke-linecap="round" stroke-linejoin="round"/>
</svg>
