<svg width="42" height="42" viewBox="0 0 42 42" fill="none" xmlns="http://www.w3.org/2000/svg">
<path d="M41 17.7442L1 17.7442" stroke="currentColor" stroke-linecap="round" stroke-linejoin="round"/>
<path d="M1 41.0698L41 41.0698" stroke="currentColor" stroke-linecap="round" stroke-linejoin="round"/>
<path d="M6.5814 13.093C3.49888 13.093 1.00001 10.5942 1.00001 7.51163C1.00001 4.42911 3.49888 1.93024 6.5814 1.93024C9.66392 1.93024 12.1628 4.42911 12.1628 7.51163C12.1628 10.5942 9.66392 13.093 6.5814 13.093Z" stroke="currentColor" stroke-linecap="round" stroke-linejoin="round"/>
<path d="M6.58139 17.7442L6.58139 8.44186" stroke="currentColor" stroke-linecap="round" stroke-linejoin="round"/>
<path d="M35.4186 36.4186C38.5011 36.4186 41 33.9197 41 30.8372C41 27.7547 38.5011 25.2558 35.4186 25.2558C32.3361 25.2558 29.8372 27.7547 29.8372 30.8372C29.8372 33.9197 32.3361 36.4186 35.4186 36.4186Z" stroke="currentColor" stroke-linecap="round" stroke-linejoin="round"/>
<path d="M35.4186 41.0698L35.4186 31.7675" stroke="currentColor" stroke-linecap="round" stroke-linejoin="round"/>
<path d="M18.2102 17.2805V8.32703" stroke="currentColor" stroke-linecap="round" stroke-linejoin="round"/>
<path d="M41 10.7679L27.9767 1.00046L14.9535 10.7679" stroke="currentColor" stroke-linecap="round" stroke-linejoin="round"/>
<path d="M25.5343 17.2795V13.2097C25.5343 12.5621 25.7916 11.941 26.2495 11.4831C26.7075 11.0251 27.3286 10.7679 27.9762 10.7679C28.6238 10.7679 29.2449 11.0251 29.7028 11.4831C30.1608 11.941 30.418 12.5621 30.418 13.2097V17.2795" stroke="currentColor" stroke-linecap="round" stroke-linejoin="round"/>
<path d="M32.8622 4.66285V1.00006H37.7459V17.2791" stroke="currentColor" stroke-linecap="round" stroke-linejoin="round"/>
<path d="M23.7898 40.6061V31.6526" stroke="currentColor" stroke-linecap="round" stroke-linejoin="round"/>
<path d="M0.999998 34.0935L14.0233 24.326L27.0465 34.0935" stroke="currentColor" stroke-linecap="round" stroke-linejoin="round"/>
<path d="M16.4657 40.605V36.5353C16.4657 35.8877 16.2084 35.2666 15.7505 34.8086C15.2925 34.3507 14.6714 34.0934 14.0238 34.0934C13.3762 34.0934 12.7551 34.3507 12.2972 34.8086C11.8392 35.2666 11.582 35.8877 11.582 36.5353V40.605" stroke="currentColor" stroke-linecap="round" stroke-linejoin="round"/>
<path d="M9.13782 27.9884V24.3257H4.2541V40.6047" stroke="currentColor" stroke-linecap="round" stroke-linejoin="round"/>
</svg>
