<svg width="49" height="35" viewBox="0 0 49 35" fill="none" xmlns="http://www.w3.org/2000/svg">
<path d="M1 34.4844C1 32.2931 1.52305 30.1557 2.5 28.2392M28.502 34.4844C28.502 30.8374 27.0532 27.3398 24.4744 24.761C21.8956 22.1822 18.398 20.7334 14.751 20.7334C12.5554 20.7334 10.4139 21.2585 8.49447 22.2392" stroke="currentColor" stroke-linecap="round" stroke-linejoin="round"/>
<path d="M34.4839 20.7334C38.1309 20.7334 41.6286 22.1822 44.2074 24.761C46.7862 27.3398 48.2349 30.8374 48.2349 34.4844" stroke="currentColor" stroke-linecap="round" stroke-linejoin="round"/>
<path d="M34.395 20.7334L14.6616 20.7334" stroke="currentColor"/>
<path d="M7.55505 5.10916C9.512 7.13703 12.0401 8.52082 14.803 9.07633C17.5658 9.63185 20.4323 9.33275 23.021 8.21885" stroke="currentColor" stroke-linecap="round" stroke-linejoin="round"/>
<path d="M27.2885 5.10916C29.2455 7.13703 31.7736 8.52082 34.5364 9.07633C37.2993 9.63185 40.1658 9.33275 42.7545 8.21885" stroke="currentColor" stroke-linecap="round" stroke-linejoin="round"/>
<path d="M14.7462 17.6976C19.3571 17.6976 23.095 13.9597 23.095 9.34881C23.095 4.73789 19.3571 1 14.7462 1C10.1352 1 6.39734 4.73789 6.39734 9.34881C6.39734 13.9597 10.1352 17.6976 14.7462 17.6976Z" stroke="currentColor" stroke-linecap="round" stroke-linejoin="round"/>
<path d="M34.4796 17.6976C39.0905 17.6976 42.8284 13.9597 42.8284 9.34881C42.8284 4.73789 39.0905 1 34.4796 1C29.8686 1 26.1307 4.73789 26.1307 9.34881C26.1307 13.9597 29.8686 17.6976 34.4796 17.6976Z" stroke="currentColor" stroke-linecap="round" stroke-linejoin="round"/>
<path d="M5.17438 29.0822C7.47982 29.0822 9.34876 27.2133 9.34876 24.9078C9.34876 22.6024 7.47982 20.7334 5.17438 20.7334C2.86893 20.7334 1 22.6024 1 24.9078C1 27.2133 2.86893 29.0822 5.17438 29.0822Z" stroke="currentColor" stroke-linecap="round" stroke-linejoin="round"/>
</svg>
