<svg width="42" height="42" viewBox="0 0 42 42" fill="none" xmlns="http://www.w3.org/2000/svg">
<path d="M13.1732 40.7096V33.7533" stroke="currentColor" stroke-linecap="round" stroke-linejoin="round"/>
<path d="M23.6098 40.7096V33.7533" stroke="currentColor" stroke-linecap="round" stroke-linejoin="round"/>
<path d="M9.70145 33.7533H27.0932" stroke="currentColor" stroke-linecap="round" stroke-linejoin="round"/>
<path d="M1 40.7095V11.7464C1.02259 11.2734 1.23171 10.8286 1.58156 10.5094C1.93142 10.1902 2.3935 10.0226 2.86664 10.0433H17.7997C18.2729 10.0226 18.735 10.1902 19.0848 10.5094C19.4347 10.8286 19.6438 11.2734 19.6664 11.7464V27.3764" stroke="currentColor" stroke-linecap="round" stroke-linejoin="round"/>
<path d="M14.3386 5.59857C14.323 5.34857 14.2093 5.11485 14.0221 4.94836C13.835 4.78186 13.5896 4.69608 13.3395 4.70969H7.33959C7.08917 4.69559 6.84335 4.78116 6.65582 4.9477C6.46829 5.11425 6.35429 5.34824 6.33871 5.59857V10.0429H14.3386V5.59857Z" stroke="currentColor" stroke-linecap="round" stroke-linejoin="round"/>
<path d="M10.2906 4.18751L10.3315 1" stroke="currentColor" stroke-linecap="round" stroke-linejoin="round"/>
<path d="M6.33871 16.7105H14.3386" stroke="currentColor" stroke-linecap="round" stroke-linejoin="round"/>
<path d="M6.33871 24.7097H14.3386" stroke="currentColor" stroke-linecap="round" stroke-linejoin="round"/>
<path d="M1 40.7103H40.9994" stroke="currentColor" stroke-linecap="round" stroke-linejoin="round"/>
<path d="M34.3341 28.7098C38.0159 28.7098 41.0006 25.7251 41.0006 22.0432C41.0006 18.3614 38.0159 15.3767 34.3341 15.3767C30.6522 15.3767 27.6675 18.3614 27.6675 22.0432C27.6675 25.7251 30.6522 28.7098 34.3341 28.7098Z" stroke="currentColor" stroke-linecap="round" stroke-linejoin="round"/>
<path d="M34.3279 40.7097V23.3766" stroke="currentColor" stroke-linecap="round" stroke-linejoin="round"/>
</svg>
