<svg width="17" height="17" viewBox="0 0 17 17" fill="none" xmlns="http://www.w3.org/2000/svg">
<path d="M6.60656 13.7785C8.24568 13.7785 9.57445 12.4498 9.57445 10.8107C9.57445 9.17154 8.24568 7.84277 6.60656 7.84277C4.96744 7.84277 3.63867 9.17154 3.63867 10.8107C3.63867 12.4498 4.96744 13.7785 6.60656 13.7785Z" stroke="white" stroke-width="0.583333" stroke-linecap="round" stroke-linejoin="round"/>
<path d="M6.60601 16.4161C9.70213 16.4161 12.212 13.9062 12.212 10.8101C12.212 7.714 9.70213 5.2041 6.60601 5.2041C3.5099 5.2041 1 7.714 1 10.8101C1 13.9062 3.5099 16.4161 6.60601 16.4161Z" stroke="white" stroke-width="0.583333" stroke-linecap="round" stroke-linejoin="round"/>
<path d="M1 16.4166L2.64223 14.7744" stroke="white" stroke-width="0.583333" stroke-linecap="round" stroke-linejoin="round"/>
<path d="M10.5703 14.7744L12.2119 16.4166" stroke="white" stroke-width="0.583333" stroke-linecap="round" stroke-linejoin="round"/>
<path d="M11.505 5.91354L11.2715 3.34863L13.3701 1.25L14.0699 3.34863L16.1685 4.04839L14.0699 6.14702L11.505 5.91354Z" stroke="white" stroke-width="0.583333" stroke-linecap="round" stroke-linejoin="round"/>
<path d="M13.2008 4.21582L6.60547 10.8111" stroke="white" stroke-width="0.583333" stroke-linecap="round" stroke-linejoin="round"/>
</svg>
