<svg width="30" height="30" viewBox="0 0 30 30" fill="none" xmlns="http://www.w3.org/2000/svg">
<path d="M17.9605 23.8051C14.7327 23.8051 12.1161 21.1885 12.1161 17.9607C12.1161 14.7329 14.7327 12.1162 17.9605 12.1162C21.1883 12.1162 23.805 14.7329 23.805 17.9607C23.805 21.1885 21.1883 23.8051 17.9605 23.8051Z" stroke="currentColor" stroke-linecap="round" stroke-linejoin="round"/>
<path d="M17.9604 28.9999C11.8634 28.9999 6.92084 24.0574 6.92084 17.9604C6.92084 11.8635 11.8634 6.9209 17.9604 6.9209C24.0573 6.9209 28.9999 11.8635 28.9999 17.9604C28.9999 24.0574 24.0573 28.9999 17.9604 28.9999Z" stroke="currentColor" stroke-linecap="round" stroke-linejoin="round"/>
<path d="M28.9999 28.9996L25.7659 25.7656" stroke="currentColor" stroke-linecap="round" stroke-linejoin="round"/>
<path d="M10.1536 25.7656L6.92093 28.9996" stroke="currentColor" stroke-linecap="round" stroke-linejoin="round"/>
<path d="M10.1837 10.1836L10.6434 5.13268L6.51076 1L5.13277 5.13268L1.00009 6.51067L5.13277 10.6433L10.1837 10.1836Z" stroke="currentColor" stroke-linecap="round" stroke-linejoin="round"/>
<path d="M4.9726 4.97266L17.9603 17.9603" stroke="currentColor" stroke-linecap="round" stroke-linejoin="round"/>
</svg>
