<svg width="24" height="24" viewBox="0 0 24 24" fill="none" xmlns="http://www.w3.org/2000/svg">
<path d="M14.5147 19.0069C12.0337 19.0069 10.0224 16.9957 10.0224 14.5147C10.0224 12.0337 12.0337 10.0225 14.5147 10.0225C16.9957 10.0225 19.0069 12.0337 19.0069 14.5147C19.0069 16.9957 16.9957 19.0069 14.5147 19.0069Z" stroke="currentColor" stroke-linecap="round" stroke-linejoin="round"/>
<path d="M14.5145 23C9.82815 23 6.02913 19.201 6.02913 14.5146C6.02913 9.82831 9.82815 6.0293 14.5145 6.0293C19.2008 6.0293 22.9998 9.82831 22.9998 14.5146C22.9998 19.201 19.2008 23 14.5145 23Z" stroke="currentColor" stroke-linecap="round" stroke-linejoin="round"/>
<path d="M22.9998 23.0001L20.5141 20.5144" stroke="currentColor" stroke-linecap="round" stroke-linejoin="round"/>
<path d="M8.51398 20.5144L6.02927 23.0001" stroke="currentColor" stroke-linecap="round" stroke-linejoin="round"/>
<path d="M8.05878 8.05881L8.41217 4.17651L5.23566 1L4.17649 4.17651L0.999973 5.23568L4.17649 8.4122L8.05878 8.05881Z" stroke="currentColor" stroke-linecap="round" stroke-linejoin="round"/>
<path d="M4.53177 4.53174L14.5145 14.5145" stroke="currentColor" stroke-linecap="round" stroke-linejoin="round"/>
</svg>
