<svg width="12" height="12" viewBox="0 0 12 12" fill="none" xmlns="http://www.w3.org/2000/svg">
<path d="M10.3333 9H5.66667L3 11V9H1.66667C1.48986 9 1.32029 8.92976 1.19526 8.80474C1.07024 8.67971 1 8.51014 1 8.33333V1.66667C1 1.48986 1.07024 1.32029 1.19526 1.19526C1.32029 1.07024 1.48986 1 1.66667 1H10.3333C10.5101 1 10.6797 1.07024 10.8047 1.19526C10.9298 1.32029 11 1.48986 11 1.66667V8.33333C11 8.51014 10.9298 8.67971 10.8047 8.80474C10.6797 8.92976 10.5101 9 10.3333 9Z" fill="white" stroke="currentColor" stroke-linecap="round" stroke-linejoin="round"/>
</svg>
