<svg width="25" height="25" viewBox="0 0 25 25" fill="none" xmlns="http://www.w3.org/2000/svg">
<path d="M13.568 14.7175L9.77301 15.2605L10.316 11.4655L20.074 1.70753C20.2859 1.48672 20.5397 1.31041 20.8206 1.18894C21.1015 1.06747 21.4038 1.00328 21.7098 1.00012C22.0158 0.996968 22.3194 1.05491 22.6027 1.17057C22.8861 1.28622 23.1435 1.45726 23.3599 1.67365C23.5763 1.89005 23.7473 2.14746 23.863 2.43079C23.9786 2.71413 24.0366 3.01769 24.0334 3.32371C24.0303 3.62972 23.9661 3.93203 23.8446 4.21292C23.7231 4.49381 23.5468 4.74764 23.326 4.95953L13.568 14.7175Z" stroke="currentColor" stroke-linecap="round" stroke-linejoin="round"/>
<path d="M12.5 6.03351H3C2.46957 6.03351 1.96086 6.24422 1.58579 6.61929C1.21071 6.99437 1 7.50308 1 8.03351V22.0335C1 22.5639 1.21071 23.0726 1.58579 23.4477C1.96086 23.8228 2.46957 24.0335 3 24.0335H17C17.5304 24.0335 18.0391 23.8228 18.4142 23.4477C18.7893 23.0726 19 22.5639 19 22.0335V12.5335" stroke="currentColor" stroke-linecap="round" stroke-linejoin="round"/>
</svg>
