<svg width="22" height="22" viewBox="0 0 22 22" fill="none" xmlns="http://www.w3.org/2000/svg">
<path d="M20.0572 1.9425C19.7544 1.64101 19.3949 1.40249 18.9994 1.24074C18.6039 1.07898 18.1803 0.997181 17.753 1.00007C17.3257 1.00297 16.9032 1.09049 16.51 1.25759C16.1167 1.42469 15.7605 1.66805 15.4618 1.97361L2.57329 14.8621L1 20.9997L7.13759 19.4255L20.0261 6.53703C20.3317 6.23849 20.5752 5.88233 20.7423 5.48913C20.9095 5.09593 20.997 4.6735 20.9999 4.24626C21.0028 3.81901 20.921 3.39543 20.7592 3.00001C20.5974 2.60458 20.3588 2.24515 20.0572 1.9425V1.9425Z" stroke="white" stroke-linecap="round" stroke-linejoin="round"/>
<path d="M15.0938 2.3425L19.6572 6.90591" stroke="white" stroke-linecap="round" stroke-linejoin="round"/>
<path d="M2.57416 14.8612L7.14202 19.4211" stroke="white" stroke-linecap="round" stroke-linejoin="round"/>
</svg>
