<svg width="30" height="30" viewBox="0 0 30 30" fill="none" 
  xmlns="http://www.w3.org/2000/svg">
  <path d="M15 29C22.732 29 29 22.732 29 15C29 7.26801 22.732 1 15 1C7.26801 1 1 7.26801 1 15C1 22.732 7.26801 29 15 29Z" stroke="white" stroke-linecap="round" stroke-linejoin="round"/>
  <path d="M15.446 21.7889V13.0389C15.446 12.6521 15.2923 12.2812 15.0188 12.0077C14.7453 11.7342 14.3744 11.5806 13.9876 11.5806H12.5293" stroke="white" stroke-linecap="round" stroke-linejoin="round"/>
  <path d="M12.5293 21.7852H18.3626" stroke="white" stroke-linecap="round" stroke-linejoin="round"/>
  <path d="M15.446 7.93457C15.3739 7.93457 15.3034 7.95595 15.2435 7.99601C15.1835 8.03607 15.1368 8.09301 15.1092 8.15963C15.0816 8.22625 15.0744 8.29956 15.0884 8.37028C15.1025 8.441 15.1372 8.50597 15.1882 8.55695C15.2392 8.60794 15.3042 8.64266 15.3749 8.65673C15.4456 8.6708 15.5189 8.66358 15.5855 8.63598C15.6521 8.60839 15.7091 8.56166 15.7491 8.5017C15.7892 8.44175 15.8106 8.37126 15.8106 8.29915C15.8106 8.20246 15.7722 8.10973 15.7038 8.04135C15.6354 7.97298 15.5427 7.93457 15.446 7.93457Z" fill="white" stroke="white" stroke-linecap="round" stroke-linejoin="round"/>
</svg>
