<svg width="32" height="33" viewBox="0 0 32 33" fill="none" xmlns="http://www.w3.org/2000/svg">
<path fill-rule="evenodd" clip-rule="evenodd" d="M27.4442 1.1653C28.9561 0.905494 30.5406 1.77655 31.3369 3.13305C32.1332 4.48951 32.1837 6.23799 31.6412 7.72283C31.4576 8.22522 31.2119 8.70064 30.9536 9.16644C30.229 10.4734 29.3991 11.7178 28.4754 12.8825C28.2493 13.1675 27.9549 13.475 27.6015 13.43C27.2541 13.3856 27.0411 13.0255 26.8726 12.7076C26.5132 12.0296 26.1225 11.3693 25.7023 10.7298C25.5986 10.5719 25.4927 10.4146 25.3867 10.2571C24.8461 9.45391 24.302 8.64557 24.0148 7.71769C23.6738 6.61613 23.727 5.39413 24.1328 4.31642C24.5386 3.23875 25.2897 2.30939 26.2252 1.67771C26.4312 1.53861 26.6469 1.41295 26.8765 1.32171C27.0597 1.24898 27.2507 1.19855 27.4442 1.1653ZM27.578 3.56349C27.7647 3.51509 27.9553 3.47903 28.1476 3.47547C28.9149 3.46128 29.6591 4.02222 29.904 4.79214C30.149 5.56206 29.8804 6.48084 29.2718 6.97571C28.9653 7.22493 28.5934 7.36783 28.2189 7.46905C27.7378 7.59906 27.1999 7.65856 26.7681 7.39918C26.6405 7.32256 26.5275 7.2207 26.4271 7.1075C26.0068 6.63378 25.8122 5.94618 25.9172 5.30588C26.0222 4.66561 26.4244 4.08766 26.9709 3.79167C27.1626 3.68792 27.3689 3.61766 27.578 3.56349Z" fill="#ECEEF2"/>
<path fill-rule="evenodd" clip-rule="evenodd" d="M11.6237 7.91451C14.2741 8.32581 16.5278 10.546 17.4894 13.2544C18.4509 15.9629 18.2175 19.064 17.1981 21.7475C16.561 23.4245 15.6428 24.9438 14.7234 26.4649C14.019 27.6305 13.3138 28.7972 12.7341 30.0367C12.707 30.0946 12.6801 30.1528 12.6532 30.211C12.4944 30.5548 12.3351 30.8995 12.1226 31.2064C11.9226 31.495 11.6789 31.7449 11.4257 31.9793C11.1661 32.2195 10.8696 32.4559 10.5285 32.4662C10.0118 32.4817 9.61851 31.9898 9.30673 31.5429L4.27828 24.3351C3.0748 22.61 1.82284 20.7496 1.69155 18.5915C1.65892 18.0544 1.69809 17.5151 1.75462 16.9804C1.92755 15.3438 2.27 13.7084 2.96777 12.245C3.66553 10.7816 4.74302 9.49464 6.12097 8.79996C6.78001 8.46774 7.49158 8.27635 8.20467 8.12442C9.33012 7.88458 10.4883 7.73832 11.6237 7.91451ZM10.5873 12.2263C10.8128 12.2399 11.0404 12.2745 11.2419 12.3622C11.5082 12.4779 11.71 12.6769 11.902 12.8729C12.8019 13.7911 13.6832 14.8428 13.701 16.0421C13.7085 16.5526 13.5555 17.0566 13.3392 17.5322C12.8106 18.6951 11.8333 19.7626 10.479 20.2201C9.12477 20.6775 7.38604 20.3829 6.56341 19.3533C6.29015 19.0112 6.12857 18.6139 5.9766 18.2202C5.70148 17.5075 5.44481 16.7695 5.49852 16.0203C5.59368 14.6915 6.67702 13.5269 8.00819 12.8417C8.78541 12.4416 9.68306 12.1718 10.5873 12.2263Z" fill="#ECEEF2"/>
<path fill-rule="evenodd" clip-rule="evenodd" d="M9.46612 15.551C9.0505 16.2547 8.29018 16.8028 7.41019 17.0329C7.08966 17.1167 6.70869 17.1504 6.44837 16.9695C6.31802 16.8788 6.23774 16.7468 6.16489 16.6171C5.88063 16.1114 5.651 15.5712 5.62442 15.0102C5.58257 14.1264 6.08452 13.2367 6.9187 12.7163C7.26403 12.5008 7.66965 12.3447 8.09581 12.3204C8.52197 12.2962 8.96859 12.4153 9.26346 12.6803C9.44148 12.8404 9.55726 13.0443 9.64258 13.253C9.94699 13.9974 9.88174 14.8473 9.46612 15.551ZM9.56308 10.6829C9.36158 10.5952 9.13398 10.5606 8.90846 10.547C8.00422 10.4925 7.10657 10.7623 6.32935 11.1624C4.99817 11.8476 3.91484 13.0122 3.81967 14.341C3.76597 15.0903 4.02264 15.8283 4.29775 16.5409C4.44972 16.9346 4.61131 17.3319 4.88456 17.674C5.7072 18.7037 7.44593 18.9982 8.80012 18.5408C10.1545 18.0834 11.1318 17.0159 11.6604 15.853C11.8766 15.3773 12.0297 14.8733 12.0221 14.3628C12.0043 13.1636 11.1231 12.1118 10.2232 11.1936C10.0312 10.9976 9.82936 10.7987 9.56308 10.6829Z" fill="#B4B6BA"/>
<path fill-rule="evenodd" clip-rule="evenodd" d="M13.1754 20.6206C12.7943 21.4089 12.3519 22.1601 11.91 22.9101C10.9217 24.5879 9.93345 26.2656 8.94511 27.9434C8.9207 27.9849 8.8941 28.0286 8.85312 28.0498C8.75227 28.1019 8.64647 27.9938 8.57897 27.8974C6.9502 25.568 5.32135 23.2387 3.69251 20.9093C3.03456 19.9685 2.36513 19.0042 2.02944 17.881C1.56375 16.3229 1.79118 14.611 2.2722 13.0584C2.75431 11.5026 3.54878 9.96629 4.85843 9.14267C5.69549 8.61623 6.67372 8.4242 7.63561 8.3089C8.24357 8.23596 8.85879 8.1902 9.46609 8.26873C11.8013 8.5707 13.6908 10.7635 14.2638 13.2359C14.8367 15.7083 14.267 18.3626 13.1754 20.6206ZM15.8097 11.5751C14.8481 8.86664 12.5944 6.64649 9.94406 6.23519C8.80858 6.059 7.65043 6.20526 6.52499 6.44509C5.81189 6.59703 5.10032 6.78842 4.44128 7.12064C3.06334 7.81532 1.98584 9.10229 1.28808 10.5657C0.590314 12.0291 0.247862 13.6645 0.0749286 15.3011C0.0183983 15.8358 -0.0207661 16.3751 0.0118588 16.9122C0.143157 19.0703 1.39511 20.9307 2.5986 22.6558C4.27474 25.0584 5.95089 27.461 7.62704 29.8636C7.93883 30.3105 8.33207 30.8024 8.84883 30.7868C9.18991 30.7765 9.48644 30.5402 9.74598 30.3C9.99921 30.0655 10.2429 29.8157 10.4429 29.5271C10.6914 29.1682 10.8671 28.7577 11.0544 28.3574C12.3907 25.5003 14.3932 23.0303 15.5184 20.0682C16.5378 17.3847 16.7712 14.2836 15.8097 11.5751Z" fill="#B4B6BA"/>
<path fill-rule="evenodd" clip-rule="evenodd" d="M20.6415 13.9255C21.019 14.0512 21.4466 13.9594 21.832 13.8664L22.6239 13.6752C23.4949 13.4649 24.3783 13.2502 25.1345 12.8671C25.3653 12.7502 25.2389 12.4425 24.9821 12.3495C24.7253 12.2565 24.4275 12.3082 24.1571 12.3615L21.2135 12.9427C20.9709 12.9906 20.7207 13.0412 20.5261 13.1588C20.3313 13.2765 20.2053 13.4801 20.2909 13.6621C20.3474 13.7825 20.4869 13.874 20.6415 13.9255ZM15.2035 16.9006C15.5305 16.9502 15.8853 16.8478 16.0987 16.6576C16.1933 16.5733 16.2607 16.4755 16.3282 16.3775L16.3282 16.3775L16.3282 16.3775L16.3282 16.3775C16.3605 16.3308 16.3927 16.2841 16.4279 16.2387C16.7473 15.8276 17.2862 15.5571 17.8239 15.2872C18.009 15.1943 18.194 15.1015 18.3698 15.003C18.5995 14.8743 18.8388 14.6574 18.6968 14.4718C18.6307 14.3854 18.4984 14.3392 18.3688 14.3139C17.996 14.2412 17.5942 14.3014 17.2453 14.4231C16.8965 14.5447 16.5913 14.7242 16.2897 14.9021L15.3463 15.4585C14.9372 15.6997 14.4854 16.0144 14.5542 16.3984C14.5981 16.6436 14.8766 16.8511 15.2035 16.9006ZM18.3283 20.0157C17.7208 20.0339 17.1424 19.8434 16.5914 19.656C15.8587 19.4066 15.0616 19.1054 14.7776 18.5537C14.6741 18.3526 14.6503 18.1299 14.71 17.9195C14.7551 17.7606 14.852 17.6041 15.0219 17.4991C15.1917 17.3942 15.4431 17.3508 15.6448 17.4195C15.8697 17.4962 15.971 17.6754 16.0682 17.8473L16.0682 17.8473C16.0857 17.8782 16.103 17.9089 16.1209 17.9386C16.4106 18.4205 17.021 18.7935 17.7227 18.9174C17.8331 18.9369 17.9457 18.9507 18.0583 18.9644L18.0583 18.9644L18.0583 18.9644L18.0583 18.9644L18.0583 18.9644C18.2647 18.9896 18.4707 19.0148 18.6618 19.0753C18.9572 19.1688 19.218 19.3849 19.1618 19.6159C19.0991 19.8742 18.6881 20.0049 18.3283 20.0157ZM30.2624 24.4236C30.1022 24.1583 29.8316 23.9378 29.5335 23.7499C29.2359 23.5623 28.9067 23.4026 28.5561 23.2756C28.3295 23.1936 28.0825 23.124 27.8318 23.1426C27.5811 23.1612 27.33 23.2924 27.2946 23.4784C27.2565 23.6792 27.4648 23.8544 27.6574 23.9974L28.3372 24.502C28.6212 24.7127 28.679 25.0499 28.5775 25.3389C28.476 25.6278 28.2395 25.8789 27.9958 26.116C27.7577 26.3476 27.4929 26.6235 27.599 26.9045C27.7143 27.2094 28.2422 27.3387 28.6467 27.2417C29.0513 27.1446 29.3482 26.8899 29.5981 26.6336C29.9103 26.3133 30.1868 25.9672 30.3317 25.5862C30.4764 25.2052 30.4806 24.7846 30.2624 24.4236ZM18.6642 29.1771C18.4289 29.0743 18.1391 29.1118 17.8778 29.1526L15.7112 29.4903L13.7678 29.7933C13.1172 29.8946 12.4151 30.019 12.0049 30.4074C11.9054 30.5016 11.9911 30.6557 12.1335 30.7175C12.2758 30.7794 12.4483 30.7749 12.6099 30.7671C14.7224 30.6647 16.8005 30.2908 18.728 29.6664C18.9719 29.5873 18.8995 29.2798 18.6642 29.1771ZM25.0634 27.4587C25.1652 27.4435 25.2733 27.4329 25.3748 27.4607C25.6105 27.525 25.6945 27.774 25.5993 27.9421C25.5041 28.11 25.2909 28.2131 25.0847 28.3026C24.1723 28.6988 23.1889 29.0053 22.1631 29.2133C21.9619 29.2541 21.7536 29.2914 21.5414 29.2703C21.3293 29.2492 21.1098 29.1581 21.0135 29.0069C20.9167 28.855 20.9652 28.673 21.0897 28.5469C21.2141 28.4208 21.4027 28.3424 21.596 28.2841C21.8866 28.1967 22.1959 28.1484 22.5055 28.1002L22.5055 28.1002L22.5055 28.1002C22.7263 28.0658 22.9472 28.0313 23.1617 27.9826C23.4364 27.9202 23.6997 27.8345 23.9628 27.7489L23.9628 27.7489C24.3208 27.6324 24.6783 27.516 25.0634 27.4587ZM25.4321 22.2169C24.946 22.504 23.9846 22.2801 23.8795 22.2436L22.6749 21.8257C22.2223 21.6687 21.7686 21.5112 21.3396 21.3204C21.1997 21.2582 21.059 21.19 20.963 21.093C20.8671 20.996 20.8246 20.8633 20.8972 20.7614C21.0346 20.5684 21.4295 20.6115 21.7225 20.6809L24.683 21.3822C24.9531 21.4462 25.2379 21.517 25.4275 21.6737C25.6171 21.8302 25.656 22.1014 25.4321 22.2169Z" fill="#B4B6BA"/>
<path fill-rule="evenodd" clip-rule="evenodd" d="M26.2363 5.12169C26.0827 4.92581 26.0504 4.66829 26.0658 4.42887C26.0882 4.07961 26.2256 3.70971 26.5431 3.54753C26.6638 3.51036 26.7988 3.51254 26.9214 3.55367C27.1373 3.62621 27.3008 3.8142 27.3778 4.02106C27.4549 4.22798 27.4548 4.45201 27.4238 4.66571C27.3897 4.90082 27.3079 5.1459 27.1095 5.28254C26.8493 5.46193 26.4364 5.37683 26.2363 5.12169ZM28.6147 5.42743C28.6834 5.24784 28.7214 5.05764 28.7465 4.86635C28.7746 4.65222 28.7867 4.43456 28.7623 4.21803C28.6926 3.60041 28.3074 3.01102 27.7531 2.67382C27.1987 2.33657 26.4883 2.25943 25.8916 2.47165C25.7491 2.52237 25.6123 2.58898 25.4935 2.67854C25.0912 2.98179 24.9449 3.50279 24.8852 3.99755C24.8388 4.3827 24.8319 4.78102 24.9482 5.15857C25.179 5.90826 25.9303 6.50148 26.7359 6.56274C27.5415 6.62404 28.3404 6.1442 28.6147 5.42743Z" fill="#B4B6BA"/>
<path fill-rule="evenodd" clip-rule="evenodd" d="M29.4964 5.83417C29.4507 5.94892 29.3994 6.06138 29.3471 6.17336C28.7477 7.45808 28.0215 8.68389 27.1823 9.82739C27.0398 10.0215 26.868 10.229 26.6286 10.2587C26.292 10.3005 26.0345 9.97908 25.851 9.69471C25.5884 9.28758 25.3257 8.88045 25.063 8.47328C24.6718 7.86695 24.2786 7.25698 23.996 6.59333C23.7134 5.92973 23.5443 5.20339 23.623 4.48673C23.7402 3.41844 24.3984 2.47079 25.209 1.76239C25.4918 1.51531 25.8001 1.2885 26.1522 1.15673C26.7451 0.934774 27.4284 1.00651 27.9934 1.29186C28.5584 1.57725 29.0082 2.06255 29.3088 2.61832C29.8364 3.59418 29.9071 4.80388 29.4964 5.83417ZM30.124 2.01355C29.3277 0.657048 27.7432 -0.214013 26.2313 0.045797C26.0378 0.079043 25.8468 0.129477 25.6636 0.202205C25.434 0.293446 25.2183 0.419103 25.0123 0.558206C24.0768 1.18988 23.3258 2.11925 22.9199 3.19692C22.5141 4.27462 22.4609 5.49662 22.8019 6.59818C23.1454 7.708 23.8564 8.6468 24.4895 9.61031C24.9096 10.2498 25.3003 10.9101 25.6597 11.5881C25.8283 11.906 26.0412 12.2661 26.3886 12.3104C26.7421 12.3555 27.0365 12.048 27.2625 11.763C28.1862 10.5983 29.0161 9.35393 29.7407 8.04693C29.9991 7.58114 30.2447 7.10572 30.4283 6.60332C30.9708 5.11848 30.9203 3.37001 30.124 2.01355Z" fill="#B4B6BA"/>
</svg>
