<svg width="24" height="24" viewBox="0 0 24 24" fill="none" xmlns="http://www.w3.org/2000/svg">
<circle cx="14.375" cy="11.1438" r="1.00001" fill="white"/>
<circle cx="12" cy="12.6255" r="1.00001" fill="white"/>
<path d="M2.34351 17.5955C2.65131 18.0138 2.98234 18.4144 3.33503 18.7956V23.0001L5.87026 20.6184C7.88555 22.1299 11.4123 22.6337 14.4352 22.1299C19.6236 21.2653 19.9773 17.5955 19.9773 17.5955C19.9773 17.5955 21.4888 17.5955 22.4964 16.084C22.8242 15.2844 22.9953 14.4292 23.0002 13.5649L19.9773 14.5726L17.962 11.5496C17.3319 12.2395 16.9738 13.1347 16.9544 14.0688C16.9738 15.0028 17.3319 15.898 17.962 16.5879C17.962 16.5879 17.5002 18.5001 14.0001 18.5001C9.96955 17.9963 9.90084 14.0688 8.38937 12.0535C6.87791 10.0382 4.35886 8.52671 2.34351 10.542C2.34351 10.542 -0.679386 13.0611 2.34351 17.5955Z" stroke="currentColor" stroke-linecap="round" stroke-linejoin="round"/>
<path d="M1.49988 3.75L3.4999 9.50007" stroke="currentColor" stroke-linecap="round" stroke-linejoin="round"/>
<circle cx="4.86271" cy="14.2226" r="0.503822" fill="white"/>
<path d="M5.04851 17.0522C5.3049 16.9496 5.42961 16.6587 5.32705 16.4023C5.2245 16.1459 4.93351 16.0212 4.67712 16.1237L5.04851 17.0522ZM0.871821 15.766C1.08634 16.3023 1.55714 16.8594 2.27548 17.1621C3.00464 17.4694 3.94062 17.4954 5.04851 17.0522L4.67712 16.1237C3.76972 16.4867 3.11026 16.4287 2.66383 16.2406C2.20659 16.0479 1.92166 15.698 1.8003 15.3946L0.871821 15.766Z" fill="white"/>
<path d="M15.544 1C14.9507 1.00412 14.3703 1.17434 13.8679 1.49157C13.3655 1.8088 12.9609 2.2605 12.6995 2.79601C12.2795 2.48862 11.7735 2.32303 11.254 2.32302C10.5832 2.33015 9.94264 2.60483 9.47313 3.08669C9.00363 3.56855 8.74362 4.21815 8.75025 4.8927C8.7438 5.5669 9.00384 6.21608 9.47322 6.69756C9.94259 7.17904 10.5829 7.45341 11.2534 7.46036C11.2836 7.46036 11.3125 7.46036 11.3434 7.45698C11.5364 7.74811 11.7884 7.99493 12.083 8.18125C12.3775 8.36757 12.7078 8.48918 13.0524 8.53812C13.3969 8.58705 13.7478 8.56221 14.0822 8.4652C14.4165 8.3682 14.7266 8.20123 14.9923 7.97524C15.2211 8.02452 15.4544 8.04921 15.6884 8.0489C17.5848 8.0489 18.8299 6.47046 18.8299 4.5231C18.8505 4.07329 18.7812 3.6239 18.6261 3.20149C18.4709 2.77908 18.2332 2.39223 17.9269 2.06379C17.6205 1.73535 17.2518 1.47199 16.8425 1.28927C16.4333 1.10656 15.9917 1.0082 15.544 1V1Z" stroke="currentColor" stroke-linecap="round" stroke-linejoin="round"/>
</svg>
