<svg width="19" height="19" viewBox="0 0 19 19" fill="none" xmlns="http://www.w3.org/2000/svg">
<path d="M16.842 1.78349C16.5902 1.53286 16.2914 1.33459 15.9626 1.20012C15.6339 1.06565 15.2817 0.997657 14.9265 1.00006C14.5713 1.00247 14.2201 1.07522 13.8932 1.21413C13.5663 1.35304 13.2701 1.55534 13.0219 1.80935L2.30785 12.5234L1 17.6254L6.10208 16.3169L16.8161 5.60285C17.0702 5.35468 17.2725 5.0586 17.4115 4.73174C17.5504 4.40488 17.6232 4.05372 17.6256 3.69856C17.628 3.3434 17.56 2.99129 17.4255 2.66258C17.291 2.33386 17.0926 2.03508 16.842 1.78349V1.78349Z" stroke="currentColor" stroke-linecap="round" stroke-linejoin="round"/>
<path d="M12.7159 2.11598L16.5094 5.90948" stroke="currentColor" stroke-linecap="round" stroke-linejoin="round"/>
<path d="M2.30856 12.5226L6.10575 16.3132" stroke="currentColor" stroke-linecap="round" stroke-linejoin="round"/>
</svg>
