<svg width="24" height="24" viewBox="0 0 24 24" fill="none" xmlns="http://www.w3.org/2000/svg">
<path d="M9.28881 4.71619C9.54912 4.39342 9.68946 3.9964 9.67896 3.61248C9.66846 3.22856 9.50798 2.88918 9.23282 2.66901C8.95766 2.44883 8.59036 2.3659 8.21173 2.43844C7.83309 2.51099 7.47414 2.73308 7.21383 3.05586L3.39122 7.79574C2.90646 8.39628 2.5555 9.08873 2.36947 9.81171C2.18343 10.5347 2.16806 11.2658 2.32473 11.9403L2.79542 13.9375C2.84791 14.1624 2.84301 14.4062 2.78115 14.6473C2.7193 14.8884 2.6024 15.1194 2.44084 15.3198L1 17.1064M10.4182 7.48453L15.56 1.59453C15.8328 1.2821 16.2001 1.07411 16.5813 1.01631C16.9625 0.958515 17.3263 1.05564 17.5926 1.28633C17.8589 1.51702 18.006 1.86236 18.0015 2.2464C17.997 2.63044 17.8412 3.02171 17.5685 3.33413M11.9613 5.71764C12.234 5.40521 12.3898 5.01394 12.3943 4.6299C12.3988 4.24587 12.2517 3.90052 11.9854 3.66983C11.7191 3.43914 11.3553 3.34202 10.9741 3.39982C10.5929 3.45761 10.2255 3.6656 9.95281 3.97803L5.94769 8.56595C5.43981 9.14722 5.06203 9.82553 4.84785 10.5407C4.63367 11.2559 4.58972 11.9859 4.71988 12.666L5.11209 14.68C5.15574 14.9067 5.14131 15.1501 5.07007 15.3886C4.99883 15.6272 4.87299 15.8535 4.70371 16.0474L3.19408 17.7767M14.9992 6.27851L18.5985 2.1555C18.8712 1.84308 19.2386 1.63509 19.6197 1.57729C20.0009 1.51949 20.3647 1.61662 20.631 1.84731C20.8974 2.07799 21.0445 2.42334 21.0399 2.80738C21.0354 3.19142 20.8797 3.58269 20.6069 3.89511L17.0077 8.01812M20.092 4.48453C20.3647 4.1721 20.7321 3.96412 21.1133 3.90632C21.4945 3.84852 21.8582 3.94565 22.1246 4.17633C22.3909 4.40702 22.538 4.75237 22.5335 5.13641C22.529 5.52044 22.3732 5.91171 22.1005 6.22414L20.5579 7.99114M18.5017 10.3479L20.5584 7.99185C20.8312 7.67943 21.1985 7.47144 21.5797 7.41364C21.9609 7.35584 22.3247 7.45297 22.591 7.68366C22.8573 7.91434 23.0044 8.25969 22.9999 8.64373C22.9954 9.02777 22.8396 9.41904 22.5669 9.73146L14.5539 18.9105C14.076 19.4593 13.4958 19.9067 12.8592 20.2174L11.0907 21.0757C10.8781 21.179 10.6844 21.328 10.5249 21.511L9.22501 23" stroke="currentColor" stroke-linecap="round" stroke-linejoin="round"/>
</svg>
