<svg width="14" height="14" viewBox="0 0 14 14" fill="none" xmlns="http://www.w3.org/2000/svg">
<path d="M7 13C10.3137 13 13 10.3137 13 7C13 3.68629 10.3137 1 7 1C3.68629 1 1 3.68629 1 7C1 10.3137 3.68629 13 7 13Z" fill="white" stroke="currentColor" stroke-width="0.75" stroke-miterlimit="10"/>
<path d="M7.00078 9.40015C6.96122 9.40015 6.92256 9.41188 6.88967 9.43385C6.85678 9.45583 6.83114 9.48706 6.81601 9.52361C6.80087 9.56015 6.79691 9.60037 6.80462 9.63916C6.81234 9.67796 6.83139 9.7136 6.85936 9.74157C6.88733 9.76954 6.92297 9.78859 6.96176 9.7963C7.00056 9.80402 7.04077 9.80006 7.07732 9.78492C7.11386 9.76978 7.1451 9.74415 7.16707 9.71126C7.18905 9.67837 7.20078 9.6397 7.20078 9.60015C7.20078 9.5471 7.17971 9.49623 7.1422 9.45872C7.1047 9.42122 7.05382 9.40015 7.00078 9.40015Z" stroke="currentColor" stroke-width="0.75" stroke-linecap="round" stroke-linejoin="round"/>
<path d="M7 7.80015V3.40015" stroke="currentColor" stroke-width="0.75" stroke-miterlimit="10" stroke-linecap="round"/>
</svg>
