<svg width="24" height="24" viewBox="0 0 24 24" fill="none" xmlns="http://www.w3.org/2000/svg">
<path d="M20.254 13.5H22.5C22.7652 13.5 23.0196 13.3946 23.2071 13.2071C23.3946 13.0196 23.5 12.7652 23.5 12.5V11.5C23.5 11.2348 23.3946 10.9804 23.2071 10.7929C23.0196 10.6054 22.7652 10.5 22.5 10.5H20.253C20.0491 9.4864 19.7129 8.50398 19.253 7.578L20.842 5.99C21.0295 5.80247 21.1348 5.54816 21.1348 5.283C21.1348 5.01784 21.0295 4.76353 20.842 4.576L19.424 3.162C19.2365 2.97453 18.9822 2.86921 18.717 2.86921C18.4518 2.86921 18.1975 2.97453 18.01 3.162L16.42 4.751C15.4948 4.29093 14.513 3.9547 13.5 3.751V1.5C13.5 1.23478 13.3946 0.98043 13.2071 0.792893C13.0196 0.605357 12.7652 0.5 12.5 0.5H11.5C11.2348 0.5 10.9804 0.605357 10.7929 0.792893C10.6054 0.98043 10.5 1.23478 10.5 1.5V3.749C9.48667 3.95271 8.50457 4.28893 7.579 4.749L5.989 3.162C5.80147 2.97453 5.54716 2.86921 5.282 2.86921C5.01684 2.86921 4.76253 2.97453 4.575 3.162L3.16 4.577C2.97253 4.76453 2.86721 5.01884 2.86721 5.284C2.86721 5.54916 2.97253 5.80347 3.16 5.991L4.75 7.58C4.2904 8.50576 3.9542 9.4878 3.75 10.501H1.5C1.23478 10.501 0.98043 10.6064 0.792893 10.7939C0.605357 10.9814 0.5 11.2358 0.5 11.501V12.501C0.5 12.7662 0.605357 13.0206 0.792893 13.2081C0.98043 13.3956 1.23478 13.501 1.5 13.501H3.746C3.9502 14.5142 4.2864 15.4962 4.746 16.422L3.156 18.012C2.96853 18.1995 2.86321 18.4538 2.86321 18.719C2.86321 18.9842 2.96853 19.2385 3.156 19.426L4.575 20.84C4.76253 21.0275 5.01684 21.1328 5.282 21.1328C5.54716 21.1328 5.80147 21.0275 5.989 20.84L7.578 19.25C8.50398 19.7099 9.4864 20.0461 10.5 20.25V22.5C10.5 22.7652 10.6054 23.0196 10.7929 23.2071C10.9804 23.3946 11.2348 23.5 11.5 23.5H12.5C12.7652 23.5 13.0196 23.3946 13.2071 23.2071C13.3946 23.0196 13.5 22.7652 13.5 22.5V20.255C14.5129 20.0509 15.4946 19.7147 16.42 19.255L18.011 20.844C18.1985 21.0315 18.4528 21.1368 18.718 21.1368C18.9832 21.1368 19.2375 21.0315 19.425 20.844L20.839 19.43C21.0265 19.2425 21.1318 18.9882 21.1318 18.723C21.1318 18.4578 21.0265 18.2035 20.839 18.016L19.25 16.426C19.7114 15.4989 20.0489 14.5151 20.254 13.5V13.5Z" stroke="currentColor" stroke-linecap="round" stroke-linejoin="round"/>
<path d="M12 16.501C14.4853 16.501 16.5 14.4863 16.5 12.001C16.5 9.5157 14.4853 7.50098 12 7.50098C9.51472 7.50098 7.5 9.5157 7.5 12.001C7.5 14.4863 9.51472 16.501 12 16.501Z" stroke="currentColor" stroke-linecap="round" stroke-linejoin="round"/>
</svg>
