<svg width="24" height="24" viewBox="0 0 24 24" fill="none" xmlns="http://www.w3.org/2000/svg">
<path d="M9.06671 9.06559C9.06681 8.52784 9.21474 8.00046 9.49431 7.5411C9.77389 7.08174 10.1744 6.70807 10.652 6.46094C11.1296 6.2138 11.6659 6.10271 12.2024 6.1398C12.7388 6.17689 13.2548 6.36074 13.6938 6.67125C14.1329 6.98176 14.4781 7.40699 14.6918 7.90046C14.9055 8.39392 14.9794 8.93664 14.9055 9.46928C14.8316 10.0019 14.6127 10.504 14.2728 10.9207C13.9328 11.3373 13.4848 11.6525 12.9778 11.8317C12.6917 11.9329 12.4441 12.1202 12.269 12.368C12.0938 12.6158 11.9999 12.9118 12 13.2153V14.1989" stroke="currentColor" stroke-linecap="round" stroke-linejoin="round"/>
<path d="M12 16.5833C11.8187 16.5833 11.6415 16.637 11.4907 16.7377C11.34 16.8385 11.2225 16.9816 11.1531 17.1491C11.0837 17.3166 11.0656 17.5009 11.1009 17.6788C11.1363 17.8566 11.2236 18.0199 11.3518 18.1481C11.48 18.2763 11.6433 18.3636 11.8211 18.399C11.999 18.4343 12.1833 18.4162 12.3508 18.3468C12.5183 18.2774 12.6614 18.1599 12.7622 18.0092C12.8629 17.8584 12.9166 17.6812 12.9166 17.4999C12.9166 17.2568 12.8201 17.0236 12.6482 16.8517C12.4763 16.6798 12.2431 16.5833 12 16.5833Z" fill="white"/>
<path d="M12 23C18.0751 23 23 18.0751 23 12C23 5.92487 18.0751 1 12 1C5.92487 1 1 5.92487 1 12C1 18.0751 5.92487 23 12 23Z" stroke="currentColor" stroke-miterlimit="10"/>
</svg>
