<svg width="24" height="24" viewBox="0 0 24 24" fill="none" xmlns="http://www.w3.org/2000/svg">
<path d="M8.62859 7.51296C7.04 6.94997 4.79995 8.97577 3.90376 10.5229C2.84247 12.0502 2.25877 17.1127 2.25877 17.1127L5.87038 18.3926C5.87038 18.3926 6.20853 17.488 6.64348 16.7631C7.09565 16.0096 9.20812 14.6835 9.73988 13.2609C10.2604 11.655 10.6791 8.23966 8.62859 7.51296Z" stroke="currentColor" stroke-linecap="round" stroke-linejoin="round"/>
<path d="M1.80002 18.5312L5.29119 19.7685C5.29119 19.7685 4.30088 23.6861 2.0671 22.8945C-0.166678 22.1028 1.80002 18.5312 1.80002 18.5312Z" stroke="currentColor" stroke-linecap="round" stroke-linejoin="round"/>
<path d="M21.7923 1.28598C23.2797 2.1675 23.1957 5.22746 22.5921 6.92635C22.1131 8.74183 18.5828 12.4612 18.5828 12.4612L15.201 10.4571C15.201 10.4571 15.677 9.6093 15.9499 8.80152C16.2335 7.96178 15.8607 5.45263 16.6092 4.11945C17.507 2.67693 19.8722 0.148109 21.7923 1.28598Z" stroke="currentColor" stroke-linecap="round" stroke-linejoin="round"/>
<path d="M17.789 13.7346L14.52 11.7973C14.52 11.7973 12.1447 15.0975 14.2364 16.337C16.328 17.5766 17.789 13.7346 17.789 13.7346Z" stroke="currentColor" stroke-linecap="round" stroke-linejoin="round"/>
</svg>
