<svg width="16" height="15" viewBox="0 0 16 15" fill="none" xmlns="http://www.w3.org/2000/svg">
<mask id="mask0" mask-type="alpha" maskUnits="userSpaceOnUse" x="0" y="0" width="16" height="15">
<path fill-rule="evenodd" clip-rule="evenodd" d="M13.903 0C13.531 0.007 13.093 0.262 12.589 0.766C10.879 2.496 9.16696 4.198 7.45496 5.873C5.46996 3.923 3.88496 2.32 2.70096 1.065C2.27696 0.568 1.89196 0.3 1.54696 0.262C1.20096 0.204 0.906956 0.315 0.664957 0.596C0.422957 0.875 0.335957 1.185 0.401957 1.522C0.467957 1.858 0.736957 2.28 1.20996 2.788C2.43996 4.09 3.97096 5.64 5.80296 7.436C4.20796 8.956 2.60496 10.443 0.996957 11.897C0.563956 12.293 0.284957 12.618 0.164957 12.875C-0.0720435 13.34 -0.0530435 13.764 0.217957 14.144C0.393957 14.392 0.643957 14.535 0.970957 14.572C1.28896 14.62 1.58396 14.574 1.85896 14.434C2.07796 14.329 2.30496 14.159 2.53996 13.926C2.60296 13.863 2.79596 13.641 3.11796 13.261C3.43196 12.909 4.08096 12.279 5.06496 11.372C5.83196 10.68 6.64896 9.921 7.51596 9.094C8.28196 9.825 9.09196 10.598 9.94496 11.415L12.75 14.112C13.266 14.592 13.689 14.862 14.015 14.919C14.353 14.967 14.651 14.869 14.911 14.626C15.174 14.384 15.28 14.095 15.233 13.76C15.185 13.422 14.907 13 14.398 12.492L11.84 10.068C10.891 9.173 10.001 8.327 9.16596 7.53C10.726 6.009 12.442 4.303 14.314 2.411C14.792 1.933 15.038 1.523 15.055 1.18C15.064 0.883 14.949 0.613 14.709 0.374C14.477 0.125 14.218 0 13.932 0H13.903Z" fill="white"/>
</mask>
<g mask="url(#mask0)">
<path fill-rule="evenodd" clip-rule="evenodd" d="M7.79603 -13.6117L29.009 7.60231L7.79603 28.8153L-13.418 7.60231L7.79603 -13.6117Z" fill="white"/>
</g>
</svg>
