<svg width="18" height="18" viewBox="0 0 18 18" fill="none" xmlns="http://www.w3.org/2000/svg">
<g clip-path="url(#clip0)">
<path d="M15.75 3.375L14.391 16.2817C14.3523 16.6503 14.1785 16.9914 13.9032 17.2394C13.6279 17.4875 13.2706 17.6248 12.9 17.625H5.1C4.72932 17.625 4.37177 17.4877 4.09631 17.2397C3.82085 16.9917 3.64699 16.6504 3.60825 16.2817L2.25 3.375" stroke="white" stroke-linecap="round" stroke-linejoin="round"/>
<path d="M0.375 3.375H17.625" stroke="white" stroke-linecap="round" stroke-linejoin="round"/>
<path d="M5.625 3.375V1.125C5.625 0.926088 5.70402 0.735322 5.84467 0.59467C5.98532 0.454018 6.17609 0.375 6.375 0.375H11.625C11.8239 0.375 12.0147 0.454018 12.1553 0.59467C12.296 0.735322 12.375 0.926088 12.375 1.125V3.375" stroke="white" stroke-linecap="round" stroke-linejoin="round"/>
<path d="M9 6.75V14.625" stroke="white" stroke-linecap="round" stroke-linejoin="round"/>
<path d="M12.375 6.75L12 14.625" stroke="white" stroke-linecap="round" stroke-linejoin="round"/>
<path d="M5.625 6.75L6 14.625" stroke="white" stroke-linecap="round" stroke-linejoin="round"/>
</g>
<defs>
<clipPath id="clip0">
<rect width="18" height="18" fill="white"/>
</clipPath>
</defs>
</svg>
