<svg width="36" height="36" viewBox="0 0 36 36" fill="none" xmlns="http://www.w3.org/2000/svg">
<path d="M10.5166 13.4999H5.2666C4.66986 13.4999 4.09757 13.7369 3.67561 14.1589C3.25365 14.5808 3.0166 15.1531 3.0166 15.7499V20.2499C3.0166 20.8466 3.25365 21.4189 3.67561 21.8408C4.09757 22.2628 4.66986 22.4999 5.2666 22.4999H10.5166L19.7371 31.7189C19.842 31.8234 19.9755 31.8946 20.1207 31.9234C20.266 31.9522 20.4166 31.9373 20.5534 31.8807C20.6902 31.8241 20.8072 31.7282 20.8897 31.6052C20.9721 31.4821 21.0163 31.3374 21.0166 31.1894V4.81036C21.0163 4.66226 20.9721 4.51758 20.8897 4.39454C20.8072 4.27151 20.6902 4.17564 20.5534 4.11901C20.4166 4.06238 20.266 4.04753 20.1207 4.07633C19.9755 4.10513 19.842 4.1763 19.7371 4.28086L10.5166 13.4999Z" stroke="white" stroke-linecap="round" stroke-linejoin="round"/>
<path d="M28.5166 9C29.9044 10.0543 31.0296 11.4153 31.8043 12.9766C32.5789 14.5378 32.982 16.2571 32.982 18C32.982 19.7429 32.5789 21.4622 31.8043 23.0234C31.0296 24.5847 29.9044 25.9457 28.5166 27" stroke="white" stroke-linecap="round" stroke-linejoin="round"/>
<path d="M25.5166 12.75C29.5336 15.6705 29.5201 20.34 25.5166 23.25" stroke="white" stroke-linecap="round" stroke-linejoin="round"/>
<path d="M7.5 31.5L28.5 4.5" stroke="white" stroke-linecap="round" stroke-linejoin="round"/>
</svg>
