<svg width="20" height="18" viewBox="0 0 20 18" fill="none" xmlns="http://www.w3.org/2000/svg">
<mask id="path-1-inside-1" fill="white">
<path fill-rule="evenodd" clip-rule="evenodd" d="M2 0C0.895431 0 0 0.89543 0 2V16C0 17.1046 0.895431 18 2 18H6C7.10457 18 8 17.1046 8 16V2C8 0.895431 7.10457 0 6 0H2ZM14.0008 0C12.8962 0 12.0008 0.89543 12.0008 2V16C12.0008 17.1046 12.8962 18 14.0008 18H18.0008C19.1053 18 20.0008 17.1046 20.0008 16V2C20.0008 0.895431 19.1053 0 18.0008 0H14.0008Z"/>
</mask>
<path d="M1 2C1 1.44772 1.44772 1 2 1V-1C0.343146 -1 -1 0.343146 -1 2H1ZM1 16V2H-1V16H1ZM2 17C1.44771 17 1 16.5523 1 16H-1C-1 17.6569 0.343146 19 2 19V17ZM6 17H2V19H6V17ZM7 16C7 16.5523 6.55229 17 6 17V19C7.65685 19 9 17.6569 9 16H7ZM7 2V16H9V2H7ZM6 1C6.55228 1 7 1.44772 7 2H9C9 0.343146 7.65685 -1 6 -1V1ZM2 1H6V-1H2V1ZM13.0008 2C13.0008 1.44772 13.4485 1 14.0008 1V-1C12.3439 -1 11.0008 0.343146 11.0008 2H13.0008ZM13.0008 16V2H11.0008V16H13.0008ZM14.0008 17C13.4485 17 13.0008 16.5523 13.0008 16H11.0008C11.0008 17.6569 12.3439 19 14.0008 19V17ZM18.0008 17H14.0008V19H18.0008V17ZM19.0008 16C19.0008 16.5523 18.5531 17 18.0008 17V19C19.6576 19 21.0008 17.6569 21.0008 16H19.0008ZM19.0008 2V16H21.0008V2H19.0008ZM18.0008 1C18.5531 1 19.0008 1.44772 19.0008 2H21.0008C21.0008 0.343146 19.6576 -1 18.0008 -1V1ZM14.0008 1H18.0008V-1H14.0008V1Z" fill="white" mask="url(#path-1-inside-1)"/>
</svg>
