<svg width="22" height="22" viewBox="0 0 22 22" fill="none" xmlns="http://www.w3.org/2000/svg">
<path d="M19.6667 17H10.3333L5 21V17H2.33333C1.97971 17 1.64057 16.8595 1.39052 16.6095C1.14048 16.3594 1 16.0203 1 15.6667V2.33333C1 1.97971 1.14048 1.64057 1.39052 1.39052C1.64057 1.14048 1.97971 1 2.33333 1H19.6667C20.0203 1 20.3594 1.14048 20.6095 1.39052C20.8595 1.64057 21 1.97971 21 2.33333V15.6667C21 16.0203 20.8595 16.3594 20.6095 16.6095C20.3594 16.8595 20.0203 17 19.6667 17Z" stroke="#505256" stroke-linecap="round" stroke-linejoin="round"/>
</svg>
