<svg width="22" height="20" viewBox="0 0 22 20" fill="none" xmlns="http://www.w3.org/2000/svg">
<path d="M11 20L1.62465 9.8393C0.801533 8.98372 0.25825 7.8808 0.071702 6.68668C-0.114846 5.49255 0.0647902 4.2677 0.585185 3.18551C0.978384 2.36873 1.55274 1.66072 2.26091 1.11981C2.96909 0.578899 3.79083 0.220574 4.65842 0.0743574C5.52601 -0.0718593 6.41462 -0.00178219 7.25103 0.278815C8.08744 0.559412 8.84772 1.0425 9.46922 1.68827L11 3.27885L12.5308 1.68827C13.1523 1.0425 13.9126 0.559412 14.749 0.278815C15.5854 -0.00178219 16.474 -0.0718593 17.3416 0.0743574C18.2092 0.220574 19.0309 0.578899 19.7391 1.11981C20.4473 1.66072 21.0216 2.36873 21.4148 3.18551C21.9352 4.2677 22.1148 5.49255 21.9283 6.68668C21.7417 7.8808 21.1985 8.98372 20.3754 9.8393L11 20Z" fill="#FF5532"/>
</svg>
