<svg width="24" height="22" viewBox="0 0 24 22" fill="none" xmlns="http://www.w3.org/2000/svg">
<path d="M12 21L2.62465 10.8393C1.80153 9.98372 1.25825 8.8808 1.0717 7.68668C0.885154 6.49255 1.06479 5.2677 1.58518 4.18551C1.97838 3.36873 2.55274 2.66072 3.26091 2.11981C3.96909 1.5789 4.79083 1.22057 5.65842 1.07436C6.52601 0.928141 7.41462 0.998218 8.25103 1.27881C9.08744 1.55941 9.84772 2.0425 10.4692 2.68827L12 4.27885L13.5308 2.68827C14.1523 2.0425 14.9126 1.55941 15.749 1.27881C16.5854 0.998218 17.474 0.928141 18.3416 1.07436C19.2092 1.22057 20.0309 1.5789 20.7391 2.11981C21.4473 2.66072 22.0216 3.36873 22.4148 4.18551C22.9352 5.2677 23.1148 6.49255 22.9283 7.68668C22.7417 8.8808 22.1985 9.98372 21.3754 10.8393L12 21Z" stroke="#505256" stroke-linecap="round" stroke-linejoin="round"/>
</svg>
