<svg width="22" height="22" viewBox="0 0 22 22" fill="none" xmlns="http://www.w3.org/2000/svg">
<path d="M8.53528 4.37836C8.77193 4.08493 8.89951 3.724 8.88996 3.37498C8.88042 3.02596 8.73452 2.71744 8.48438 2.51728C8.23423 2.31712 7.90033 2.24172 7.55611 2.30768C7.2119 2.37363 6.88558 2.57553 6.64893 2.86896L3.17384 7.17794C2.73315 7.72389 2.41409 8.3534 2.24497 9.01064C2.07584 9.66789 2.06187 10.3326 2.2043 10.9457L2.6322 12.7614C2.67992 12.9658 2.67546 13.1874 2.61923 13.4066C2.563 13.6259 2.45673 13.8359 2.30985 14.018L1 15.6422M9.56202 6.89503L14.2364 1.54048C14.4843 1.25646 14.8183 1.06737 15.1648 1.01483C15.5114 0.962287 15.8421 1.05058 16.0842 1.2603C16.3263 1.47001 16.46 1.78397 16.4559 2.13309C16.4518 2.48222 16.3102 2.83792 16.0622 3.12194M10.9648 5.28876C11.2127 5.00474 11.3543 4.64904 11.3584 4.29991C11.3626 3.95079 11.2288 3.63683 10.9867 3.42712C10.7446 3.2174 10.4139 3.12911 10.0674 3.18165C9.72083 3.23419 9.38686 3.42328 9.13892 3.7073L5.4979 7.87814C5.03619 8.40656 4.69275 9.02321 4.49805 9.67339C4.30334 10.3236 4.26338 10.9872 4.38171 11.6054L4.73826 13.4363C4.77795 13.6424 4.76483 13.8637 4.70006 14.0806C4.6353 14.2974 4.5209 14.5032 4.36701 14.6795L2.99462 16.2516M13.7265 5.79865L16.9986 2.05046C17.2465 1.76643 17.5805 1.57735 17.927 1.52481C18.2736 1.47227 18.6043 1.56056 18.8464 1.77028C19.0885 1.97999 19.2222 2.29395 19.2181 2.64307C19.214 2.9922 19.0724 3.3479 18.8245 3.63192L15.5524 7.38011M18.3564 4.16775C18.6043 3.88373 18.9383 3.69465 19.2848 3.64211C19.6313 3.58956 19.962 3.67786 20.2042 3.88758C20.4463 4.09729 20.58 4.41124 20.5759 4.76037C20.5718 5.1095 20.4302 5.46519 20.1822 5.74922L18.7799 7.35558M16.9106 9.49805L18.7804 7.35623C19.0283 7.07221 19.3623 6.88313 19.7088 6.83058C20.0554 6.77804 20.3861 6.86634 20.6282 7.07605C20.8703 7.28577 21.004 7.59972 20.9999 7.94885C20.9958 8.29797 20.8542 8.65367 20.6062 8.93769L13.3217 17.2822C12.8872 17.7811 12.3598 18.1879 11.7811 18.4704L10.1733 19.2506C9.98013 19.3445 9.80403 19.48 9.65896 19.6464L8.47728 21" stroke="#A97398" stroke-linecap="round" stroke-linejoin="round"/>
</svg>
