<svg width="20" height="20" viewBox="0 0 20 20" fill="none" xmlns="http://www.w3.org/2000/svg">
<path d="M7.68124 19.1666C7.5723 19.1663 7.4671 19.1277 7.38484 19.0579C7.2902 18.9803 7.23042 18.8695 7.2183 18.7493C7.20618 18.6291 7.24269 18.509 7.32001 18.4148L9.39477 16.0869C9.56653 15.8901 9.77774 15.7298 10.0153 15.6159L11.5066 14.9094C11.9942 14.6725 12.4287 14.343 12.7848 13.9402L17.9161 8.19751C18.0685 8.02863 18.1596 7.81532 18.1754 7.59063C18.1781 7.50808 18.163 7.4259 18.1311 7.34944C18.0992 7.27297 18.0512 7.20393 17.9902 7.14679C17.9231 7.09481 17.8454 7.05741 17.7624 7.03711C17.6793 7.0168 17.5928 7.01405 17.5086 7.02904C17.2827 7.07205 17.0776 7.18665 16.925 7.35512L14.628 9.95473C14.5469 10.046 14.4321 10.1021 14.3088 10.1106C14.1854 10.1191 14.0637 10.0793 13.9703 10C13.877 9.92075 13.8197 9.80845 13.811 9.68785C13.8023 9.56724 13.843 9.4482 13.924 9.35691L17.5086 5.30805C17.6663 5.14329 17.7555 4.92687 17.7586 4.70117C17.7613 4.61862 17.7462 4.53645 17.7143 4.45998C17.6824 4.38351 17.6344 4.31447 17.5734 4.25733C17.5068 4.20471 17.4288 4.16758 17.3454 4.14875C17.2619 4.12992 17.1752 4.12988 17.0917 4.14864C16.8892 4.19809 16.7097 4.313 16.5823 4.47472L13.3868 8.09787C13.3049 8.18775 13.1903 8.24279 13.0674 8.25125C12.9446 8.25971 12.8232 8.22093 12.7292 8.14316C12.6373 8.06302 12.581 7.95094 12.5724 7.83081C12.5637 7.71068 12.6034 7.592 12.6829 7.50005L16.2859 3.38778C16.4586 3.23241 16.5645 3.01875 16.5823 2.78996C16.5908 2.70765 16.5793 2.62456 16.5487 2.54743C16.5181 2.47031 16.4693 2.40133 16.4063 2.34612C16.3398 2.29307 16.2622 2.25501 16.179 2.23466C16.0957 2.21431 16.0089 2.21216 15.9247 2.22837C15.6953 2.26179 15.4871 2.37815 15.3412 2.55446L11.6918 6.60332C11.6527 6.64858 11.6048 6.68574 11.5508 6.71259C11.4968 6.73944 11.4378 6.75545 11.3774 6.75967C11.317 6.76389 11.2563 6.75624 11.1989 6.73716C11.1416 6.71809 11.0887 6.68798 11.0435 6.64861C10.958 6.56243 10.9102 6.4471 10.9102 6.32706C10.9102 6.20702 10.958 6.09169 11.0435 6.0055L13.7758 2.92583C13.9315 2.76338 14.0205 2.55056 14.0259 2.32801C14.0304 2.24524 14.0162 2.16253 13.9842 2.08579C13.9521 2.00905 13.9031 1.9402 13.8407 1.88417C13.7721 1.82209 13.6886 1.77793 13.5979 1.75576C13.5073 1.7336 13.4124 1.73415 13.322 1.75736C13.0926 1.79078 12.8844 1.90714 12.7385 2.08345L7.70902 7.74461C7.70902 7.74461 7.52995 7.95931 7.39408 7.98933C7.32615 8.00433 7.25563 8.00416 7.18777 7.98883C7.11992 7.97349 7.05647 7.94339 7.00216 7.90076C6.94784 7.85813 6.90406 7.80407 6.87407 7.7426C6.84408 7.68113 6.82865 7.61384 6.82893 7.54573C6.82949 7.40952 7.00509 7.19208 7.00509 7.19208L8.67231 5.27182C8.83043 5.09573 8.92197 4.87192 8.93165 4.63776C8.93907 4.55232 8.92536 4.46638 8.89167 4.38721C8.85798 4.30804 8.80531 4.23796 8.73809 4.18288C8.67088 4.12781 8.5911 4.08937 8.50549 4.07079C8.41988 4.05222 8.33096 4.05407 8.24624 4.07618C8.02036 4.11918 7.81528 4.23379 7.66271 4.40226L5.31935 7.19208C4.92154 7.58392 4.60678 8.04873 4.39312 8.55982C4.33264 8.93251 4.36117 9.31383 4.47648 9.67394L4.87476 11.3678C4.96584 11.6611 4.98308 11.9716 4.92502 12.2728C4.86697 12.574 4.73533 12.8571 4.54131 13.0978L3.05934 14.8188C2.97867 14.91 2.86473 14.9668 2.74185 14.9769C2.61897 14.9871 2.4969 14.9498 2.40172 14.8732C2.35478 14.8356 2.31601 14.7892 2.28772 14.7367C2.25942 14.6842 2.24218 14.6267 2.237 14.5676C2.23181 14.5085 2.2388 14.449 2.25755 14.3925C2.2763 14.3361 2.30643 14.2839 2.34615 14.2391L3.80959 12.5362C3.92003 12.3985 3.99179 12.235 4.01778 12.0618C4.04377 11.8887 4.02309 11.7119 3.95779 11.5489L3.55025 9.83698C3.39337 9.32815 3.37422 8.78821 3.49467 8.26997C3.72367 7.65848 4.08008 7.1002 4.54131 6.6305L6.08812 4.81892C6.19067 4.65203 6.24509 4.4611 6.24558 4.26639C6.24777 4.18352 6.23055 4.10126 6.19523 4.0259C6.15991 3.95055 6.10743 3.88409 6.04181 3.83161C5.97442 3.78055 5.89608 3.74505 5.81267 3.7278C5.72926 3.71054 5.64293 3.71197 5.56017 3.73198C5.33473 3.77428 5.13338 3.89694 4.99517 4.07618L3.14271 6.5218C2.77314 6.95864 2.50456 7.46848 2.35541 8.01635C2.23077 8.52239 2.23077 9.05014 2.35541 9.55619L2.79074 11.1323C2.86878 11.3933 2.87295 11.6702 2.80282 11.9334C2.73268 12.1965 2.59086 12.4362 2.39246 12.6268L1.65147 13.5326C1.61133 13.5778 1.56248 13.6148 1.50771 13.6416C1.45294 13.6683 1.39332 13.6842 1.33225 13.6884C1.27119 13.6926 1.20987 13.685 1.15181 13.6661C1.09374 13.6471 1.04007 13.6171 0.993849 13.5779C0.947628 13.5386 0.909766 13.4909 0.882424 13.4373C0.855082 13.3837 0.838796 13.3254 0.834495 13.2657C0.830195 13.206 0.837964 13.146 0.85736 13.0892C0.876756 13.0325 0.907398 12.98 0.947538 12.9348L1.65147 12.1558C1.86451 11.9022 1.98492 11.7391 1.88303 11.4221L1.43844 9.78263C1.27659 9.13088 1.27659 8.45071 1.43844 7.79896C1.6143 7.13843 1.92983 6.52129 2.36467 5.98739L4.30049 3.56894C4.58445 3.19452 5.00026 2.93634 5.46755 2.84431C5.68295 2.80225 5.90505 2.80553 6.11905 2.85395C6.33306 2.90237 6.53406 2.9948 6.7087 3.1251C6.89679 3.28159 7.04304 3.48057 7.13476 3.7048C7.42054 3.42919 7.78582 3.24584 8.1814 3.17945C8.39718 3.1463 8.6177 3.15822 8.82843 3.21442C9.03916 3.27063 9.23533 3.36984 9.40403 3.50553C9.57837 3.66098 9.71452 3.85296 9.80231 4.06712L12.0345 1.49469C12.3233 1.14933 12.7323 0.92033 13.1831 0.851577C13.3988 0.818429 13.6193 0.830349 13.8301 0.886553C14.0408 0.942756 14.237 1.04197 14.4057 1.17766C14.5829 1.33065 14.7195 1.52334 14.804 1.73925C15.0657 1.5151 15.3867 1.36756 15.7302 1.31353C15.946 1.27737 16.1672 1.28782 16.3784 1.34415C16.5896 1.40048 16.7857 1.50133 16.9528 1.63961C17.129 1.77923 17.2706 1.95609 17.3668 2.15691C17.4631 2.35772 17.5115 2.57726 17.5086 2.79902C17.5104 2.94637 17.4885 3.0931 17.4437 3.2338C17.7468 3.26801 18.0332 3.38759 18.2681 3.57799C18.4315 3.71913 18.561 3.89377 18.6475 4.08948C18.7339 4.28519 18.7751 4.49714 18.7682 4.71023C18.7585 5.15052 18.5914 5.57356 18.2958 5.90587L18.055 6.15949C18.2779 6.21389 18.4843 6.31946 18.6571 6.46745C18.8202 6.6093 18.9501 6.78386 19.038 6.97925C19.1259 7.17463 19.1698 7.38625 19.1665 7.59969C19.1585 8.03926 18.9873 8.461 18.6849 8.78627L13.5443 14.538C13.1014 15.0354 12.5592 15.4392 11.9512 15.7246L10.4599 16.4311C10.3314 16.4912 10.2177 16.5777 10.1265 16.6847L8.03321 19.0126C7.98855 19.0606 7.93423 19.099 7.87367 19.1255C7.8131 19.152 7.74759 19.166 7.68124 19.1666Z" fill="currentColor"/>
</svg>
