<svg width="20" height="20" viewBox="0 0 20 20" fill="none" xmlns="http://www.w3.org/2000/svg">
<path d="M4.26216 6.47904L5.91695 4.56242C6.0706 4.37703 6.15757 4.14826 6.16468 3.91077C6.16303 3.82371 6.14283 3.73792 6.10531 3.65877C6.0678 3.57962 6.0138 3.50881 5.94668 3.45078C5.87424 3.39737 5.79044 3.3602 5.70132 3.34197C5.6122 3.32373 5.52001 3.32489 5.43141 3.34537C5.18926 3.39442 4.97216 3.52311 4.81706 3.70952L2.83527 6.23946C2.42609 6.70054 2.12822 7.24396 1.96328 7.83026C1.82995 8.36564 1.82995 8.924 1.96328 9.45938L2.38937 10.9639C2.52722 11.2983 2.57165 11.6618 2.51818 12.0181C2.37761 12.3075 2.194 12.5755 1.97319 12.8135L1.11111 13.7047L1.9831 14.433L3.14245 13.1393C3.35458 12.926 3.52273 12.6756 3.6379 12.4014C3.72171 12.1033 3.72171 11.7891 3.6379 11.491L3.23163 9.74688C3.07814 9.22921 3.05773 8.68312 3.17217 8.15608C3.42449 7.53351 3.79408 6.96162 4.26216 6.46946" fill="currentColor"/>
<path d="M4.44055 13.0528C4.5825 12.8703 4.67875 12.6586 4.72174 12.4341C4.76472 12.2096 4.75327 11.9785 4.68827 11.759L4.25228 9.92866C4.08056 9.42494 4.04643 8.88685 4.15319 8.36661C4.42989 7.73834 4.82657 7.16614 5.32245 6.67999L7.69068 4.05422C7.85087 3.87241 8.07166 3.75039 8.31495 3.70922C8.40493 3.68766 8.49893 3.6871 8.58918 3.7076C8.67943 3.72809 8.76335 3.76904 8.83401 3.82708C8.90467 3.88512 8.96005 3.95858 8.99557 4.0414C9.03109 4.12421 9.04574 4.21401 9.0383 4.30338C9.02942 4.54392 8.93491 4.77411 8.77076 4.95503L6.95742 6.93873C6.91448 6.98655 6.8817 7.04209 6.86095 7.10216C6.8402 7.16223 6.83189 7.22567 6.83649 7.28885C6.84109 7.35204 6.85851 7.41372 6.88776 7.47039C6.91701 7.52706 6.95752 7.5776 7.00697 7.61913C7.05642 7.66066 7.11384 7.69236 7.17595 7.71243C7.23807 7.7325 7.30367 7.74054 7.369 7.73609C7.43433 7.73164 7.49811 7.71479 7.5567 7.6865C7.6153 7.65821 7.66756 7.61904 7.7105 7.57122L13.2001 1.47636C13.352 1.2883 13.5711 1.16186 13.8144 1.12179C13.9045 1.10529 13.9972 1.10789 14.0862 1.1294C14.1751 1.1509 14.2582 1.19081 14.3297 1.24637C14.396 1.30605 14.448 1.37897 14.4822 1.46005C14.5164 1.54114 14.532 1.62845 14.5279 1.71594C14.5221 1.9514 14.4268 2.17656 14.2603 2.34842L11.2876 5.65459C11.2415 5.69832 11.2048 5.7505 11.1798 5.80809C11.1548 5.86569 11.1419 5.92753 11.1419 5.99C11.1419 6.05247 11.1548 6.11432 11.1798 6.17191C11.2048 6.22951 11.2415 6.28169 11.2876 6.32541C11.3819 6.41382 11.5081 6.46325 11.6394 6.46325C11.7707 6.46325 11.8969 6.41382 11.9912 6.32541L15.9746 1.9651C16.1348 1.78329 16.3555 1.66128 16.5988 1.62011C16.6873 1.60237 16.7788 1.60436 16.8664 1.62595C16.9539 1.64754 17.0353 1.68815 17.1042 1.74469C17.1705 1.80437 17.2225 1.87729 17.2567 1.95837C17.291 2.03946 17.3065 2.12677 17.3024 2.21426C17.2781 2.45909 17.1575 2.68554 16.9655 2.84675L13.0019 7.20706C12.9345 7.30412 12.9061 7.42167 12.9221 7.53756C12.9381 7.65345 12.9974 7.75968 13.0887 7.83625C13.1801 7.91283 13.2972 7.95445 13.4181 7.95329C13.539 7.95213 13.6553 7.90827 13.745 7.82996L17.1934 3.99672C17.347 3.81224 17.5659 3.68934 17.8077 3.65173C17.8977 3.63318 17.991 3.63476 18.0803 3.65635C18.1696 3.67794 18.2526 3.71897 18.323 3.77631C18.3898 3.83558 18.4422 3.90843 18.4765 3.98961C18.5107 4.0708 18.526 4.15832 18.5212 4.24588C18.5154 4.48134 18.4201 4.7065 18.2536 4.87836L14.29 9.23868C14.2379 9.28414 14.1964 9.33979 14.1682 9.40195C14.14 9.46411 14.1258 9.53135 14.1265 9.59923C14.1272 9.6671 14.1428 9.73406 14.1722 9.79566C14.2017 9.85726 14.2444 9.91211 14.2974 9.95657C14.3504 10.001 14.4126 10.0341 14.4799 10.0535C14.5471 10.073 14.6179 10.0784 14.6874 10.0694C14.757 10.0604 14.8238 10.0373 14.8834 10.0014C14.943 9.9656 14.9941 9.91793 15.0332 9.86158L17.56 7.05373C17.7197 6.8696 17.9402 6.74437 18.1843 6.69915C18.2728 6.68585 18.3633 6.69003 18.4501 6.71144C18.537 6.73285 18.6184 6.77105 18.6896 6.82373C18.757 6.88258 18.8098 6.95536 18.8441 7.03665C18.8784 7.11794 18.8933 7.20567 18.8878 7.29331C18.8844 7.53209 18.789 7.76107 18.6202 7.93537L13.0316 14.1261C12.6549 14.5565 12.1891 14.9058 11.6642 15.1515L10.0688 15.8989C9.81464 16.0194 9.58869 16.189 9.40493 16.3973L7.14569 18.8889L2.54794 15.0556L4.44055 13.0528Z" fill="currentColor"/>
</svg>
