<svg width="24" height="24" viewBox="0 0 24 24" fill="none" xmlns="http://www.w3.org/2000/svg">
<path fill-rule="evenodd" clip-rule="evenodd" d="M18.5332 9.48075C18.4865 10.4928 18.4225 11.7955 18.3599 13.0942C18.2959 14.3942 18.2332 15.6903 18.1879 16.6863C18.1639 17.185 18.1465 17.609 18.1345 17.9223C18.1279 18.0823 18.1239 18.2223 18.1212 18.3303C17.4359 18.5877 16.6118 18.705 15.7331 18.749C14.8078 18.7957 13.8878 18.7677 13.0451 18.7717C9.56097 18.7903 6.71955 18.5983 3.23546 18.2637C2.90212 18.2303 2.74078 18.1903 2.63544 18.0823C2.56344 18.0063 2.53944 17.953 2.5221 17.885C2.51277 17.841 2.50477 17.7876 2.49544 17.7103C2.48744 17.641 2.47677 17.5343 2.46344 17.4316C1.85009 12.6195 1.63008 8.12338 2.63944 3.46058C2.67678 3.28857 2.71544 3.13924 2.76744 3.0179C2.82078 2.89523 2.86878 2.8499 2.89145 2.83523H2.89278C2.94745 2.80056 3.00345 2.75923 3.04612 2.72723C3.09545 2.69122 3.13545 2.66189 3.17546 2.63389C3.21146 2.60989 3.23412 2.59656 3.25146 2.58722C5.05551 2.50055 6.75289 2.51122 8.46227 2.52322C10.181 2.53389 11.9157 2.54589 13.7651 2.45522C14.4011 2.42322 14.8011 2.37788 15.1745 2.34588C15.5451 2.31255 15.9118 2.29121 16.5158 2.30188H16.5172C16.6158 2.30455 16.7638 2.29121 16.8958 2.28188C17.0438 2.26855 17.2065 2.25521 17.3705 2.24588C17.5359 2.23521 17.6892 2.23121 17.8159 2.23788C17.8625 2.23921 17.8839 2.24321 17.9119 2.24721C17.9439 2.32188 17.9812 2.42588 18.0225 2.56589C18.1119 2.87123 18.2079 3.27924 18.2932 3.70325C18.4705 4.56861 18.5986 5.42863 18.6026 5.60331C18.6039 5.68997 18.6106 5.79531 18.6159 5.89931C18.6226 6.00732 18.6279 6.11932 18.6319 6.22866C18.6399 6.466 18.5932 7.49936 18.6026 7.65136C18.6052 7.77137 18.5799 8.46072 18.5332 9.48075ZM20.7255 9.59544C20.7188 9.14076 20.6975 8.73541 20.6642 8.37274C20.6762 7.97539 20.6775 7.50071 20.6722 7.02603C20.6615 6.06601 20.6255 5.07664 20.5895 4.76597C20.5508 4.44863 20.3228 3.38726 20.0481 2.40857C19.9108 1.91522 19.7561 1.42454 19.6028 1.0472C19.5255 0.860528 19.4415 0.683189 19.3535 0.543185C19.3095 0.47385 19.2535 0.399181 19.1854 0.333846C19.1228 0.273845 19.0094 0.185842 18.8468 0.157841C17.5201 -0.0648315 16.1814 -0.00349646 14.9093 0.0525051C10.7972 0.23651 6.6851 0.421849 2.57165 0.605854C2.39031 0.613854 2.0703 0.621854 1.7783 0.789859H1.77696C1.49429 0.953864 1.32095 1.21254 1.20761 1.44721C1.09428 1.68455 1.01961 1.94456 0.963606 2.16456C0.524927 3.87794 0.234252 5.64466 0.0982485 7.42871C-0.119091 10.2901 0.0622475 13.1662 0.275587 15.9929C0.328922 16.6996 0.38759 17.441 0.540928 18.165C0.670264 18.7797 0.898271 19.4917 1.39295 19.9851C2.02097 20.6104 2.88233 20.6944 3.51168 20.7451C5.68907 20.9238 7.86913 21.0024 10.0359 21.0784C12.8733 21.1798 15.8107 21.2838 18.6788 20.6317C18.7028 20.6264 18.7374 20.6224 18.8001 20.6171C18.8494 20.6144 18.9414 20.6091 19.0188 20.6011C19.1774 20.5851 19.4241 20.5477 19.6401 20.3851C19.7468 20.3051 19.8241 20.1984 19.8761 20.1171C19.9321 20.0291 19.9828 19.9304 20.0255 19.8357C20.1041 19.6571 20.1828 19.4264 20.1948 19.241C20.2068 19.037 20.2735 18.2837 20.3588 17.2197C20.4428 16.165 20.5442 14.8196 20.6175 13.4595C20.6935 12.1022 20.7428 10.7221 20.7255 9.59544Z" fill="#3CC8E6"/>
<path fill-rule="evenodd" clip-rule="evenodd" d="M23.9965 13.3182C23.9899 12.8995 23.9685 12.5261 23.9365 12.1901C23.9485 11.8235 23.9499 11.3874 23.9445 10.9514C23.9352 10.0674 23.8992 9.15271 23.8619 8.86337C23.8245 8.56603 23.5992 7.58467 23.3312 6.68198C23.1965 6.2273 23.0445 5.77395 22.8925 5.42327C22.8178 5.2486 22.7352 5.08326 22.6445 4.95259C22.6005 4.88593 22.5445 4.81526 22.4765 4.75392C22.4125 4.69525 22.3018 4.61525 22.1445 4.58992C21.6085 4.50592 21.0738 4.47525 20.5378 4.46191C20.5631 4.59125 20.5804 4.69792 20.5884 4.76592C20.6258 5.0766 20.6618 6.06729 20.6725 7.02599C20.6778 7.50067 20.6765 7.97535 20.6645 8.37269C20.6965 8.73537 20.7191 9.14071 20.7258 9.59539C20.7431 10.7221 20.6925 12.1021 20.6178 13.4595C20.5431 14.8195 20.4431 16.1649 20.3578 17.2196C20.2738 18.285 20.2058 19.037 20.1938 19.241C20.1831 19.4263 20.1044 19.657 20.0244 19.8357C19.9818 19.9303 19.9311 20.029 19.8751 20.1183C19.8231 20.1984 19.7458 20.305 19.6391 20.385C19.4231 20.5477 19.1777 20.585 19.0191 20.601C18.9417 20.609 18.8497 20.6144 18.8004 20.6184C18.7377 20.6237 18.7017 20.6264 18.6791 20.6317C15.8096 21.285 12.8722 21.1797 10.0362 21.0784C8.07877 21.009 6.11205 20.929 4.14532 20.7864C4.16933 20.9317 4.18933 21.0784 4.22133 21.225C4.34933 21.7944 4.576 22.4611 5.06802 22.9224C5.6867 23.5011 6.52672 23.5771 7.14007 23.6238C9.2708 23.7891 11.4042 23.8598 13.5256 23.9318C16.3017 24.0238 19.1751 24.1211 21.9792 23.5211H21.9805C22.0045 23.5158 22.0392 23.5118 22.1005 23.5078C22.1498 23.5038 22.2405 23.4998 22.3138 23.4918C22.4685 23.4771 22.7072 23.4438 22.9192 23.2918C23.0259 23.2171 23.1045 23.1171 23.1565 23.0398C23.2125 22.9571 23.2645 22.8638 23.3059 22.7744C23.3845 22.6091 23.4659 22.3891 23.4765 22.2077C23.4885 22.0197 23.5539 21.3277 23.6365 20.3464C23.7205 19.3743 23.8179 18.1343 23.8912 16.8823C23.9659 15.6302 24.0139 14.3569 23.9965 13.3182Z" fill="#B2ECF7"/>
</svg>
