<svg width="24" height="24" viewBox="0 0 24 24" fill="none" xmlns="http://www.w3.org/2000/svg">
<path fill-rule="evenodd" clip-rule="evenodd" d="M18.5332 9.48075C18.4865 10.4928 18.4225 11.7955 18.3598 13.0942C18.2958 14.3942 18.2331 15.6903 18.1878 16.6863C18.1638 17.185 18.1465 17.609 18.1345 17.9223C18.1278 18.0823 18.1238 18.2223 18.1211 18.3303C17.4358 18.5877 16.6118 18.705 15.7331 18.749C14.8077 18.7957 13.8877 18.7677 13.045 18.7717C9.56091 18.7903 6.71949 18.5983 3.2354 18.2637C2.90205 18.2303 2.74072 18.1903 2.63538 18.0823C2.56338 18.0063 2.53938 17.953 2.52204 17.885C2.51271 17.841 2.50471 17.7876 2.49538 17.7103C2.48738 17.641 2.47671 17.5343 2.46338 17.4316C1.85002 12.6195 1.63002 8.12338 2.63938 3.46058C2.67671 3.28857 2.71538 3.13924 2.76738 3.0179C2.82072 2.89523 2.86872 2.8499 2.89139 2.83523H2.89272C2.94739 2.80056 3.00339 2.75923 3.04606 2.72723C3.09539 2.69122 3.13539 2.66189 3.1754 2.63389C3.2114 2.60989 3.23406 2.59656 3.2514 2.58722C5.05545 2.50055 6.75283 2.51122 8.46221 2.52322C10.1809 2.53389 11.9156 2.54589 13.765 2.45522C14.401 2.42322 14.8011 2.37788 15.1744 2.34588C15.5451 2.31255 15.9117 2.29121 16.5158 2.30188H16.5171C16.6158 2.30455 16.7638 2.29121 16.8958 2.28188C17.0438 2.26855 17.2065 2.25521 17.3705 2.24588C17.5358 2.23521 17.6891 2.23121 17.8158 2.23788C17.8625 2.23921 17.8838 2.24321 17.9118 2.24721C17.9438 2.32188 17.9811 2.42588 18.0225 2.56589C18.1118 2.87123 18.2078 3.27924 18.2931 3.70325C18.4705 4.56861 18.5985 5.42863 18.6025 5.60331C18.6038 5.68997 18.6105 5.79531 18.6158 5.89931C18.6225 6.00732 18.6278 6.11932 18.6318 6.22866C18.6398 6.466 18.5932 7.49936 18.6025 7.65136C18.6052 7.77137 18.5798 8.46072 18.5332 9.48075ZM20.7254 9.59544C20.7188 9.14076 20.6974 8.73541 20.6641 8.37274C20.6761 7.97539 20.6774 7.50071 20.6721 7.02603C20.6614 6.06601 20.6254 5.07664 20.5894 4.76597C20.5508 4.44863 20.3228 3.38726 20.0481 2.40857C19.9107 1.91522 19.7561 1.42454 19.6027 1.0472C19.5254 0.860528 19.4414 0.683189 19.3534 0.543185C19.3094 0.47385 19.2534 0.399181 19.1854 0.333846C19.1227 0.273845 19.0094 0.185842 18.8467 0.157841C17.52 -0.0648315 16.1813 -0.00349646 14.9093 0.0525051C10.7972 0.23651 6.68504 0.421849 2.57159 0.605854C2.39025 0.613854 2.07024 0.621854 1.77823 0.789859H1.7769C1.49423 0.953864 1.32089 1.21254 1.20755 1.44721C1.09422 1.68455 1.01955 1.94456 0.963545 2.16456C0.524866 3.87794 0.234191 5.64466 0.0981875 7.42871C-0.119152 10.2901 0.0621865 13.1662 0.275526 15.9929C0.328861 16.6996 0.387529 17.441 0.540866 18.165C0.670203 18.7797 0.89821 19.4917 1.39289 19.9851C2.02091 20.6104 2.88227 20.6944 3.51162 20.7451C5.68901 20.9238 7.86907 21.0024 10.0358 21.0784C12.8732 21.1798 15.8106 21.2838 18.6787 20.6317C18.7027 20.6264 18.7374 20.6224 18.8 20.6171C18.8494 20.6144 18.9414 20.6091 19.0187 20.6011C19.1774 20.5851 19.4241 20.5477 19.6401 20.3851C19.7467 20.3051 19.8241 20.1984 19.8761 20.1171C19.9321 20.0291 19.9827 19.9304 20.0254 19.8357C20.1041 19.6571 20.1827 19.4264 20.1947 19.241C20.2067 19.037 20.2734 18.2837 20.3588 17.2197C20.4428 16.165 20.5441 14.8196 20.6174 13.4595C20.6934 12.1022 20.7428 10.7221 20.7254 9.59544Z" fill="#B4B6BA"/>
<path fill-rule="evenodd" clip-rule="evenodd" d="M23.9965 13.3182C23.9898 12.8995 23.9685 12.5261 23.9365 12.1901C23.9485 11.8235 23.9498 11.3874 23.9445 10.9514C23.9351 10.0674 23.8991 9.15271 23.8618 8.86337C23.8245 8.56603 23.5991 7.58467 23.3311 6.68198C23.1965 6.2273 23.0445 5.77395 22.8925 5.42327C22.8178 5.2486 22.7351 5.08326 22.6444 4.95259C22.6004 4.88593 22.5444 4.81526 22.4764 4.75392C22.4124 4.69525 22.3018 4.61525 22.1444 4.58992C21.6084 4.50592 21.0737 4.47525 20.5377 4.46191C20.5631 4.59125 20.5804 4.69792 20.5884 4.76592C20.6257 5.0766 20.6617 6.06729 20.6724 7.02599C20.6777 7.50067 20.6764 7.97535 20.6644 8.37269C20.6964 8.73537 20.7191 9.14071 20.7257 9.59539C20.7431 10.7221 20.6924 12.1021 20.6177 13.4595C20.5431 14.8195 20.4431 16.1649 20.3577 17.2196C20.2737 18.285 20.2057 19.037 20.1937 19.241C20.183 19.4263 20.1044 19.657 20.0244 19.8357C19.9817 19.9303 19.931 20.029 19.875 20.1183C19.823 20.1984 19.7457 20.305 19.639 20.385C19.423 20.5477 19.1777 20.585 19.019 20.601C18.9417 20.609 18.8497 20.6144 18.8003 20.6184C18.7377 20.6237 18.7017 20.6264 18.679 20.6317C15.8096 21.285 12.8722 21.1797 10.0361 21.0784C8.07871 21.009 6.11199 20.929 4.14526 20.7864C4.16926 20.9317 4.18926 21.0784 4.22127 21.225C4.34927 21.7944 4.57594 22.4611 5.06796 22.9224C5.68664 23.5011 6.52666 23.5771 7.14001 23.6238C9.27074 23.7891 11.4041 23.8598 13.5255 23.9318C16.3016 24.0238 19.175 24.1211 21.9791 23.5211H21.9804C22.0044 23.5158 22.0391 23.5118 22.1004 23.5078C22.1498 23.5038 22.2404 23.4998 22.3138 23.4918C22.4684 23.4771 22.7071 23.4438 22.9191 23.2918C23.0258 23.2171 23.1045 23.1171 23.1565 23.0398C23.2125 22.9571 23.2645 22.8638 23.3058 22.7744C23.3845 22.6091 23.4658 22.3891 23.4765 22.2077C23.4885 22.0197 23.5538 21.3277 23.6365 20.3464C23.7205 19.3743 23.8178 18.1343 23.8911 16.8823C23.9658 15.6302 24.0138 14.3569 23.9965 13.3182Z" fill="#ECEEF2"/>
<path fill-rule="evenodd" clip-rule="evenodd" d="M10.1681 11.3472C10.4378 11.579 10.761 11.8186 11.1639 11.8314C14.7509 7.94628 17.588 4.89507 21.5256 1.21881C22.0448 0.734163 22.6089 0.228808 23.3832 0.0355595C23.5285 -0.000687283 23.6964 -0.0230451 23.8266 0.0384728C24.0231 0.131269 24.0203 0.350782 23.9739 0.525173C23.7428 1.39342 23.042 2.13575 22.3593 2.84774C21.1289 4.13079 19.8986 5.41384 18.6683 6.69688C16.2218 9.2482 14.6988 11.0731 12.6706 13.8351C12.2872 14.3572 11.7957 14.9511 11.0218 14.9973C10.5235 15.0271 10.0482 14.8039 9.71859 14.5132C9.38898 14.2225 9.17372 13.8672 8.92866 13.5303C8.20042 12.5288 7.18941 11.6687 6.13772 10.8573C5.63391 10.4686 5.08799 10.0425 5.00855 9.49549C4.92973 8.95283 5.40435 8.39276 6.07907 8.23219C6.75379 8.07162 7.55329 8.32851 7.8824 8.81159L10.1681 11.3472Z" fill="#B4B6BA"/>
</svg>
