<svg width="18" height="19" viewBox="0 0 18 19" fill="none" xmlns="http://www.w3.org/2000/svg">
<path fill-rule="evenodd" clip-rule="evenodd" d="M17.8952 10.854L17.7792 10.685C17.5852 10.415 17.2972 10.224 16.8972 10.099C16.6772 10.032 16.4522 9.985 16.2262 9.939L15.9002 9.87C15.6432 9.813 15.3842 9.758 15.1242 9.721C14.9962 9.703 14.8632 9.705 14.7322 9.71C14.6842 9.712 14.6342 9.713 14.5862 9.713C14.5382 9.713 14.4852 9.71 14.4612 9.708C14.4612 9.708 14.4752 9.637 14.4752 9.636C14.5412 9.258 14.5212 8.772 14.4432 8.397L14.4002 8.166C14.3752 8.027 14.3502 7.888 14.3172 7.742C14.2742 7.559 14.2302 7.371 14.1532 7.184C14.0412 6.909 13.9112 6.64 13.7792 6.375C13.2872 5.39 12.5012 4.759 11.7572 3.987C11.5832 3.806 11.4302 3.682 11.2642 3.585C10.8112 3.322 10.3512 3.059 9.85218 2.891C9.52718 2.783 9.18918 2.755 8.84918 2.731C8.34618 2.696 7.94318 2.684 7.44518 2.788C7.30918 2.816 7.17318 2.857 7.04218 2.907C6.62218 3.069 6.16418 3.211 5.76518 3.419C5.37418 3.622 5.07518 3.967 4.79618 4.298C4.12218 5.097 3.71518 5.851 3.53218 6.882L3.49718 7.073C3.31218 8.111 3.30718 9.178 3.46518 10.219C3.62018 11.235 3.98118 12.139 4.34018 13.092C4.38018 13.199 4.43018 13.333 4.42018 13.412C4.38718 13.642 4.08218 13.899 3.95818 14.092C3.79118 14.354 3.65418 14.638 3.44418 14.873C3.30218 15.03 3.13018 15.161 2.98918 15.321C2.75918 15.583 2.67418 15.91 2.82918 16.232C3.12318 16.847 4.09818 16.606 4.65318 16.528C5.56918 16.399 6.48518 16.198 7.38618 16C7.54018 15.966 7.69318 15.929 7.84718 15.891L8.92118 15.629C9.00218 15.612 9.08318 15.594 9.16518 15.569C10.0392 15.292 10.9872 15.117 11.8202 14.731C11.8942 14.697 11.9652 14.664 12.0432 14.635C12.2492 14.56 12.4572 14.49 12.6652 14.421L13.7082 14.056C14.5112 13.768 15.3202 13.427 16.0822 13.041C16.2562 12.947 16.4292 12.852 16.6022 12.756L17.0052 12.535C17.4632 12.284 18.2912 11.414 17.8952 10.854ZM16.1872 11.317C16.1392 11.353 16.0902 11.389 16.0412 11.425C14.8092 12.294 13.4332 12.781 11.9762 13.296L11.6672 13.405C11.1872 13.575 10.6772 13.667 10.2112 13.878C10.1272 13.917 10.0432 13.956 9.95818 13.984C9.85118 14.02 9.73818 14.046 9.62518 14.074C9.15418 14.19 8.64517 14.333 8.16718 14.477L8.06618 14.508C7.89818 14.549 7.72818 14.59 7.55818 14.63L7.20018 14.712C6.60018 14.849 5.85318 15.221 5.22918 15.149C5.09218 15.133 4.97318 15.168 4.86718 15.197C4.83018 15.208 4.79518 15.217 4.75918 15.224C5.17118 14.6 5.57118 14.064 5.97918 13.586C6.15318 13.385 6.11018 13.174 6.08318 13.046C6.01518 12.696 5.73818 12.494 5.51518 12.334C5.33118 12.199 5.20918 11.74 5.13018 11.436C5.10318 11.336 5.08018 11.244 5.05518 11.166C4.83118 10.445 4.71618 9.663 4.69418 8.897C4.67318 8.148 4.65618 7.28 4.90318 6.562C4.95718 6.4 5.04018 6.245 5.12018 6.089C5.18218 5.97 5.24318 5.851 5.29518 5.73C5.33418 5.639 5.40518 5.549 5.47818 5.454C5.52618 5.392 5.57318 5.33 5.61518 5.266C5.74818 5.067 5.93118 4.898 6.12418 4.718L6.24018 4.61C7.40618 3.521 9.41918 3.727 10.6422 4.592C10.7512 4.67 10.8432 4.767 10.9362 4.863C10.9832 4.912 11.0282 4.96 11.0782 5.007L11.2082 5.133C11.3292 5.249 11.4522 5.364 11.5642 5.488C11.6732 5.609 11.7802 5.734 11.8832 5.859C11.9972 5.993 12.1102 6.128 12.2302 6.258C12.4822 6.533 12.6442 6.865 12.7982 7.21C13.1242 7.932 13.3642 8.849 13.3262 9.647C13.3132 9.925 13.2872 10.206 13.3422 10.478C13.4052 10.778 13.5912 11.103 13.9162 11.165C14.0972 11.198 14.2822 11.168 14.4652 11.151C14.8132 11.12 15.1392 11.164 15.4832 11.196C15.5622 11.204 16.1922 11.314 16.1872 11.317ZM15.4532 4.09C15.8262 3.598 14.9322 2.644 14.5932 2.324C14.3862 2.128 14.1622 1.952 13.9302 1.774C13.9302 1.774 13.7172 1.609 13.7042 1.598C13.0022 1.055 12.2882 0.618 11.4222 0.386C10.5252 0.144 9.53518 0 8.60718 0H8.47718C8.21918 0 7.93318 0.225 7.88018 0.501C7.86418 0.569 7.84118 0.661 7.85818 0.767C7.91518 1.119 8.18718 1.205 8.48818 1.233C8.69918 1.252 8.92318 1.243 9.09618 1.275C9.47118 1.346 9.84618 1.422 10.2172 1.498C10.2632 1.508 10.3062 1.521 10.3502 1.534C10.6732 1.629 11.0092 1.636 11.3332 1.75C11.6932 1.878 12.0312 2.067 12.3492 2.277C12.8862 2.634 13.3802 3.058 13.8162 3.534C14.1162 3.863 14.2582 4.506 14.8292 4.4C15.0152 4.365 15.3342 4.247 15.4532 4.09ZM3.13818 3.986C3.26718 3.838 3.35918 3.679 3.35318 3.493C3.34418 3.237 3.03618 2.873 2.79418 2.789C2.55118 2.704 2.25518 2.869 2.13018 3.005C2.06518 3.076 1.99718 3.145 1.92918 3.214C1.86418 3.28 1.79818 3.347 1.73518 3.416L1.60418 3.553C1.47118 3.691 1.33318 3.835 1.22418 4.004C1.07218 4.238 0.947176 4.485 0.820176 4.737C0.820176 4.737 0.699176 4.977 0.693176 4.99C0.366176 5.639 0.0621759 6.311 0.0151759 7.046C-0.0448241 7.988 0.0751759 9.076 0.338176 9.978L0.374176 10.099C0.438176 10.322 0.712176 10.516 0.995176 10.516C1.01018 10.516 1.02618 10.516 1.04118 10.515C1.11518 10.512 1.20618 10.508 1.29618 10.471C1.86818 10.235 1.53118 9.644 1.50318 9.217C1.45718 8.503 1.35318 7.735 1.44018 7.022C1.51618 6.398 1.80118 5.88 2.07118 5.321C2.12818 5.202 2.18718 5.082 2.26918 4.978C2.30018 4.94 2.33318 4.905 2.36118 4.864C2.38718 4.825 2.40718 4.781 2.42918 4.739C2.56818 4.469 2.91118 4.244 3.13818 3.986ZM9.45518 16.073C8.96218 16.472 9.13418 17.196 9.69018 17.431C9.83418 17.491 9.98518 17.555 10.0912 17.637C10.5282 17.973 11.2132 18.068 11.7462 17.957C12.3062 17.837 12.7302 17.414 13.0242 16.951C13.2002 16.674 13.3512 16.367 13.2692 16.005C13.2592 15.963 13.2452 15.921 13.2122 15.836C13.1472 15.554 12.9932 15.318 12.7572 15.135C12.5432 14.971 12.2112 15.082 12.1752 15.094C11.7212 15.256 11.9312 15.727 11.8022 16.057C11.6822 16.367 11.5502 16.504 11.3182 16.561C11.1632 16.599 11.0332 16.599 10.9172 16.566C10.8462 16.545 10.7782 16.512 10.7082 16.479C10.3422 16.189 10.1562 15.916 9.66018 15.974C9.58318 15.983 9.51418 16.024 9.45518 16.073Z" fill="#3DC7E5"/>
</svg>
