<svg width="24" height="24" viewBox="0 0 24 24" fill="none" xmlns="http://www.w3.org/2000/svg">
<g clip-path="url(#clip0)">
<path d="M13.0679 14.1838L9.27295 14.7268L9.81595 10.9318L19.5739 1.17383C19.7858 0.953024 20.0397 0.776718 20.3206 0.655248C20.6014 0.533778 20.9038 0.469585 21.2098 0.466431C21.5158 0.463276 21.8193 0.521224 22.1027 0.636878C22.386 0.752532 22.6434 0.923567 22.8598 1.13996C23.0762 1.35636 23.2473 1.61377 23.3629 1.8971C23.4786 2.18044 23.5365 2.484 23.5334 2.79002C23.5302 3.09603 23.466 3.39834 23.3445 3.67923C23.2231 3.96012 23.0468 4.21395 22.8259 4.42583L13.0679 14.1838Z" stroke="#B4B6BA" stroke-linecap="round" stroke-linejoin="round"/>
<path d="M12 5.5H2.5C1.96957 5.5 1.46086 5.71071 1.08579 6.08579C0.710714 6.46086 0.5 6.96957 0.5 7.5V21.5C0.5 22.0304 0.710714 22.5391 1.08579 22.9142C1.46086 23.2893 1.96957 23.5 2.5 23.5H16.5C17.0304 23.5 17.5391 23.2893 17.9142 22.9142C18.2893 22.5391 18.5 22.0304 18.5 21.5V12" stroke="#B4B6BA" stroke-linecap="round" stroke-linejoin="round"/>
</g>
<defs>
<clipPath id="clip0">
<rect width="24" height="24" fill="white"/>
</clipPath>
</defs>
</svg>
