<svg width="25" height="25" viewBox="0 0 25 25" fill="none" xmlns="http://www.w3.org/2000/svg">
<path d="M1.7665 19.4877C1.7665 19.4877 2.39072 14.0485 3.52569 12.4075C4.4841 10.7453 6.87967 8.56881 8.57855 9.17368C10.7715 9.95445 10.3236 13.6239 9.767 15.3493C9.19832 16.8777 6.93919 18.3025 6.45563 19.1121C5.99048 19.8909 5.62885 20.8628 5.62885 20.8628M1.7665 19.4877L5.62885 20.8628M1.7665 19.4877C1.7665 19.4877 -0.207911 23.3708 2.18095 24.2214C4.56981 25.0719 5.62885 20.8628 5.62885 20.8628" stroke="#505256" stroke-linecap="round" stroke-linejoin="round"/>
<path d="M19.6099 13.3139C19.6099 13.3139 23.3853 9.31785 23.8976 7.36729C24.543 5.542 24.6329 2.25436 23.0422 1.30725C20.9888 0.0847254 18.4594 2.80169 17.4992 4.35155C16.6988 5.78392 17.0975 8.47976 16.7942 9.38198C16.5024 10.2499 15.9934 11.1607 15.9934 11.1607M19.6099 13.3139L15.9934 11.1607M19.6099 13.3139C19.6099 13.3139 17.9268 17.3699 15.69 16.0382C13.4531 14.7064 15.9934 11.1607 15.9934 11.1607" stroke="#505256" stroke-linecap="round" stroke-linejoin="round"/>
</svg>
