<svg width="24" height="24" viewBox="0 0 24 24" fill="none" xmlns="http://www.w3.org/2000/svg">
<path d="M6.41208 6.5882C6.82367 6.56637 7.21739 6.41305 7.53536 6.15079L9.4118 4.43741C9.72962 4.17491 10.1234 4.02156 10.5351 4H13.4753C13.8833 4.02374 14.2732 4.17696 14.5882 4.43741L16.4646 6.15079C16.7826 6.41305 17.1763 6.56637 17.5879 6.5882H21.0587C21.5955 6.64338 22.0923 6.89729 22.4515 7.30004C22.8106 7.70279 23.0062 8.22527 22.9998 8.76488V17.588C22.9998 18.1029 22.7953 18.5966 22.4313 18.9606C22.0673 19.3247 21.5735 19.5292 21.0587 19.5292H2.9413C2.42648 19.5292 1.93274 19.3247 1.5687 18.9606C1.20466 18.5966 1.00015 18.1029 1.00015 17.588V8.76488C0.99377 8.22527 1.18937 7.70279 1.54854 7.30004C1.90771 6.89729 2.40449 6.64338 2.9413 6.5882H6.41208Z" stroke="#505256" stroke-linecap="round" stroke-linejoin="round"/>
<path d="M11.9997 15.6468C13.9651 15.6468 15.5585 14.0535 15.5585 12.0881C15.5585 10.1226 13.9651 8.5293 11.9997 8.5293C10.0342 8.5293 8.44092 10.1226 8.44092 12.0881C8.44092 14.0535 10.0342 15.6468 11.9997 15.6468Z" stroke="#505256" stroke-linecap="round" stroke-linejoin="round"/>
<path d="M19 8C19.1978 8 19.3911 8.05865 19.5556 8.16853C19.72 8.27841 19.8482 8.43459 19.9239 8.61732C19.9996 8.80004 20.0194 9.00111 19.9808 9.19509C19.9422 9.38907 19.847 9.56726 19.7071 9.70711C19.5673 9.84696 19.3891 9.9422 19.1951 9.98079C19.0011 10.0194 18.8 9.99957 18.6173 9.92388C18.4346 9.84819 18.2784 9.72002 18.1685 9.55557C18.0587 9.39112 18 9.19778 18 9C18 8.73478 18.1054 8.48043 18.2929 8.29289C18.4804 8.10536 18.7348 8 19 8Z" fill="#505256"/>
</svg>
