<svg width="230" height="146" viewBox="0 0 230 146" fill="none" xmlns="http://www.w3.org/2000/svg">
<path d="M82.0214 20.9273C81.6948 20.6287 81.2676 20.5418 80.7215 20.6295C80.3029 20.6998 79.8476 20.8807 79.392 21.1541C78.3258 21.8011 77.2319 22.6235 76.0557 23.6023C75.3353 24.2153 74.3228 25.1586 72.9911 26.4226L69.8428 20.6091C69.3996 19.7457 68.8917 19.2606 68.337 19.1911C68.0733 19.1611 67.7913 19.1864 67.5543 19.3507C67.3265 19.4874 67.1349 19.6983 66.9978 19.9282C66.8515 20.1857 66.7408 20.7024 66.6477 21.441C66.4236 23.3986 65.8244 26.1201 64.8499 29.6055L62.8261 37.3522C62.6422 37.9976 62.6681 38.4692 62.9038 38.767C63.0849 39.0459 63.4028 39.1873 63.7666 39.1905C64.1305 39.1936 64.4673 39.0949 64.7499 38.8847C65.1237 38.5829 65.4255 38.0402 65.6371 37.2194L69.1839 25.0678L70.6486 28.0753C71.2364 29.2357 71.8804 29.8606 72.6078 29.9594C73.1443 29.9917 73.7819 29.72 74.4658 29.1251L78.8432 25.281C76.9764 32.1878 76.8334 31.3362 74.2036 37.8853C73.8187 38.8617 73.7528 39.6098 73.9787 40.1201C74.1957 40.5657 74.586 40.8556 75.1495 40.9899C75.7131 41.1242 76.1862 41.0728 76.56 40.7711C76.8791 40.5427 77.1533 40.083 77.3827 39.3917C80.466 30.1939 80.5921 30.6386 81.9349 25.5851C82.3117 24.2666 82.4786 23.2143 82.4718 22.4101C82.5193 21.7173 82.348 21.2259 82.0214 20.9273Z" fill="#B4B6BA"/>
<path fill-rule="evenodd" clip-rule="evenodd" d="M137.228 123.441L137.227 123.44C137.13 123.206 137.032 122.968 136.936 122.725C136.344 121.296 135.774 119.954 135.179 118.582C134.723 117.339 134.307 116.079 133.889 114.816C133.594 113.921 133.298 113.026 132.987 112.134C132.804 111.64 132.595 111.158 132.387 110.679L132.386 110.678L132.386 110.678L132.386 110.678L132.386 110.678C132.067 109.944 131.752 109.217 131.539 108.464C131.295 107.578 131.175 106.658 131.054 105.735C131.001 105.33 130.947 104.925 130.884 104.523C130.752 103.718 130.626 102.91 130.499 102.102L130.499 102.099C130.2 100.194 129.901 98.2828 129.532 96.3822C128.832 92.781 128.657 89.2369 129.625 85.6411C130.38 82.9173 131.751 80.6547 133.979 79.0374C134.644 78.5605 134.935 78.3199 134.673 77.479C134.244 76.1158 133.843 74.7542 133.441 73.3926L133.441 73.3924C133.04 72.0309 132.639 70.6694 132.21 69.3064L132.21 69.3059L132.21 69.3057L132.21 69.3055L132.21 69.3053L132.21 69.305C131.115 65.7967 130.02 62.2884 128.868 58.8055C128.289 57.0367 127.682 55.2852 127.074 53.5308C126.625 52.2339 126.174 50.9354 125.735 49.6272C124.933 47.2694 124.141 44.9024 123.347 42.5312C122.782 40.8426 122.217 39.1519 121.646 37.4609C121.326 36.5053 120.987 35.5604 120.648 34.6171L120.648 34.617C120.07 33.0094 119.494 31.4065 119.019 29.764C118.523 28.0329 117.95 26.3246 117.376 24.6159L117.376 24.6158L117.376 24.6156L117.376 24.6155L117.376 24.6154C115.992 20.4933 114.608 16.3693 114.311 11.92C114.209 10.6887 114.523 10.0217 115.44 9.5016C116.225 9.06755 116.607 9.5509 116.978 10.0207C117.095 10.1688 117.212 10.3155 117.339 10.4317C117.499 10.5545 120.518 16.6196 121.754 19.5659C123.024 22.5611 124.191 25.5923 125.359 28.6296L125.359 28.6298C125.557 29.1432 125.755 29.6569 125.953 30.1705C126.527 31.6544 127.095 33.138 127.661 34.6201L127.661 34.6206L127.662 34.621L127.662 34.6215L127.662 34.622C128.641 37.1818 129.618 39.7374 130.629 42.2833C131.301 43.9819 132.032 45.6643 132.764 47.35L132.764 47.3506C133.287 48.5559 133.812 49.7629 134.316 50.9787C135.002 52.6118 135.67 54.244 136.338 55.8732L136.338 55.8741L136.338 55.8749L136.339 55.8757L136.339 55.8766C137.114 57.7678 137.887 59.6551 138.684 61.5356C139.18 62.704 139.692 63.8621 140.204 65.019L140.204 65.0195C140.843 66.4625 141.481 67.9035 142.083 69.3601C142.699 70.8758 143.286 72.4043 143.873 73.9327L143.873 73.9329C144.461 75.4614 145.048 76.9899 145.663 78.5058C145.835 78.9427 146.258 79.3648 146.661 79.6433C150.454 82.102 153.829 85.1079 156.939 88.3845C160.833 92.507 164.181 97.0908 167.526 101.672L167.526 101.672L167.527 101.672C167.961 102.267 168.396 102.862 168.831 103.456C169.224 103.994 169.623 104.528 170.021 105.061C171.226 106.673 172.428 108.281 173.466 110.008C175.616 113.546 177.65 117.192 179.57 120.888C180.528 122.699 181.4 124.569 182.272 126.437C182.827 127.628 183.382 128.818 183.959 129.992C184.137 130.315 184.641 130.77 184.949 130.73C186.054 130.568 187.15 130.374 188.244 130.18L188.244 130.18L188.244 130.18L188.244 130.18L188.244 130.18C189.678 129.925 191.109 129.671 192.554 129.492C195.942 129.078 199.301 128.691 202.701 128.563C204.692 128.493 206.686 128.787 208.662 129.079L208.663 129.079C208.9 129.114 209.137 129.149 209.373 129.183C211.584 129.475 213.79 129.851 215.959 130.397C218.018 130.909 220.01 131.644 221.97 132.464C222.322 132.581 222.436 133.336 222.528 133.947L222.528 133.947C222.543 134.048 222.557 134.146 222.572 134.235C222.596 134.322 221.906 134.741 221.661 134.642C217.601 133.024 213.406 131.854 209.086 131.476C204.986 131.139 200.791 131.024 196.682 131.398C194.202 131.624 191.754 132.136 189.304 132.648C187.5 133.024 185.695 133.401 183.877 133.665C180.429 134.161 176.933 134.512 173.453 134.55C170.474 134.587 167.518 134.198 164.562 133.809C162.739 133.557 160.948 133.181 159.156 132.805L159.156 132.805C158.26 132.616 157.364 132.428 156.465 132.256C154.234 131.821 152.002 131.414 149.769 131.035C149.396 130.975 149.024 130.913 148.65 130.851L148.65 130.851L148.649 130.851L148.649 130.851L148.648 130.851C146.891 130.558 145.121 130.264 143.361 130.145C142.167 130.079 140.963 130.184 139.76 130.289C139.258 130.333 138.757 130.376 138.256 130.408C138.058 130.421 137.859 130.458 137.66 130.496C137.382 130.549 137.103 130.601 136.828 130.586C136.374 130.572 135.918 130.529 135.462 130.487C134.607 130.407 133.754 130.327 132.914 130.43C130 130.813 127.078 131.366 124.183 131.921C123.55 132.045 122.916 132.168 122.282 132.292L122.282 132.292C118.468 133.034 114.643 133.778 110.851 134.672C107.387 135.48 103.878 135.546 100.38 135.412C99.3797 135.377 98.3901 135.145 97.4101 134.914C97.0023 134.818 96.5962 134.723 96.1917 134.642C95.6158 134.521 95.0435 134.397 94.4721 134.273L94.4711 134.273C93.4049 134.041 92.3422 133.811 91.2666 133.604C89.5879 133.256 87.9339 132.966 86.28 132.676C85.4496 132.528 84.6138 132.398 83.7772 132.267L83.7768 132.267L83.7764 132.267L83.7761 132.267L83.7757 132.267C82.5301 132.073 81.2825 131.879 80.048 131.624C78.8538 131.395 77.666 131.112 76.4793 130.829C74.3542 130.323 72.2323 129.817 70.0823 129.627C67.5069 129.401 64.8094 129.909 62.2476 130.482C60.2791 130.906 58.3554 131.486 56.4298 132.066L56.4293 132.066C54.9421 132.515 53.4537 132.964 51.9427 133.341C49.0113 134.065 46.0289 134.7 43.0307 135.107C41.1819 135.348 39.2415 135.214 37.3596 135.026C36.307 134.925 35.2648 134.627 34.2346 134.332L34.2345 134.332C33.9102 134.24 33.5871 134.147 33.2652 134.061C32.6556 133.906 32.0386 133.763 31.4201 133.618C29.8658 133.256 28.3015 132.891 26.8181 132.342C25.2644 131.772 23.7558 131.096 22.2482 130.421L22.248 130.421L22.2477 130.42L22.2474 130.42L22.2472 130.42C20.6566 129.708 19.0672 128.996 17.4272 128.409C13.386 126.963 9.23756 125.967 4.89956 125.93C4.07954 125.909 3.23529 125.637 2.39951 125.368L2.18071 125.298C2.07033 125.263 1.96017 125.228 1.85028 125.194C1.64669 125.13 1.53061 124.775 1.43814 124.492L1.41761 124.429C1.39286 124.371 1.73924 124.133 1.93642 124.087C2.41549 123.971 2.89455 123.854 3.36614 123.88C6.05847 123.998 8.72156 124.143 11.4109 124.318C11.7216 124.335 12.0285 124.425 12.3354 124.515C12.4121 124.537 12.4888 124.56 12.5655 124.581C13.1116 124.749 13.6566 124.915 14.2007 125.081L14.2024 125.082L14.2041 125.082C16.3595 125.74 18.501 126.394 20.6397 127.102C21.9653 127.545 23.2894 128.016 24.6135 128.487L24.6146 128.487C25.939 128.959 27.2635 129.43 28.5894 129.873C30.3934 130.484 32.2265 131.069 34.0672 131.511C35.0748 131.775 36.1099 131.87 37.1333 131.964L37.1337 131.964L37.3651 131.986C37.4402 131.993 37.5152 132 37.5902 132.007C37.668 132.014 37.7458 132.022 37.8235 132.03C38.7636 132.138 39.7068 132.189 40.653 132.184C41.8834 132.196 41.7761 131.538 41.6682 130.875C41.6078 130.504 41.5472 130.133 41.7204 129.876C41.7835 129.78 41.8204 129.67 41.8588 129.555L41.8589 129.554C41.8757 129.504 41.8927 129.453 41.9123 129.402C42.819 127.277 43.7169 125.147 44.6148 123.017C46.8598 117.691 49.1047 112.366 51.4874 107.12C54.2257 101.084 57.749 95.4614 61.4589 89.9913C64.1419 86.0614 67.5319 82.9682 71.1626 80.0592L71.2074 80.0239C72.4129 79.0748 73.6764 78.0799 75.076 77.5931C77.5126 76.7568 78.3342 74.8918 78.9795 72.6751C79.0804 72.3274 79.1809 71.9787 79.2816 71.6294L79.2817 71.6287C79.9608 69.2725 80.6475 66.8901 81.5189 64.6043C82.502 61.9997 83.5844 59.4397 84.6653 56.8834L84.6655 56.8829L84.6657 56.8824L84.6675 56.878C85.1854 55.6532 85.7029 54.4292 86.2089 53.2016C86.3056 52.9503 86.3311 52.4671 86.1751 52.2591C84.5352 50.1174 82.7462 48.167 80.2757 47.0062C77.5878 45.7479 74.7994 45.3394 71.9175 46.1799C71.0147 46.4383 70.1232 46.7562 69.2321 47.074L69.2319 47.0741L69.2317 47.0742C67.9762 47.5219 66.7216 47.9694 65.4377 48.2495C64.2935 48.4983 63.1862 48.8703 62.0762 49.2432C60.2376 49.8609 58.3917 50.481 56.3585 50.5479C52.987 50.6491 49.7885 50.1042 46.6066 49.2466C44.0722 48.5736 41.8947 47.1778 39.7119 45.7786C38.87 45.239 38.0274 44.6988 37.1631 44.1995C36.0032 43.5091 35.8442 42.3033 36.7055 41.2671C38.3975 39.25 40.142 37.2928 41.9127 35.3655C43.3723 33.7831 44.8506 32.2117 46.3253 30.6441C47.3546 29.5499 48.3822 28.4577 49.4003 27.3649C50.9941 25.6275 51.7062 23.728 50.915 21.319C50.6832 20.6179 50.5988 19.8841 50.514 19.147L50.514 19.1468L50.5139 19.1465L50.5139 19.1462L50.5139 19.1459C50.4758 18.8153 50.4377 18.4839 50.3862 18.1546C50.2886 17.538 50.1846 16.9231 50.0806 16.3086L50.0803 16.3064L50.0799 16.3043L50.0795 16.3019L50.0791 16.2996C49.8056 14.6824 49.5325 13.0677 49.3771 11.4295C49.2071 9.57475 49.1857 7.72805 49.1642 5.88136C49.1612 5.61738 49.1581 5.3534 49.1546 5.0894C49.1666 4.86202 49.4665 4.4508 49.7206 4.37914C49.9605 4.29572 50.2025 4.20077 50.4454 4.10547C51.2072 3.80665 51.9773 3.50452 52.7135 3.54466C55.1151 3.6756 56.9813 5.17527 58.783 6.62314L58.9966 6.7947C59.6539 7.32187 60.2967 7.86727 60.9394 8.41252L60.9396 8.41271L60.9403 8.41331C62.9071 10.082 64.8722 11.7493 67.2443 12.8883C69.8768 14.1435 72.5759 14.6612 75.3874 14.1019C76.4027 13.8912 77.3916 13.5686 78.3817 13.2456C78.9824 13.0496 79.5837 12.8534 80.1916 12.6821C80.8105 12.5052 81.4298 12.3209 82.0501 12.1364C83.8641 11.5967 85.6861 11.0546 87.5298 10.6878C91.184 9.97487 94.833 9.88878 98.2677 11.7578C99.0527 12.1712 99.5843 12.1146 100.022 11.1979C100.398 10.3917 100.809 9.59463 101.22 8.79751C101.63 8.00039 102.041 7.20327 102.417 6.39715C103.104 4.98086 104.397 5.2509 105.325 5.58656C107.041 6.19519 106.348 8.71991 106.025 9.89755C105.973 10.0884 105.93 10.2439 105.909 10.3501C105.771 11.0451 105.639 11.7449 105.508 12.446L105.507 12.4471L105.507 12.4475C105.169 14.2494 104.828 16.06 104.375 17.8202C104.073 18.9868 103.67 20.1384 103.267 21.2914L103.267 21.2915L103.267 21.2916L103.267 21.2917L103.266 21.292L103.266 21.2921L103.266 21.2922L103.266 21.2923L103.266 21.2924C102.97 22.1393 102.673 22.987 102.416 23.8419C101.749 26.0853 101.093 28.3294 100.438 30.5706L100.434 30.5838L100.434 30.5845L100.434 30.5852C99.6985 33.1028 98.9641 35.6166 98.2147 38.1217C97.9731 38.925 97.6715 39.7178 97.3707 40.5085C96.8313 41.9261 96.2945 43.3372 96.1107 44.791C95.85 46.9506 95.2006 48.959 94.5497 50.9722C94.3386 51.6253 94.1273 52.2789 93.929 52.9384C93.4455 54.5734 92.9981 56.2105 92.5508 57.8475C92.2154 59.0753 91.8799 60.303 91.5291 61.53L91.3077 62.3251L91.1424 62.9193C89.9369 67.2525 88.7378 71.5627 87.3814 75.8411C87.0471 76.9061 87.2975 77.4328 87.9086 77.9792C90.1663 80.0121 91.7897 82.4665 92.4925 85.4978L92.5592 85.7903L92.5592 85.7904C93.4188 89.558 94.2678 93.2797 93.5724 97.2151C93.4165 98.14 93.3436 99.0826 93.2706 100.026C93.192 101.041 93.1134 102.057 92.9312 103.052C92.7217 104.195 92.4142 105.312 92.1077 106.426C91.786 107.594 91.4655 108.759 91.2606 109.945C90.6469 113.674 89.5152 117.204 88.2447 120.726L88.1936 120.868L88.1935 120.868L88.1935 120.868C87.525 122.724 86.8378 124.633 86.5463 126.562C86.3814 127.579 86.1671 128.48 85.3379 128.378C84.7099 128.302 84.1326 127.83 83.563 127.365C83.3553 127.196 83.1486 127.027 82.9408 126.879C82.8606 126.817 82.9618 126.481 83.0262 126.313C83.3368 125.443 83.6525 124.572 83.969 123.7L83.9692 123.699L83.9694 123.699L83.9712 123.694L83.9718 123.692L83.9727 123.69L83.9733 123.688C84.3873 122.547 84.8027 121.402 85.2097 120.247C85.2519 120.078 85.2648 119.898 85.2775 119.72C85.286 119.6 85.2945 119.482 85.3116 119.369C85.2665 119.389 85.2203 119.409 85.1736 119.429C84.9846 119.511 84.7881 119.597 84.6263 119.702C82.4882 121.21 80.095 121.222 77.7071 120.607C76.3073 120.246 75.2426 119.333 74.7918 117.855C74.6726 117.478 74.8135 116.915 75.0504 116.643C75.2273 116.453 75.7851 116.427 76.112 116.558C76.4875 116.702 76.8518 116.894 77.216 117.086C77.7776 117.381 78.3389 117.676 78.9401 117.796C82.3226 118.458 84.3595 116.306 86.3816 114.171C86.5325 114.011 86.6833 113.852 86.8345 113.694C87.2161 113.316 87.6052 112.795 87.7168 112.26C87.9396 111.224 88.1721 110.19 88.4044 109.157C89.1326 105.919 89.8598 102.685 90.2858 99.4018C90.8477 95.0712 90.884 90.6835 89.4704 86.3592C88.5134 83.3996 87.3428 80.7988 84.5297 79.2772C81.2295 77.8662 77.291 80.1029 76.497 80.5538C76.4269 80.5936 76.3814 80.6195 76.3629 80.6277C72.307 82.63 69.0031 85.6708 66.2054 89.1384C63.7368 92.2281 61.6468 95.6637 59.5675 99.0816L59.4085 99.343C57.3088 102.763 55.2076 106.212 53.5675 109.885C51.7341 113.957 50.0323 118.085 48.3294 122.216C47.1352 125.114 45.9404 128.012 44.6992 130.894C44.1925 132.063 44.7518 132.008 45.3973 131.901C47.1644 131.627 48.9053 131.323 50.6259 130.875C51.9121 130.52 53.1867 130.127 54.4606 129.734C56.3461 129.153 58.2298 128.573 60.1466 128.116C62.6822 127.513 65.2905 127.114 67.8883 126.913C69.7589 126.787 71.6948 127.007 73.5444 127.279C75.0454 127.493 76.5276 127.831 78.0137 128.17L78.0139 128.17L78.0141 128.17L78.0143 128.17L78.0145 128.17C78.7699 128.343 79.5264 128.516 80.2869 128.672C80.8788 128.792 81.4671 128.903 82.0529 129.014C82.9926 129.192 83.9258 129.368 84.8574 129.577C85.8883 129.804 86.9189 130.039 87.9494 130.273L87.9505 130.273L87.9517 130.273C88.9822 130.508 90.0127 130.742 91.0436 130.969C91.7867 131.124 92.0805 130.826 92.1794 130.005L92.1795 130.004C92.6394 125.497 93.0993 120.99 93.7256 116.493C94.2149 113.013 94.926 109.546 95.6371 106.079L95.6373 106.079L95.7213 105.675C96.7723 100.625 97.8173 95.6038 99.6725 90.7351C101.089 87.0782 102.768 83.7207 105.368 80.841C106.136 79.9992 106.712 79.09 106.613 77.8019C106.527 76.6662 106.536 75.5038 106.545 74.3453L106.545 74.3443C106.548 73.9556 106.551 73.5673 106.55 73.1807C106.555 71.6297 106.569 70.0836 106.582 68.5401L106.582 68.538L106.582 68.5371L106.582 68.536C106.602 66.1671 106.623 63.8045 106.612 61.4402C106.594 58.6581 106.551 55.887 106.507 53.1121L106.507 53.1067L106.507 53.1006C106.485 51.67 106.462 50.2383 106.443 48.8034C106.439 47.7235 106.419 46.6465 106.399 45.572L106.399 45.5714C106.366 43.7244 106.332 41.8845 106.376 40.0489C106.49 35.3345 106.676 30.624 106.862 25.9135C106.908 24.7362 106.955 23.5589 107 22.3816C107.014 22.1258 107.485 16.3365 108.343 13.7894C108.51 13.2569 109.314 12.7876 109.907 12.6204C110.614 12.4025 111.24 12.6646 111.668 13.5146C112.524 15.1726 112.741 16.9738 112.957 18.77C113.027 19.357 113.098 19.9435 113.191 20.5242C113.408 21.9035 113.504 23.2899 113.601 24.6806C113.643 25.2902 113.685 25.9006 113.738 26.5115L113.776 26.9831L113.776 26.9839C113.881 28.2814 113.985 29.561 114.065 30.8621C114.108 31.7082 114.135 32.549 114.161 33.387L114.161 33.3877C114.201 34.6728 114.241 35.9516 114.341 37.2337C114.444 38.7023 114.583 40.1669 114.722 41.6309C114.883 43.333 115.044 45.0345 115.148 46.7412C115.237 48.1348 115.208 49.5221 115.179 50.9094L115.179 50.9096C115.168 51.4299 115.157 51.9502 115.153 52.4708C115.147 52.7766 115.121 53.0896 115.094 53.4045C115.052 53.9109 115.009 54.4223 115.052 54.9167C115.134 56.0892 115.232 57.2572 115.33 58.4245C115.459 59.9635 115.588 61.5013 115.681 63.0463C115.748 64.1474 115.773 65.2533 115.798 66.3592C115.823 67.4652 115.849 68.5711 115.916 69.6722C116.073 72.5027 116.312 75.3662 116.579 78.2027C116.615 78.5753 116.81 79.099 117.082 79.2278C119.523 80.4156 120.932 82.7157 122.238 84.8677C123.363 86.6893 124.152 88.745 124.94 90.7948C125.211 91.5001 125.481 92.2047 125.765 92.8988C126.406 94.473 126.989 96.0726 127.458 97.7229C128.067 99.8288 128.62 101.96 129.176 104.099L129.176 104.099C129.415 105.019 129.654 105.941 129.898 106.863C130.039 107.389 130.183 107.914 130.327 108.438L130.328 108.441C130.801 110.164 131.273 111.882 131.628 113.628C132.265 116.855 132.819 120.078 133.343 123.327C133.439 123.924 133.49 124.532 133.543 125.144L133.543 125.144C133.594 125.742 133.645 126.344 133.737 126.94C133.779 127.199 134.148 127.59 134.37 127.602C135.245 127.635 136.114 127.633 136.984 127.63C137.853 127.628 138.723 127.626 139.597 127.659C142.874 127.781 146.121 127.929 149.362 128.191C151.273 128.353 153.174 128.713 155.074 129.073C156.534 129.359 157.987 129.681 159.44 130.002L159.44 130.003L159.44 130.003L159.441 130.003L159.441 130.003C161.605 130.482 163.767 130.961 165.945 131.319C168.647 131.78 171.418 131.988 174.169 132.052C176.031 132.08 177.886 131.856 179.738 131.631C180.043 131.595 180.347 131.558 180.651 131.522C180.987 131.483 181.723 131.238 181.21 130.412C180.645 129.526 180.195 128.561 179.773 127.598C179.523 127.06 179.301 126.505 179.079 125.95L179.078 125.95L179.078 125.95C178.745 125.117 178.412 124.285 177.985 123.509L177.985 123.509C176.642 121.013 175.299 118.517 173.756 116.124C170.875 111.663 167.908 107.254 164.911 102.872C163.888 101.407 162.785 100.034 161.669 98.6464C161.43 98.3498 161.191 98.0524 160.952 97.7533C160.364 97.0153 159.786 96.265 159.208 95.5148C157.687 93.5385 156.166 91.563 154.443 89.8162C152.391 87.727 150.091 85.9031 147.787 84.0748C147.333 83.7155 146.88 83.3559 146.429 82.9942C144.213 81.2201 141.71 80.143 138.864 80.3014C137.191 80.3812 135.664 80.8395 134.637 82.3798C133.188 84.5526 132.501 87.0236 132.396 89.5547C132.324 91.8175 132.605 94.1207 132.881 96.3897L132.881 96.3905C132.924 96.7464 132.967 97.1015 133.009 97.4554C133.259 99.5784 133.649 101.681 134.096 103.757C134.203 104.248 134.297 104.75 134.391 105.255L134.392 105.256C134.692 106.861 134.996 108.492 135.751 109.833C137.737 113.334 141.182 115.004 145.014 115.669C145.923 115.832 146.761 116.306 146.643 116.955C146.527 117.576 145.593 118.408 144.921 118.486C142.736 118.766 140.681 118.169 138.766 117.038C138.622 116.955 138.426 116.919 138.23 116.883C138.132 116.865 138.034 116.846 137.942 116.823C137.956 116.918 137.963 117.017 137.97 117.115C137.985 117.313 137.999 117.51 138.064 117.684C138.13 117.846 138.197 118.008 138.264 118.171L138.466 118.664C139.221 120.508 139.988 122.379 140.837 124.192C141.336 125.274 140.743 125.983 140.039 126.144C139.964 126.16 139.881 126.182 139.794 126.206L139.793 126.206C139.155 126.376 138.238 126.621 137.936 125.402C137.765 124.74 137.502 124.104 137.228 123.441ZM84.5678 13.7309C84.3915 13.7817 84.2213 13.8308 84.0506 13.8901C83.7798 13.9897 83.5128 14.0889 83.2489 14.187C81.6045 14.7982 80.0784 15.3653 78.5027 15.697C76.0548 16.2191 73.5957 16.4271 70.9896 16.2565C67.2099 16.0263 64.4821 13.9944 61.7169 11.9347C61.2158 11.5614 60.7134 11.1872 60.2033 10.8226C59.3948 10.2557 58.638 9.61199 57.8821 8.96899C56.3303 7.64906 54.7818 6.33196 52.7954 5.68697C52.6597 5.62256 52.2301 5.85568 52.2241 5.96937C52.2251 6.31958 52.2214 6.67108 52.2178 7.02304C52.2056 8.18958 52.1935 9.36124 52.3468 10.5083C52.4273 11.0966 52.5066 11.6856 52.5859 12.2747C53.0408 15.6543 53.4968 19.0423 54.1975 22.3816C54.5298 23.996 54.7645 25.3485 53.694 26.6583C53.5968 26.7751 53.4996 26.8922 53.4022 27.0096L53.4019 27.01L53.4009 27.0111C52.725 27.8256 52.0405 28.6503 51.2959 29.4065C50.4919 30.2434 49.6715 31.0737 48.8493 31.9058L48.8492 31.9059L48.8491 31.906L48.849 31.9061L48.8487 31.9064C47.8349 32.9324 46.8184 33.9612 45.8263 35.0088C45.0945 35.7942 44.3814 36.5968 43.6689 37.3988L43.6683 37.3994C42.4861 38.7301 41.3051 40.0594 40.0419 41.3064C39.1617 42.1706 39.6634 42.6825 40.2295 43.0269C40.6582 43.2767 41.0866 43.5325 41.5159 43.7889L41.5187 43.7907L41.5216 43.7924L41.5221 43.7927L41.5225 43.7929C43.3615 44.8913 45.2173 45.9997 47.1866 46.6843C49.7538 47.5939 52.5624 48.1461 55.2825 48.2659C57.2813 48.3464 59.361 47.9467 61.3553 47.0577C62.7171 46.4507 64.1976 46.0982 65.6787 45.7456C66.5523 45.5376 67.4261 45.3296 68.2759 45.0692C68.9249 44.868 69.5507 44.6044 70.1725 44.3424C70.8242 44.0678 71.4716 43.7951 72.1369 43.5979C75.2438 42.7127 78.1821 43.443 81.0612 44.7686C82.9349 45.6404 84.6301 46.7305 85.8749 48.4516C86.0765 48.7241 86.4221 48.8909 86.7599 49.0538C86.9008 49.1218 87.0404 49.1892 87.1675 49.2632C87.2402 49.1152 87.3189 48.9706 87.3976 48.826C87.555 48.5369 87.7125 48.2478 87.8219 47.9307C88.7069 45.3857 89.5364 42.8377 90.3659 40.2898L90.3666 40.2877C90.8882 38.6901 91.4229 37.096 91.9577 35.5012L91.9578 35.501L91.9579 35.5008L91.9579 35.5007L91.958 35.5005C93.1577 31.9235 94.3584 28.3433 95.4154 24.7144C95.6176 24.0178 95.8118 23.3184 96.0059 22.619L96.0069 22.6155L96.0069 22.6154L96.007 22.6152L96.007 22.615L96.0071 22.6149C96.7588 19.9068 97.5102 17.1997 98.7268 14.6618C98.9787 14.1055 99.0176 13.3665 97.8952 13.0202C93.4889 11.6398 89.1952 12.3463 84.927 13.6244C84.8033 13.663 84.6842 13.6973 84.5678 13.7309ZM98.9542 104.744C98.8594 105.322 98.7645 105.899 98.649 106.471C98.2137 108.927 97.8195 111.129 97.3991 113.301C97.3209 113.676 97.2396 114.047 97.1585 114.417L97.1582 114.418C97.0076 115.105 96.8577 115.788 96.7306 116.485C96.4174 118.207 96.1334 119.902 95.9034 121.628C95.8326 122.18 95.8173 122.735 95.8019 123.29L95.8019 123.29C95.7866 123.845 95.7713 124.4 95.7005 124.952C95.622 125.6 95.4816 126.228 95.3409 126.857L95.3409 126.857L95.3408 126.857C95.2171 127.411 95.0931 127.965 95.011 128.535C94.8829 129.383 94.8088 130.262 94.9026 131.123C94.9153 131.408 95.5369 131.756 95.9223 131.834C96.3613 131.916 96.8013 132.007 97.2421 132.099C98.7374 132.409 100.242 132.721 101.747 132.693C105.228 132.626 108.747 132.362 112.197 131.837C115.416 131.351 118.616 130.693 121.818 130.035C123.163 129.759 124.508 129.482 125.855 129.219C127.205 128.95 128.557 128.625 129.884 128.27C130.109 128.225 130.385 127.727 130.34 127.525C130.14 126.572 130.141 125.622 130.143 124.666C130.144 123.712 130.146 122.752 129.948 121.774C129.677 120.464 129.438 119.151 129.199 117.838C128.655 114.847 128.111 111.862 127.202 108.94C126.518 106.737 125.883 104.519 125.248 102.301L125.248 102.301L125.248 102.301L125.248 102.301L125.248 102.301L125.248 102.3L125.247 102.3L125.247 102.3L125.247 102.3C124.269 98.8835 123.29 95.4663 122.135 92.1023C121.22 89.4015 119.683 86.8948 118.139 84.5018C117.058 82.8466 115.344 81.5844 113.428 80.9954C112.469 80.715 111.21 80.8459 110.298 81.2523C107.448 82.5506 105.709 84.9357 104.305 87.8236C103.035 90.4483 102.215 93.2204 101.396 95.9896L101.395 95.9898L101.395 95.99L101.395 95.9901L101.395 95.9903C100.906 97.6453 100.416 99.2991 99.8316 100.92C99.3818 102.14 99.1682 103.441 98.9542 104.744ZM108.924 42.1415L108.924 42.1418C109.089 45.6235 109.254 49.1081 108.998 52.5913C109.024 52.9935 109.072 53.3067 109.115 53.5853C109.148 53.802 109.178 53.9978 109.192 54.1981C109.351 57.9986 109.486 61.8221 109.62 65.6249L109.653 66.5658C109.662 66.7563 109.645 66.9454 109.629 67.1346L109.629 67.1353C109.621 67.2296 109.613 67.324 109.608 67.4185L109.605 67.5462C109.517 70.7775 109.428 74.0362 109.394 77.2979C109.226 78.3719 113.982 78.9163 114.054 77.552C113.944 76.2166 113.825 74.8855 113.705 73.5552C113.53 71.6052 113.355 69.657 113.21 67.7004C113.016 65.0389 112.881 62.3236 112.8 59.6397C112.776 58.4523 112.781 57.2665 112.786 56.0807C112.795 54.2173 112.803 52.3538 112.698 50.4842C112.558 47.933 112.335 45.3773 112.111 42.8216L112.111 42.82C111.971 41.2233 111.831 39.6265 111.712 38.031C111.6 36.5453 111.518 35.0553 111.435 33.5648L111.435 33.5641L111.435 33.5635L111.435 33.5629L111.435 33.5624L111.435 33.5618L111.435 33.5613C111.336 31.7794 111.237 29.9968 111.088 28.2199C110.954 26.7725 110.755 25.3312 110.555 23.8884C110.41 22.8465 110.266 21.8037 110.146 20.7573C110.066 20.1544 109.671 18.6791 109.661 18.878C109.653 19.556 109.65 20.2342 109.648 20.9135L109.648 20.9139C109.644 22.2896 109.64 23.6695 109.586 25.0594C109.563 25.4858 109.478 25.9158 109.393 26.3459C109.307 26.7759 109.222 27.206 109.2 27.6323C109.157 28.7124 109.103 29.792 109.05 30.8711L109.05 30.8715L109.05 30.872L109.05 30.8724L109.05 30.8729C108.89 34.1124 108.73 37.348 108.851 40.5829C108.875 41.1024 108.899 41.6219 108.924 42.1415ZM141.458 74.3806C141.271 73.9189 141.084 73.4581 140.89 73.0007C139.681 70.2759 138.627 67.728 137.55 65.1245L137.549 65.1231L137.548 65.1217L137.548 65.1204L137.524 65.0639C137.17 64.195 136.817 63.3273 136.463 62.4607L136.463 62.4591C135.099 59.11 133.74 55.7755 132.347 52.4391C131.529 50.4787 130.685 48.5233 129.84 46.5651L129.84 46.5651L129.84 46.565L129.84 46.565L129.84 46.5649C128.9 44.386 127.958 42.2037 127.048 40.0073C125.741 36.829 124.491 33.6254 123.243 30.3933C122.043 27.2779 120.871 24.1925 119.699 21.0786C119.68 21.0224 119.66 20.9646 119.641 20.906C119.538 20.6012 119.427 20.2721 119.255 19.9998C119.158 19.8659 118.963 19.7911 118.78 19.7209C118.719 19.6977 118.66 19.675 118.606 19.6508C118.624 19.7304 118.633 19.8139 118.641 19.8966C118.655 20.0239 118.668 20.1492 118.713 20.2552C120.131 24.4942 121.549 28.7332 122.969 32.9438C123.511 34.5621 124.071 36.1701 124.63 37.7768L124.63 37.7771L124.63 37.7775L124.63 37.7778L124.63 37.7782C125.334 39.8033 126.038 41.8264 126.706 43.8653C127.402 45.9775 128.07 48.0996 128.737 50.2204C129.565 52.8499 130.392 55.4773 131.271 58.0814C131.944 60.0908 132.68 62.0798 133.417 64.0702L133.417 64.0704L133.417 64.0706L133.418 64.0707L133.418 64.0708L133.418 64.0709C134.075 65.8478 134.734 67.6258 135.348 69.4204C135.899 71.0123 136.342 72.6346 136.787 74.2617L136.787 74.262C137.024 75.1293 137.261 75.9981 137.515 76.8643C137.638 77.6976 143.278 78.3757 142.522 76.8807C142.136 76.0525 141.796 75.215 141.458 74.381L141.458 74.3806ZM99.1378 22.1471L99.1375 22.148L98.9452 22.7438L98.8738 22.9647C98.4873 24.277 98.097 25.487 97.7207 26.654L97.7206 26.6545L97.7205 26.6549L97.7203 26.6553L97.7202 26.6557L97.7199 26.6566C97.4369 27.5344 97.1617 28.3879 96.9018 29.2422C96.2677 31.2456 95.6409 33.2424 95.0141 35.2392C94.3873 37.236 93.7606 39.2328 93.1264 41.2363C92.8026 42.2875 92.4872 43.3391 92.1722 44.3896L92.172 44.3902L92.1718 44.3907L92.1717 44.3913L92.1715 44.3918C91.3442 47.1506 90.5193 49.9012 89.5505 52.6142C88.7729 54.7942 87.8991 56.9439 87.0244 59.0956C86.2836 60.918 85.5422 62.7418 84.8582 64.5868C83.9351 67.0592 83.1499 69.5871 82.3648 72.1151L82.3627 72.1219C82.1016 72.9623 81.8406 73.8026 81.5745 74.6409C81.22 75.5622 84.7589 77.0379 85.3045 75.1293C85.4799 74.5408 85.6566 73.9536 85.8331 73.367L85.8358 73.3579C86.4744 71.2355 87.1113 69.1191 87.6819 66.9641C88.3428 64.4738 88.9564 61.9685 89.5691 59.4671L89.5711 59.4592C89.891 58.1532 90.2106 56.8482 90.5367 55.5469L90.7007 54.8754C91.3203 52.3385 91.9448 49.7816 92.6149 47.2514C93.2797 44.6652 93.9722 42.0805 94.7187 39.5273C95.4699 36.9641 96.2469 34.4159 97.0227 31.8719L97.0236 31.869L97.0244 31.8662C97.3689 30.7365 97.7132 29.6075 98.0548 28.4784L100.175 21.4964C100.378 20.8233 100.58 20.1431 100.783 19.4629C100.986 18.7827 101.189 18.1026 101.391 17.4295C101.416 17.3473 101.396 17.2473 101.376 17.1432C101.369 17.1053 101.362 17.0669 101.356 17.0285C101.312 17.0525 101.263 17.0735 101.214 17.0942C101.105 17.1409 100.997 17.1866 100.955 17.2632C100.742 17.5937 100.529 17.9526 100.398 18.316C99.9653 19.5826 99.5501 20.8694 99.1388 22.1439L99.1378 22.1471ZM154.136 116.252C154.703 116.055 155.47 116.267 155.383 117.403C155.376 117.531 155.374 117.636 155.373 117.727C155.371 117.877 155.369 117.99 155.345 118.113C155.136 118.929 154.593 119.184 153.823 119.028C153.052 118.872 152.441 118.326 152.673 117.626C152.841 117.065 153.54 116.476 154.136 116.252ZM71.5278 112.745C71.8156 111.507 71.0688 110.896 70.1826 110.819C69.7665 110.797 68.7955 110.744 68.381 111.747C68.3144 112.485 68.8235 112.854 69.0132 112.95C69.445 113.202 69.9909 113.403 70.464 113.4L70.4996 113.402C70.8261 113.421 71.2227 113.444 71.5278 112.745ZM120.38 109.366C119.865 110.288 119.353 111.204 118.593 111.805C115.58 114.606 108.579 114.423 106.036 112.004C105.27 111.221 104.114 109.933 104.155 109.165C104.08 108.99 104.548 108.56 104.835 108.404C105.007 108.3 105.388 108.463 105.573 108.644C105.839 108.884 106.084 109.153 106.329 109.423L106.329 109.423L106.329 109.423C106.673 109.8 107.018 110.179 107.424 110.484C109.323 111.927 111.48 111.646 113.668 111.309C115.743 110.994 117.325 109.997 118.372 108.088C119.564 105.53 121.145 106.671 120.974 108.344C120.766 108.674 120.573 109.021 120.38 109.366ZM103.909 100.629C103.985 100.234 103.472 99.408 103.169 99.363C102.561 99.2729 101.663 99.4234 101.336 99.8331C101.039 100.187 100.379 101.092 101.348 101.715C101.508 101.838 103.805 102.59 103.909 100.629ZM120.139 100.944C121.288 99.7239 122.228 99.8322 123.026 101.586C122.963 102.78 121.083 103.618 120.567 102.849C120.476 102.707 120.344 102.581 120.212 102.456C119.821 102.084 119.433 101.715 120.139 100.944Z" fill="#B4B6BA"/>
</svg>
