<?xml version="1.0" encoding="UTF-8"?>
<svg width="36" height="36" fill="none" version="1.1" viewBox="0 0 36 36" xmlns="http://www.w3.org/2000/svg">
 <path d="m17.91 0a18 18 0 0 0-17.91 18 18 18 0 0 0 18 18 18 18 0 0 0 18-18 18 18 0 0 0-18-18 18 18 0 0 0-0.089844 0zm0.089844 8.1309a0.50079 0.50079 0 0 1 0.2207 0.050781c0.11095 0.019111 0.22501 0.023779 0.32812 0.070312h0.001953c0.1724 0.077861 0.32595 0.192 0.45117 0.33398l8.541 9.7031a0.50079 0.50079 0 0 1-0.044922 0.70703 0.50079 0.50079 0 0 1-0.70703-0.044922l-8.291-9.4199v17.838a0.50079 0.50079 0 0 1-0.5 0.5 0.50079 0.50079 0 0 1-0.5-0.5v-17.834l-8.291 9.416a0.50079 0.50079 0 0 1-0.70703 0.044922 0.50079 0.50079 0 0 1-0.044922-0.70703l8.543-9.7031c0.12522-0.14199 0.2786-0.25612 0.45117-0.33398 0.10379-0.046883 0.21848-0.05126 0.33008-0.070312a0.50079 0.50079 0 0 1 0.21875-0.050781z" fill="currentColor"/>
</svg>
